Extrabold.ufo
<glyph name="A" format="2">
	<advance width="613"/>
	<outline>
		<contour>
			<point x="12" y="0" type="line"/>
			<point x="201" y="0" type="line"/>
			<point x="201" y="16" type="line"/>
			<point x="107" y="26" type="line"/>
			<point x="88" y="26" type="line"/>
			<point x="12" y="16" type="line"/>
		</contour>
		<contour>
			<point x="71" y="0" type="line"/>
			<point x="102" y="0" type="line"/>
			<point x="287" y="585" type="line"/>
			<point x="291" y="597" type="line"/>
			<point x="273" y="597" type="line"/>
			<point x="457" y="0" type="line"/>
			<point x="542" y="0" type="line"/>
			<point x="319" y="677" type="line"/>
			<point x="289" y="677" type="line"/>
		</contour>
		<contour>
			<point x="166" y="237" type="line"/>
			<point x="423" y="237" type="line"/>
			<point x="423" y="261" type="line"/>
			<point x="166" y="261" type="line"/>
		</contour>
		<contour>
			<point x="363" y="0" type="line"/>
			<point x="601" y="0" type="line"/>
			<point x="601" y="16" type="line"/>
			<point x="517" y="29" type="line"/>
			<point x="471" y="29" type="line"/>
			<point x="363" y="16" type="line"/>
		</contour>
	</outline>
	<anchor name="aboveUC" x="304" y="689"/>
	<anchor name="belowLC" x="286" y="-20"/>
	<anchor name="ogonek" x="498" y="0"/>
</glyph>
<glyph name="AE" format="2">
	<advance width="863"/>
	<outline>
		<contour>
			<point x="438" y="0" type="curve"/>
			<point x="523" y="0" type="line"/>
			<point x="519" y="80"/>
			<point x="519" y="210"/>
			<point x="519" y="316" type="curve" smooth="yes"/>
			<point x="519" y="360" type="line" smooth="yes"/>
			<point x="519" y="462"/>
			<point x="519" y="589"/>
			<point x="523" y="669" type="curve"/>
			<point x="442" y="669" type="line"/>
			<point x="442" y="316" type="line" smooth="yes"/>
			<point x="442" y="210"/>
			<point x="442" y="80"/>
		</contour>
		<contour>
			<point x="12" y="0" type="line"/>
			<point x="205" y="0" type="line"/>
			<point x="205" y="16" type="line"/>
			<point x="107" y="26" type="line"/>
			<point x="88" y="26" type="line"/>
			<point x="12" y="16" type="line"/>
		</contour>
		<contour>
			<point x="677" y="231" type="line"/>
			<point x="694" y="231" type="line"/>
			<point x="694" y="452" type="line"/>
			<point x="677" y="452" type="line"/>
			<point x="646" y="351" type="line"/>
			<point x="646" y="332" type="line"/>
		</contour>
		<contour>
			<point x="789" y="490" type="line"/>
			<point x="805" y="490" type="line"/>
			<point x="793" y="669" type="line"/>
			<point x="478" y="669" type="line"/>
			<point x="478" y="645" type="line"/>
			<point x="731" y="645" type="line"/>
		</contour>
		<contour>
			<point x="479" y="0" type="line"/>
			<point x="809" y="0" type="line"/>
			<point x="821" y="188" type="line"/>
			<point x="805" y="188" type="line"/>
			<point x="747" y="24" type="line"/>
			<point x="479" y="24" type="line"/>
		</contour>
		<contour>
			<point x="333" y="653" type="line"/>
			<point x="437" y="640" type="line"/>
			<point x="467" y="640" type="line"/>
			<point x="467" y="669" type="line"/>
			<point x="333" y="669" type="line"/>
		</contour>
		<contour>
			<point x="359" y="0" type="line"/>
			<point x="494" y="0" type="line"/>
			<point x="494" y="29" type="line"/>
			<point x="463" y="29" type="line"/>
			<point x="359" y="16" type="line"/>
		</contour>
		<contour>
			<point x="66" y="0" type="line"/>
			<point x="98" y="0" type="line"/>
			<point x="223" y="236" type="line"/>
			<point x="451" y="669" type="line"/>
			<point x="421" y="669" type="line"/>
		</contour>
		<contour>
			<point x="207" y="225" type="line"/>
			<point x="479" y="225" type="line"/>
			<point x="479" y="249" type="line"/>
			<point x="207" y="249" type="line"/>
		</contour>
		<contour>
			<point x="479" y="329" type="line"/>
			<point x="659" y="329" type="line"/>
			<point x="659" y="354" type="line"/>
			<point x="479" y="354" type="line"/>
		</contour>
	</outline>
	<anchor name="aboveUC" x="567" y="689"/>
</glyph>
<glyph name="B" format="2">
	<advance width="551"/>
	<outline>
		<contour>
			<point x="38" y="0" type="line"/>
			<point x="169" y="0" type="line"/>
			<point x="169" y="29" type="line"/>
			<point x="142" y="29" type="line"/>
			<point x="38" y="16" type="line"/>
		</contour>
		<contour>
			<point x="117" y="0" type="curve"/>
			<point x="202" y="0" type="line"/>
			<point x="198" y="80"/>
			<point x="198" y="210"/>
			<point x="198" y="316" type="curve" smooth="yes"/>
			<point x="198" y="360" type="line" smooth="yes"/>
			<point x="198" y="462"/>
			<point x="198" y="589"/>
			<point x="202" y="669" type="curve"/>
			<point x="117" y="669" type="line"/>
			<point x="121" y="589"/>
			<point x="121" y="462"/>
			<point x="121" y="360" type="curve" smooth="yes"/>
			<point x="121" y="316" type="line" smooth="yes"/>
			<point x="121" y="210"/>
			<point x="121" y="80"/>
		</contour>
		<contour>
			<point x="150" y="0" type="line"/>
			<point x="266" y="0" type="line" smooth="yes"/>
			<point x="434" y="0"/>
			<point x="513" y="85"/>
			<point x="513" y="181" type="curve" smooth="yes"/>
			<point x="513" y="276"/>
			<point x="436" y="351"/>
			<point x="268" y="352" type="curve"/>
			<point x="268" y="344" type="line"/>
			<point x="412" y="344"/>
			<point x="483" y="420"/>
			<point x="483" y="512" type="curve" smooth="yes"/>
			<point x="483" y="607"/>
			<point x="409" y="669"/>
			<point x="278" y="669" type="curve" smooth="yes"/>
			<point x="150" y="669" type="line"/>
			<point x="150" y="645" type="line"/>
			<point x="258" y="645" type="line" smooth="yes"/>
			<point x="353" y="645"/>
			<point x="408" y="605"/>
			<point x="408" y="506" type="curve" smooth="yes"/>
			<point x="408" y="406"/>
			<point x="353" y="358"/>
			<point x="240" y="358" type="curve" smooth="yes"/>
			<point x="150" y="358" type="line"/>
			<point x="150" y="334" type="line"/>
			<point x="244" y="334" type="line" smooth="yes"/>
			<point x="372" y="334"/>
			<point x="433" y="281"/>
			<point x="433" y="179" type="curve" smooth="yes"/>
			<point x="433" y="82"/>
			<point x="370" y="24"/>
			<point x="251" y="24" type="curve" smooth="yes"/>
			<point x="150" y="24" type="line"/>
		</contour>
		<contour>
			<point x="38" y="653" type="line"/>
			<point x="142" y="640" type="line"/>
			<point x="169" y="640" type="line"/>
			<point x="169" y="669" type="line"/>
			<point x="38" y="669" type="line"/>
		</contour>
	</outline>
	<anchor name="aboveUC" x="271" y="689"/>
	<anchor name="belowLC" x="287" y="-20"/>
</glyph>
<glyph name="C" format="2">
	<advance width="572"/>
	<outline>
		<contour>
			<point x="343" y="-16" type="curve" smooth="yes"/>
			<point x="403" y="-16"/>
			<point x="461" y="-5"/>
			<point x="518" y="31" type="curve"/>
			<point x="528" y="188" type="line"/>
			<point x="510" y="188" type="line"/>
			<point x="450" y="19" type="line"/>
			<point x="497" y="28" type="line"/>
			<point x="498" y="55" type="line"/>
			<point x="446" y="13"/>
			<point x="389" y="5"/>
			<point x="346" y="5" type="curve" smooth="yes"/>
			<point x="222" y="5"/>
			<point x="132" y="120"/>
			<point x="132" y="333" type="curve" smooth="yes"/>
			<point x="132" y="546"/>
			<point x="230" y="664"/>
			<point x="349" y="664" type="curve" smooth="yes"/>
			<point x="396" y="664"/>
			<point x="442" y="654"/>
			<point x="494" y="615" type="curve"/>
			<point x="490" y="641" type="line"/>
			<point x="443" y="651" type="line"/>
			<point x="504" y="483" type="line"/>
			<point x="520" y="483" type="line"/>
			<point x="510" y="639" type="line"/>
			<point x="454" y="678"/>
			<point x="391" y="685"/>
			<point x="344" y="685" type="curve" smooth="yes"/>
			<point x="178" y="685"/>
			<point x="46" y="550"/>
			<point x="46" y="335" type="curve" smooth="yes"/>
			<point x="46" y="117"/>
			<point x="171" y="-16"/>
		</contour>
	</outline>
	<anchor name="aboveUC" x="345" y="689"/>
	<anchor name="baseLC" x="345" y="0"/>
	<anchor name="belowLC" x="342" y="-20"/>
</glyph>
<glyph name="D" format="2">
	<advance width="636"/>
	<outline>
		<contour>
			<point x="38" y="0" type="line"/>
			<point x="169" y="0" type="line"/>
			<point x="169" y="29" type="line"/>
			<point x="142" y="29" type="line"/>
			<point x="38" y="16" type="line"/>
		</contour>
		<contour>
			<point x="117" y="0" type="curve"/>
			<point x="202" y="0" type="line"/>
			<point x="198" y="80"/>
			<point x="198" y="210"/>
			<point x="198" y="316" type="curve" smooth="yes"/>
			<point x="198" y="360" type="line" smooth="yes"/>
			<point x="198" y="462"/>
			<point x="198" y="589"/>
			<point x="202" y="669" type="curve"/>
			<point x="117" y="669" type="line"/>
			<point x="121" y="589"/>
			<point x="121" y="462"/>
			<point x="121" y="360" type="curve" smooth="yes"/>
			<point x="121" y="316" type="line" smooth="yes"/>
			<point x="121" y="210"/>
			<point x="121" y="80"/>
		</contour>
		<contour>
			<point x="169" y="0" type="line"/>
			<point x="278" y="0" type="line" smooth="yes"/>
			<point x="454" y="0"/>
			<point x="590" y="118"/>
			<point x="590" y="334" type="curve" smooth="yes"/>
			<point x="590" y="550"/>
			<point x="468" y="669"/>
			<point x="285" y="669" type="curve" smooth="yes"/>
			<point x="169" y="669" type="line"/>
			<point x="169" y="645" type="line"/>
			<point x="277" y="645" type="line" smooth="yes"/>
			<point x="425" y="645"/>
			<point x="505" y="547"/>
			<point x="505" y="334" type="curve" smooth="yes"/>
			<point x="505" y="147"/>
			<point x="424" y="24"/>
			<point x="268" y="24" type="curve" smooth="yes"/>
			<point x="169" y="24" type="line"/>
		</contour>
		<contour>
			<point x="38" y="653" type="line"/>
			<point x="142" y="640" type="line"/>
			<point x="169" y="640" type="line"/>
			<point x="169" y="669" type="line"/>
			<point x="38" y="669" type="line"/>
		</contour>
	</outline>
	<anchor name="aboveUC" x="303" y="689"/>
	<anchor name="belowLC" x="293" y="-20"/>
</glyph>
<glyph name="E" format="2">
	<advance width="542"/>
	<outline>
		<contour>
			<point x="38" y="0" type="line"/>
			<point x="174" y="0" type="line"/>
			<point x="174" y="29" type="line"/>
			<point x="142" y="29" type="line"/>
			<point x="38" y="16" type="line"/>
		</contour>
		<contour>
			<point x="117" y="0" type="curve"/>
			<point x="202" y="0" type="line"/>
			<point x="198" y="80"/>
			<point x="198" y="210"/>
			<point x="198" y="316" type="curve" smooth="yes"/>
			<point x="198" y="360" type="line" smooth="yes"/>
			<point x="198" y="462"/>
			<point x="198" y="589"/>
			<point x="202" y="669" type="curve"/>
			<point x="117" y="669" type="line"/>
			<point x="121" y="589"/>
			<point x="121" y="462"/>
			<point x="121" y="360" type="curve" smooth="yes"/>
			<point x="121" y="316" type="line" smooth="yes"/>
			<point x="121" y="210"/>
			<point x="121" y="80"/>
		</contour>
		<contour>
			<point x="159" y="0" type="line"/>
			<point x="488" y="0" type="line"/>
			<point x="500" y="188" type="line"/>
			<point x="484" y="188" type="line"/>
			<point x="422" y="12" type="line"/>
			<point x="459" y="24" type="line"/>
			<point x="159" y="24" type="line"/>
		</contour>
		<contour>
			<point x="159" y="329" type="line"/>
			<point x="339" y="329" type="line"/>
			<point x="339" y="354" type="line"/>
			<point x="159" y="354" type="line"/>
		</contour>
		<contour>
			<point x="356" y="231" type="line"/>
			<point x="373" y="231" type="line"/>
			<point x="373" y="452" type="line"/>
			<point x="356" y="452" type="line"/>
			<point x="326" y="351" type="line"/>
			<point x="326" y="332" type="line"/>
		</contour>
		<contour>
			<point x="38" y="653" type="line"/>
			<point x="142" y="640" type="line"/>
			<point x="174" y="640" type="line"/>
			<point x="174" y="669" type="line"/>
			<point x="38" y="669" type="line"/>
		</contour>
		<contour>
			<point x="468" y="490" type="line"/>
			<point x="484" y="490" type="line"/>
			<point x="472" y="669" type="line"/>
			<point x="157" y="669" type="line"/>
			<point x="157" y="645" type="line"/>
			<point x="443" y="645" type="line"/>
			<point x="406" y="657" type="line"/>
		</contour>
	</outline>
	<anchor name="aboveUC" x="291" y="689"/>
	<anchor name="belowLC" x="293" y="-20"/>
	<anchor name="ogonek" x="404" y="0"/>
</glyph>
<glyph name="Eng" format="2">
	<advance width="668"/>
	<outline>
		<contour>
			<point x="38" y="0" type="line"/>
			<point x="241" y="0" type="line"/>
			<point x="241" y="16" type="line"/>
			<point x="143" y="26" type="line"/>
			<point x="129" y="26" type="line"/>
			<point x="38" y="16" type="line"/>
		</contour>
		<contour>
			<point x="122" y="0" type="line"/>
			<point x="150" y="0" type="line"/>
			<point x="150" y="335" type="line"/>
			<point x="150" y="657" type="line"/>
			<point x="122" y="657" type="line"/>
		</contour>
		<contour>
			<point x="398" y="-132" type="curve" smooth="yes"/>
			<point x="442" y="-132"/>
			<point x="470" y="-112"/>
			<point x="505" y="-67" type="curve" smooth="yes"/>
			<point x="542" y="-22"/>
			<point x="554" y="33"/>
			<point x="554" y="111" type="curve" smooth="yes"/>
			<point x="554" y="669" type="line"/>
			<point x="526" y="669" type="line"/>
			<point x="526" y="335" type="line"/>
			<point x="526" y="103" type="line" smooth="yes"/>
			<point x="526" y="6"/>
			<point x="503" y="-51"/>
			<point x="441" y="-101" type="curve"/>
			<point x="441" y="-110" type="line"/>
			<point x="459" y="-111" type="line"/>
			<point x="459" y="-96" type="line"/>
			<point x="430" y="-73" type="line" smooth="yes"/>
			<point x="410" y="-57"/>
			<point x="398" y="-48"/>
			<point x="374" y="-48" type="curve" smooth="yes"/>
			<point x="348" y="-48"/>
			<point x="327" y="-65"/>
			<point x="324" y="-87" type="curve"/>
			<point x="330" y="-117"/>
			<point x="358" y="-132"/>
		</contour>
		<contour>
			<point x="526" y="0" type="line"/>
			<point x="536" y="0" type="line"/>
			<point x="537" y="134" type="line"/>
			<point x="532" y="134" type="line"/>
			<point x="179" y="669" type="line"/>
			<point x="38" y="669" type="line"/>
			<point x="38" y="653" type="line"/>
			<point x="102" y="646" type="line"/>
			<point x="142" y="582" type="line"/>
			<point x="144" y="582" type="line"/>
		</contour>
		<contour>
			<point x="531" y="643" type="line"/>
			<point x="546" y="643" type="line"/>
			<point x="629" y="653" type="line"/>
			<point x="629" y="669" type="line"/>
			<point x="432" y="669" type="line"/>
			<point x="432" y="653" type="line"/>
		</contour>
	</outline>
</glyph>
<glyph name="Eth" format="2">
	<advance width="636"/>
	<outline>
		<contour>
			<point x="373" y="331" type="line"/>
			<point x="373" y="354" type="line"/>
			<point x="50" y="354" type="line"/>
			<point x="50" y="331" type="line"/>
		</contour>
		<component base="D"/>
	</outline>
</glyph>
<glyph name="F" format="2">
	<advance width="508"/>
	<outline>
		<contour>
			<point x="38" y="0" type="line"/>
			<point x="292" y="0" type="line"/>
			<point x="292" y="16" type="line"/>
			<point x="174" y="29" type="line"/>
			<point x="142" y="29" type="line"/>
			<point x="38" y="16" type="line"/>
		</contour>
		<contour>
			<point x="117" y="0" type="curve"/>
			<point x="202" y="0" type="line"/>
			<point x="198" y="80"/>
			<point x="198" y="210"/>
			<point x="198" y="316" type="curve" smooth="yes"/>
			<point x="198" y="360" type="line" smooth="yes"/>
			<point x="198" y="462"/>
			<point x="198" y="589"/>
			<point x="202" y="669" type="curve"/>
			<point x="117" y="669" type="line"/>
			<point x="121" y="589"/>
			<point x="121" y="462"/>
			<point x="121" y="360" type="curve" smooth="yes"/>
			<point x="121" y="316" type="line" smooth="yes"/>
			<point x="121" y="210"/>
			<point x="121" y="80"/>
		</contour>
		<contour>
			<point x="159" y="329" type="line"/>
			<point x="335" y="329" type="line"/>
			<point x="335" y="354" type="line"/>
			<point x="159" y="354" type="line"/>
		</contour>
		<contour>
			<point x="352" y="231" type="line"/>
			<point x="369" y="231" type="line"/>
			<point x="369" y="452" type="line"/>
			<point x="352" y="452" type="line"/>
			<point x="322" y="351" type="line"/>
			<point x="322" y="332" type="line"/>
		</contour>
		<contour>
			<point x="38" y="653" type="line"/>
			<point x="142" y="640" type="line"/>
			<point x="174" y="640" type="line"/>
			<point x="174" y="669" type="line"/>
			<point x="38" y="669" type="line"/>
		</contour>
		<contour>
			<point x="464" y="490" type="line"/>
			<point x="480" y="490" type="line"/>
			<point x="468" y="669" type="line"/>
			<point x="157" y="669" type="line"/>
			<point x="157" y="645" type="line"/>
			<point x="439" y="645" type="line"/>
			<point x="402" y="657" type="line"/>
		</contour>
	</outline>
	<anchor name="aboveUC" x="289" y="689"/>
	<anchor name="belowLC" x="162" y="-20"/>
</glyph>
<glyph name="G" format="2">
	<advance width="604"/>
	<outline>
		<contour>
			<point x="352" y="-16" type="curve" smooth="yes"/>
			<point x="411" y="-16"/>
			<point x="473" y="2"/>
			<point x="526" y="35" type="curve"/>
			<point x="526" y="87" type="line" smooth="yes"/>
			<point x="526" y="173"/>
			<point x="527" y="249"/>
			<point x="530" y="319" type="curve"/>
			<point x="450" y="319" type="line"/>
			<point x="453" y="249"/>
			<point x="454" y="173"/>
			<point x="454" y="87" type="curve" smooth="yes"/>
			<point x="454" y="19" type="line"/>
			<point x="474" y="36" type="line"/>
			<point x="431" y="13"/>
			<point x="389" y="5"/>
			<point x="352" y="5" type="curve" smooth="yes"/>
			<point x="215" y="5"/>
			<point x="132" y="120"/>
			<point x="132" y="333" type="curve" smooth="yes"/>
			<point x="132" y="546"/>
			<point x="234" y="664"/>
			<point x="354" y="664" type="curve" smooth="yes"/>
			<point x="401" y="664"/>
			<point x="450" y="654"/>
			<point x="502" y="614" type="curve"/>
			<point x="498" y="642" type="line"/>
			<point x="451" y="651" type="line"/>
			<point x="512" y="483" type="line"/>
			<point x="528" y="483" type="line"/>
			<point x="518" y="638" type="line"/>
			<point x="463" y="678"/>
			<point x="392" y="685"/>
			<point x="352" y="685" type="curve" smooth="yes"/>
			<point x="178" y="685"/>
			<point x="46" y="550"/>
			<point x="46" y="335" type="curve" smooth="yes"/>
			<point x="46" y="117"/>
			<point x="164" y="-16"/>
		</contour>
		<contour>
			<point x="354" y="302" type="line"/>
			<point x="477" y="290" type="line"/>
			<point x="506" y="290" type="line"/>
			<point x="588" y="302" type="line"/>
			<point x="588" y="319" type="line"/>
			<point x="354" y="319" type="line"/>
		</contour>
	</outline>
	<anchor name="aboveUC" x="346" y="689"/>
	<anchor name="belowLC" x="349" y="-20"/>
</glyph>
<glyph name="Germandbls" format="2">
	<advance width="652"/>
	<outline>
		<contour>
			<point x="24" y="0" type="line"/>
			<point x="155" y="0" type="line"/>
			<point x="155" y="29" type="line"/>
			<point x="128" y="29" type="line"/>
			<point x="24" y="16" type="line"/>
		</contour>
		<contour>
			<point x="102" y="0" type="curve"/>
			<point x="187" y="0" type="line"/>
			<point x="183" y="82"/>
			<point x="183" y="210"/>
			<point x="183" y="316" type="curve" smooth="yes"/>
			<point x="183" y="436" type="line" smooth="yes"/>
			<point x="183" y="598"/>
			<point x="254" y="664"/>
			<point x="365" y="664" type="curve" smooth="yes"/>
			<point x="414" y="664"/>
			<point x="477" y="655"/>
			<point x="520" y="633" type="curve"/>
			<point x="520" y="643" type="line"/>
			<point x="418" y="611"/>
			<point x="363" y="555"/>
			<point x="363" y="466" type="curve" smooth="yes"/>
			<point x="363" y="400"/>
			<point x="405" y="347"/>
			<point x="449" y="296" type="curve" smooth="yes"/>
			<point x="486" y="252" type="line" smooth="yes"/>
			<point x="522" y="210"/>
			<point x="549" y="168"/>
			<point x="549" y="125" type="curve" smooth="yes"/>
			<point x="549" y="53"/>
			<point x="487" y="6"/>
			<point x="425" y="6" type="curve" smooth="yes"/>
			<point x="391" y="6"/>
			<point x="364" y="10"/>
			<point x="323" y="40" type="curve"/>
			<point x="364" y="4" type="line"/>
			<point x="321" y="181" type="line"/>
			<point x="305" y="181" type="line"/>
			<point x="297" y="26" type="line"/>
			<point x="328" y="0"/>
			<point x="388" y="-16"/>
			<point x="434" y="-16" type="curve" smooth="yes"/>
			<point x="556" y="-16"/>
			<point x="617" y="62"/>
			<point x="617" y="145" type="curve" smooth="yes"/>
			<point x="617" y="217"/>
			<point x="575" y="265"/>
			<point x="532" y="316" type="curve" smooth="yes"/>
			<point x="495" y="359" type="line" smooth="yes"/>
			<point x="458" y="401"/>
			<point x="427" y="445"/>
			<point x="427" y="489" type="curve" smooth="yes"/>
			<point x="427" y="557"/>
			<point x="473" y="604"/>
			<point x="537" y="635" type="curve"/>
			<point x="537" y="646" type="line"/>
			<point x="493" y="672"/>
			<point x="423" y="685"/>
			<point x="364" y="685" type="curve" smooth="yes"/>
			<point x="216" y="685"/>
			<point x="106" y="614"/>
			<point x="106" y="433" type="curve" smooth="yes"/>
			<point x="106" y="316" type="line" smooth="yes"/>
			<point x="106" y="210"/>
			<point x="106" y="82"/>
		</contour>
	</outline>
</glyph>
<glyph name="H" format="2">
	<advance width="699"/>
	<outline>
		<contour>
			<point x="38" y="0" type="line"/>
			<point x="279" y="0" type="line"/>
			<point x="279" y="16" type="line"/>
			<point x="175" y="29" type="line"/>
			<point x="142" y="29" type="line"/>
			<point x="38" y="16" type="line"/>
		</contour>
		<contour>
			<point x="117" y="0" type="curve"/>
			<point x="202" y="0" type="line"/>
			<point x="198" y="80"/>
			<point x="198" y="210"/>
			<point x="198" y="316" type="curve" smooth="yes"/>
			<point x="198" y="360" type="line" smooth="yes"/>
			<point x="198" y="462"/>
			<point x="198" y="589"/>
			<point x="202" y="669" type="curve"/>
			<point x="117" y="669" type="line"/>
			<point x="121" y="589"/>
			<point x="121" y="462"/>
			<point x="121" y="360" type="curve" smooth="yes"/>
			<point x="121" y="316" type="line" smooth="yes"/>
			<point x="121" y="210"/>
			<point x="121" y="80"/>
		</contour>
		<contour>
			<point x="155" y="329" type="line"/>
			<point x="545" y="329" type="line"/>
			<point x="545" y="354" type="line"/>
			<point x="155" y="354" type="line"/>
		</contour>
		<contour>
			<point x="419" y="0" type="line"/>
			<point x="660" y="0" type="line"/>
			<point x="660" y="16" type="line"/>
			<point x="556" y="29" type="line"/>
			<point x="523" y="29" type="line"/>
			<point x="419" y="16" type="line"/>
		</contour>
		<contour>
			<point x="497" y="0" type="curve"/>
			<point x="582" y="0" type="line"/>
			<point x="578" y="80"/>
			<point x="578" y="210"/>
			<point x="578" y="316" type="curve" smooth="yes"/>
			<point x="578" y="360" type="line" smooth="yes"/>
			<point x="578" y="462"/>
			<point x="578" y="589"/>
			<point x="582" y="669" type="curve"/>
			<point x="497" y="669" type="line"/>
			<point x="501" y="589"/>
			<point x="501" y="462"/>
			<point x="501" y="360" type="curve" smooth="yes"/>
			<point x="501" y="316" type="line" smooth="yes"/>
			<point x="501" y="210"/>
			<point x="501" y="80"/>
		</contour>
		<contour>
			<point x="38" y="653" type="line"/>
			<point x="142" y="640" type="line"/>
			<point x="175" y="640" type="line"/>
			<point x="279" y="653" type="line"/>
			<point x="279" y="669" type="line"/>
			<point x="38" y="669" type="line"/>
		</contour>
		<contour>
			<point x="419" y="653" type="line"/>
			<point x="523" y="640" type="line"/>
			<point x="556" y="640" type="line"/>
			<point x="660" y="653" type="line"/>
			<point x="660" y="669" type="line"/>
			<point x="419" y="669" type="line"/>
		</contour>
	</outline>
	<anchor name="aboveUC" x="350" y="689"/>
	<anchor name="belowLC" x="350" y="-20"/>
</glyph>
<glyph name="Hbar" format="2">
	<advance width="699"/>
	<outline>
		<contour>
			<point x="117" y="0" type="curve"/>
			<point x="202" y="0" type="line"/>
			<point x="198" y="80"/>
			<point x="198" y="210"/>
			<point x="198" y="316" type="curve" smooth="yes"/>
			<point x="198" y="360" type="line" smooth="yes"/>
			<point x="198" y="462"/>
			<point x="198" y="589"/>
			<point x="202" y="669" type="curve"/>
			<point x="117" y="669" type="line"/>
			<point x="121" y="589"/>
			<point x="121" y="462"/>
			<point x="121" y="360" type="curve" smooth="yes"/>
			<point x="121" y="316" type="line" smooth="yes"/>
			<point x="121" y="210"/>
			<point x="121" y="80"/>
		</contour>
		<contour>
			<point x="497" y="0" type="curve"/>
			<point x="582" y="0" type="line"/>
			<point x="578" y="80"/>
			<point x="578" y="210"/>
			<point x="578" y="316" type="curve" smooth="yes"/>
			<point x="578" y="360" type="line" smooth="yes"/>
			<point x="578" y="462"/>
			<point x="578" y="589"/>
			<point x="582" y="669" type="curve"/>
			<point x="497" y="669" type="line"/>
			<point x="501" y="589"/>
			<point x="501" y="462"/>
			<point x="501" y="360" type="curve" smooth="yes"/>
			<point x="501" y="316" type="line" smooth="yes"/>
			<point x="501" y="210"/>
			<point x="501" y="80"/>
		</contour>
		<contour>
			<point x="38" y="0" type="line"/>
			<point x="279" y="0" type="line"/>
			<point x="279" y="16" type="line"/>
			<point x="175" y="29" type="line"/>
			<point x="142" y="29" type="line"/>
			<point x="38" y="16" type="line"/>
		</contour>
		<contour>
			<point x="38" y="653" type="line"/>
			<point x="142" y="640" type="line"/>
			<point x="175" y="640" type="line"/>
			<point x="279" y="653" type="line"/>
			<point x="279" y="669" type="line"/>
			<point x="38" y="669" type="line"/>
		</contour>
		<contour>
			<point x="419" y="0" type="line"/>
			<point x="660" y="0" type="line"/>
			<point x="660" y="16" type="line"/>
			<point x="556" y="29" type="line"/>
			<point x="523" y="29" type="line"/>
			<point x="419" y="16" type="line"/>
		</contour>
		<contour>
			<point x="419" y="653" type="line"/>
			<point x="523" y="640" type="line"/>
			<point x="556" y="640" type="line"/>
			<point x="660" y="653" type="line"/>
			<point x="660" y="669" type="line"/>
			<point x="419" y="669" type="line"/>
		</contour>
		<contour>
			<point x="33" y="477" type="line"/>
			<point x="667" y="477" type="line"/>
			<point x="667" y="500" type="line"/>
			<point x="33" y="500" type="line"/>
		</contour>
		<contour>
			<point x="151" y="318" type="line"/>
			<point x="550" y="318" type="line"/>
			<point x="550" y="342" type="line"/>
			<point x="151" y="342" type="line"/>
		</contour>
	</outline>
</glyph>
<glyph name="I" format="2">
	<advance width="319"/>
	<outline>
		<contour>
			<point x="38" y="0" type="line"/>
			<point x="279" y="0" type="line"/>
			<point x="279" y="16" type="line"/>
			<point x="175" y="29" type="line"/>
			<point x="142" y="29" type="line"/>
			<point x="38" y="16" type="line"/>
		</contour>
		<contour>
			<point x="117" y="0" type="curve"/>
			<point x="202" y="0" type="line"/>
			<point x="198" y="80"/>
			<point x="198" y="210"/>
			<point x="198" y="316" type="curve" smooth="yes"/>
			<point x="198" y="360" type="line" smooth="yes"/>
			<point x="198" y="462"/>
			<point x="198" y="589"/>
			<point x="202" y="669" type="curve"/>
			<point x="117" y="669" type="line"/>
			<point x="121" y="589"/>
			<point x="121" y="462"/>
			<point x="121" y="360" type="curve" smooth="yes"/>
			<point x="121" y="316" type="line" smooth="yes"/>
			<point x="121" y="210"/>
			<point x="121" y="80"/>
		</contour>
		<contour>
			<point x="38" y="653" type="line"/>
			<point x="142" y="640" type="line"/>
			<point x="175" y="640" type="line"/>
			<point x="279" y="653" type="line"/>
			<point x="279" y="669" type="line"/>
			<point x="38" y="669" type="line"/>
		</contour>
	</outline>
	<anchor name="aboveUC" x="159" y="689"/>
	<anchor name="belowLC" x="159" y="-20"/>
	<anchor name="ogonek" x="173" y="0"/>
</glyph>
<glyph name="Idieresis" format="2">
	<advance width="319"/>
	<outline>
		<contour>
			<point x="86" y="746" type="curve" smooth="yes"/>
			<point x="113" y="746"/>
			<point x="136" y="765"/>
			<point x="136" y="795" type="curve" smooth="yes"/>
			<point x="136" y="825"/>
			<point x="113" y="844"/>
			<point x="86" y="844" type="curve" smooth="yes"/>
			<point x="60" y="844"/>
			<point x="37" y="825"/>
			<point x="37" y="795" type="curve" smooth="yes"/>
			<point x="37" y="765"/>
			<point x="60" y="746"/>
		</contour>
		<contour>
			<point x="232" y="746" type="curve" smooth="yes"/>
			<point x="259" y="746"/>
			<point x="281" y="765"/>
			<point x="281" y="795" type="curve" smooth="yes"/>
			<point x="281" y="825"/>
			<point x="259" y="844"/>
			<point x="232" y="844" type="curve" smooth="yes"/>
			<point x="205" y="844"/>
			<point x="182" y="825"/>
			<point x="182" y="795" type="curve" smooth="yes"/>
			<point x="182" y="765"/>
			<point x="205" y="746"/>
		</contour>
		<component base="I"/>
	</outline>
</glyph>
<glyph name="J" format="2">
	<advance width="330"/>
	<outline>
		<contour>
			<point x="53" y="-132" type="curve" smooth="yes"/>
			<point x="97" y="-132"/>
			<point x="126" y="-112"/>
			<point x="161" y="-67" type="curve" smooth="yes"/>
			<point x="203" y="-15"/>
			<point x="209" y="50"/>
			<point x="209" y="228" type="curve" smooth="yes"/>
			<point x="209" y="360" type="line" smooth="yes"/>
			<point x="209" y="464"/>
			<point x="209" y="569"/>
			<point x="213" y="669" type="curve"/>
			<point x="130" y="669" type="line"/>
			<point x="133" y="466"/>
			<point x="140" y="273"/>
			<point x="140" y="148" type="curve" smooth="yes"/>
			<point x="140" y="5"/>
			<point x="133" y="-44"/>
			<point x="104" y="-102" type="curve"/>
			<point x="104" y="-111" type="line"/>
			<point x="114" y="-111" type="line"/>
			<point x="114" y="-96" type="line"/>
			<point x="85" y="-73" type="line" smooth="yes"/>
			<point x="65" y="-57"/>
			<point x="52" y="-48"/>
			<point x="28" y="-48" type="curve" smooth="yes"/>
			<point x="1" y="-48"/>
			<point x="-18" y="-65"/>
			<point x="-21" y="-87" type="curve"/>
			<point x="-15" y="-117"/>
			<point x="12" y="-132"/>
		</contour>
		<contour>
			<point x="38" y="653" type="line"/>
			<point x="154" y="640" type="line"/>
			<point x="187" y="640" type="line"/>
			<point x="291" y="653" type="line"/>
			<point x="291" y="669" type="line"/>
			<point x="38" y="669" type="line"/>
		</contour>
	</outline>
	<anchor name="aboveUC" x="167" y="689"/>
	<anchor name="belowLC" x="119" y="-142"/>
</glyph>
<glyph name="K" format="2">
	<advance width="609"/>
	<outline>
		<contour>
			<point x="117" y="0" type="curve"/>
			<point x="202" y="0" type="line"/>
			<point x="198" y="80"/>
			<point x="198" y="210"/>
			<point x="198" y="316" type="curve" smooth="yes"/>
			<point x="198" y="360" type="line" smooth="yes"/>
			<point x="198" y="462"/>
			<point x="198" y="589"/>
			<point x="202" y="669" type="curve"/>
			<point x="117" y="669" type="line"/>
			<point x="121" y="589"/>
			<point x="121" y="462"/>
			<point x="121" y="360" type="curve" smooth="yes"/>
			<point x="121" y="316" type="line" smooth="yes"/>
			<point x="121" y="210"/>
			<point x="121" y="80"/>
		</contour>
		<contour>
			<point x="38" y="0" type="line"/>
			<point x="279" y="0" type="line"/>
			<point x="279" y="16" type="line"/>
			<point x="175" y="29" type="line"/>
			<point x="142" y="29" type="line"/>
			<point x="38" y="16" type="line"/>
		</contour>
		<contour>
			<point x="38" y="653" type="line"/>
			<point x="142" y="640" type="line"/>
			<point x="175" y="640" type="line"/>
			<point x="279" y="653" type="line"/>
			<point x="279" y="669" type="line"/>
			<point x="38" y="669" type="line"/>
		</contour>
		<contour>
			<point x="379" y="0" type="line"/>
			<point x="601" y="0" type="line"/>
			<point x="601" y="16" type="line"/>
			<point x="515" y="29" type="line"/>
			<point x="482" y="29" type="line"/>
			<point x="379" y="16" type="line"/>
		</contour>
		<contour>
			<point x="375" y="653" type="line"/>
			<point x="479" y="640" type="line"/>
			<point x="505" y="640" type="line"/>
			<point x="594" y="653" type="line"/>
			<point x="594" y="669" type="line"/>
			<point x="375" y="669" type="line"/>
		</contour>
		<contour>
			<point x="153" y="180" type="line"/>
			<point x="530" y="669" type="line"/>
			<point x="497" y="669" type="line"/>
			<point x="183" y="254" type="line"/>
			<point x="170" y="237" type="line"/>
			<point x="153" y="237" type="line"/>
		</contour>
		<contour>
			<point x="469" y="0" type="line"/>
			<point x="554" y="0" type="line"/>
			<point x="326" y="425" type="line"/>
			<point x="277" y="367" type="line"/>
		</contour>
	</outline>
	<anchor name="aboveUC" x="315" y="689"/>
	<anchor name="belowLC" x="320" y="-20"/>
</glyph>
<glyph name="L" format="2">
	<advance width="519"/>
	<outline>
		<contour>
			<point x="38" y="0" type="line"/>
			<point x="174" y="0" type="line"/>
			<point x="174" y="29" type="line"/>
			<point x="142" y="29" type="line"/>
			<point x="38" y="16" type="line"/>
		</contour>
		<contour>
			<point x="117" y="0" type="curve"/>
			<point x="202" y="0" type="line"/>
			<point x="198" y="80"/>
			<point x="198" y="210"/>
			<point x="198" y="316" type="curve" smooth="yes"/>
			<point x="198" y="360" type="line" smooth="yes"/>
			<point x="198" y="462"/>
			<point x="198" y="589"/>
			<point x="202" y="669" type="curve"/>
			<point x="117" y="669" type="line"/>
			<point x="121" y="589"/>
			<point x="121" y="462"/>
			<point x="121" y="360" type="curve" smooth="yes"/>
			<point x="121" y="316" type="line" smooth="yes"/>
			<point x="121" y="210"/>
			<point x="121" y="80"/>
		</contour>
		<contour>
			<point x="159" y="0" type="line"/>
			<point x="480" y="0" type="line"/>
			<point x="492" y="189" type="line"/>
			<point x="476" y="189" type="line"/>
			<point x="413" y="12" type="line"/>
			<point x="451" y="24" type="line"/>
			<point x="159" y="24" type="line"/>
		</contour>
		<contour>
			<point x="38" y="653" type="line"/>
			<point x="142" y="640" type="line"/>
			<point x="175" y="640" type="line"/>
			<point x="279" y="653" type="line"/>
			<point x="279" y="669" type="line"/>
			<point x="38" y="669" type="line"/>
		</contour>
	</outline>
	<anchor name="aboveUC" x="169" y="689"/>
	<anchor name="belowLC" x="281" y="-20"/>
</glyph>
<glyph name="Lslash" format="2">
	<advance width="519"/>
	<outline>
		<contour>
			<point x="370" y="435" type="line"/>
			<point x="162" y="318" type="line"/>
			<point x="162" y="295" type="line"/>
			<point x="370" y="412" type="line"/>
		</contour>
		<contour>
			<point x="159" y="321" type="line"/>
			<point x="42" y="258" type="line"/>
			<point x="42" y="235" type="line"/>
			<point x="159" y="297" type="line"/>
		</contour>
		<component base="L"/>
	</outline>
</glyph>
<glyph name="M" format="2">
	<advance width="812"/>
	<outline>
		<contour>
			<point x="38" y="0" type="line"/>
			<point x="233" y="0" type="line"/>
			<point x="233" y="16" type="line"/>
			<point x="143" y="26" type="line"/>
			<point x="129" y="26" type="line"/>
			<point x="38" y="16" type="line"/>
		</contour>
		<contour>
			<point x="38" y="653" type="line"/>
			<point x="142" y="640" type="line"/>
			<point x="146" y="640" type="line"/>
			<point x="146" y="669" type="line"/>
			<point x="38" y="669" type="line"/>
		</contour>
		<contour>
			<point x="122" y="0" type="line"/>
			<point x="149" y="0" type="line"/>
			<point x="149" y="359" type="line"/>
			<point x="149" y="658" type="line"/>
			<point x="122" y="658" type="line"/>
		</contour>
		<contour>
			<point x="370" y="0" type="line"/>
			<point x="394" y="0" type="line"/>
			<point x="618" y="615" type="line"/>
			<point x="621" y="622" type="line"/>
			<point x="627" y="622" type="line"/>
			<point x="627" y="669" type="line"/>
			<point x="609" y="669" type="line"/>
			<point x="403" y="102" type="line"/>
			<point x="399" y="91" type="line"/>
			<point x="418" y="91" type="line"/>
			<point x="210" y="669" type="line"/>
			<point x="128" y="669" type="line"/>
			<point x="128" y="613" type="line"/>
			<point x="146" y="613" type="line"/>
		</contour>
		<contour>
			<point x="539" y="0" type="line"/>
			<point x="772" y="0" type="line"/>
			<point x="772" y="16" type="line"/>
			<point x="668" y="29" type="line"/>
			<point x="635" y="29" type="line"/>
			<point x="539" y="16" type="line"/>
		</contour>
		<contour>
			<point x="609" y="0" type="curve"/>
			<point x="694" y="0" type="line"/>
			<point x="690" y="80"/>
			<point x="690" y="210"/>
			<point x="690" y="316" type="curve" smooth="yes"/>
			<point x="690" y="360" type="line" smooth="yes"/>
			<point x="690" y="462"/>
			<point x="690" y="589"/>
			<point x="694" y="669" type="curve"/>
			<point x="614" y="669" type="line"/>
			<point x="614" y="316" type="line" smooth="yes"/>
			<point x="614" y="210"/>
			<point x="613" y="80"/>
		</contour>
		<contour>
			<point x="635" y="640" type="line"/>
			<point x="668" y="640" type="line"/>
			<point x="772" y="653" type="line"/>
			<point x="772" y="669" type="line"/>
			<point x="635" y="669" type="line"/>
		</contour>
	</outline>
	<anchor name="aboveUC" x="398" y="689"/>
	<anchor name="belowLC" x="386" y="-20"/>
</glyph>
<glyph name="N" format="2">
	<advance width="667"/>
	<outline>
		<contour>
			<point x="38" y="0" type="line"/>
			<point x="241" y="0" type="line"/>
			<point x="241" y="16" type="line"/>
			<point x="143" y="26" type="line"/>
			<point x="129" y="26" type="line"/>
			<point x="38" y="16" type="line"/>
		</contour>
		<contour>
			<point x="122" y="0" type="line"/>
			<point x="150" y="0" type="line"/>
			<point x="150" y="335" type="line"/>
			<point x="150" y="656" type="line"/>
			<point x="122" y="656" type="line"/>
		</contour>
		<contour>
			<point x="433" y="653" type="line"/>
			<point x="531" y="643" type="line"/>
			<point x="546" y="643" type="line"/>
			<point x="629" y="653" type="line"/>
			<point x="629" y="669" type="line"/>
			<point x="433" y="669" type="line"/>
		</contour>
		<contour>
			<point x="531" y="-8" type="line"/>
			<point x="554" y="-8" type="line"/>
			<point x="554" y="669" type="line"/>
			<point x="526" y="669" type="line"/>
			<point x="526" y="335" type="line"/>
			<point x="526" y="136" type="line"/>
			<point x="530" y="136" type="line"/>
			<point x="179" y="669" type="line"/>
			<point x="38" y="669" type="line"/>
			<point x="38" y="653" type="line"/>
			<point x="102" y="645" type="line"/>
			<point x="149" y="572" type="line"/>
			<point x="150" y="572" type="line"/>
		</contour>
	</outline>
	<anchor name="aboveUC" x="339" y="689"/>
	<anchor name="belowLC" x="334" y="-20"/>
</glyph>
<glyph name="O" format="2">
	<advance width="640"/>
	<outline>
		<contour>
			<point x="320" y="-16" type="curve" smooth="yes"/>
			<point x="466" y="-16"/>
			<point x="594" y="111"/>
			<point x="594" y="332" type="curve" smooth="yes"/>
			<point x="594" y="560"/>
			<point x="467" y="685"/>
			<point x="320" y="685" type="curve" smooth="yes"/>
			<point x="175" y="685"/>
			<point x="46" y="555"/>
			<point x="46" y="335" type="curve" smooth="yes"/>
			<point x="46" y="106"/>
			<point x="174" y="-16"/>
		</contour>
		<contour>
			<point x="320" y="6" type="curve" smooth="yes"/>
			<point x="189" y="6"/>
			<point x="132" y="151"/>
			<point x="132" y="336" type="curve" smooth="yes"/>
			<point x="132" y="520"/>
			<point x="189" y="663"/>
			<point x="320" y="663" type="curve" smooth="yes"/>
			<point x="451" y="663"/>
			<point x="509" y="515"/>
			<point x="509" y="332" type="curve" smooth="yes"/>
			<point x="509" y="146"/>
			<point x="451" y="6"/>
		</contour>
	</outline>
	<anchor name="aboveUC" x="320" y="689"/>
	<anchor name="belowLC" x="320" y="-20"/>
	<anchor name="hornLC" x="478" y="588"/>
	<anchor name="ogonek" x="390" y="0"/>
</glyph>
<glyph name="OE" format="2">
	<advance width="860"/>
	<outline>
		<contour>
			<point x="132" y="333" type="curve" smooth="yes"/>
			<point x="132" y="546"/>
			<point x="230" y="664"/>
			<point x="349" y="664" type="curve" smooth="yes"/>
			<point x="387" y="664"/>
			<point x="421" y="658"/>
			<point x="459" y="637" type="curve"/>
			<point x="463" y="663" type="line"/>
			<point x="421" y="680"/>
			<point x="379" y="685"/>
			<point x="345" y="685" type="curve" smooth="yes"/>
			<point x="178" y="685"/>
			<point x="46" y="539"/>
			<point x="46" y="335" type="curve" smooth="yes"/>
			<point x="46" y="127"/>
			<point x="171" y="-16"/>
			<point x="344" y="-16" type="curve" smooth="yes"/>
			<point x="387" y="-16"/>
			<point x="430" y="-9"/>
			<point x="471" y="8" type="curve"/>
			<point x="468" y="36" type="line"/>
			<point x="424" y="11"/>
			<point x="383" y="5"/>
			<point x="346" y="5" type="curve" smooth="yes"/>
			<point x="222" y="5"/>
			<point x="132" y="120"/>
		</contour>
		<contour>
			<point x="434" y="0" type="curve"/>
			<point x="519" y="0" type="line"/>
			<point x="515" y="80"/>
			<point x="515" y="210"/>
			<point x="515" y="316" type="curve" smooth="yes"/>
			<point x="515" y="360" type="line" smooth="yes"/>
			<point x="515" y="462"/>
			<point x="515" y="589"/>
			<point x="519" y="669" type="curve"/>
			<point x="434" y="669" type="line"/>
			<point x="438" y="589"/>
			<point x="438" y="462"/>
			<point x="438" y="360" type="curve" smooth="yes"/>
			<point x="438" y="316" type="line" smooth="yes"/>
			<point x="438" y="210"/>
			<point x="438" y="80"/>
		</contour>
		<contour>
			<point x="673" y="231" type="line"/>
			<point x="690" y="231" type="line"/>
			<point x="690" y="452" type="line"/>
			<point x="673" y="452" type="line"/>
			<point x="643" y="351" type="line"/>
			<point x="643" y="332" type="line"/>
		</contour>
		<contour>
			<point x="476" y="329" type="line"/>
			<point x="656" y="329" type="line"/>
			<point x="656" y="354" type="line"/>
			<point x="476" y="354" type="line"/>
		</contour>
		<contour>
			<point x="785" y="490" type="line"/>
			<point x="802" y="490" type="line"/>
			<point x="790" y="669" type="line"/>
			<point x="474" y="669" type="line"/>
			<point x="474" y="645" type="line"/>
			<point x="728" y="645" type="line"/>
		</contour>
		<contour>
			<point x="801" y="188" type="line"/>
			<point x="744" y="24" type="line"/>
			<point x="476" y="24" type="line"/>
			<point x="476" y="0" type="line"/>
			<point x="806" y="0" type="line"/>
			<point x="818" y="188" type="line"/>
		</contour>
	</outline>
	<anchor name="aboveUC" x="473" y="689"/>
</glyph>
<glyph name="Oslash" format="2">
	<advance width="640"/>
	<outline>
		<contour>
			<point x="590" y="670" type="line"/>
			<point x="573" y="683" type="line"/>
			<point x="50" y="0" type="line"/>
			<point x="67" y="-13" type="line"/>
		</contour>
		<contour>
			<point x="128" y="336" type="curve" smooth="yes"/>
			<point x="128" y="520"/>
			<point x="187" y="663"/>
			<point x="320" y="663" type="curve" smooth="yes"/>
			<point x="453" y="663"/>
			<point x="513" y="515"/>
			<point x="513" y="332" type="curve" smooth="yes"/>
			<point x="513" y="146"/>
			<point x="453" y="6"/>
			<point x="320" y="6" type="curve" smooth="yes"/>
			<point x="187" y="6"/>
			<point x="128" y="151"/>
		</contour>
		<contour>
			<point x="320" y="685" type="curve" smooth="yes"/>
			<point x="175" y="685"/>
			<point x="46" y="555"/>
			<point x="46" y="335" type="curve" smooth="yes"/>
			<point x="46" y="106"/>
			<point x="174" y="-16"/>
			<point x="320" y="-16" type="curve" smooth="yes"/>
			<point x="466" y="-16"/>
			<point x="594" y="111"/>
			<point x="594" y="332" type="curve" smooth="yes"/>
			<point x="594" y="560"/>
			<point x="467" y="685"/>
		</contour>
	</outline>
	<anchor name="aboveUC" x="320" y="689"/>
</glyph>
<glyph name="P" format="2">
	<advance width="517"/>
	<outline>
		<contour>
			<point x="38" y="0" type="line"/>
			<point x="292" y="0" type="line"/>
			<point x="292" y="16" type="line"/>
			<point x="177" y="29" type="line"/>
			<point x="142" y="29" type="line"/>
			<point x="38" y="16" type="line"/>
		</contour>
		<contour>
			<point x="117" y="0" type="curve"/>
			<point x="202" y="0" type="line"/>
			<point x="198" y="80"/>
			<point x="198" y="210"/>
			<point x="198" y="316" type="curve" smooth="yes"/>
			<point x="198" y="360" type="line" smooth="yes"/>
			<point x="198" y="462"/>
			<point x="198" y="589"/>
			<point x="202" y="669" type="curve"/>
			<point x="117" y="669" type="line"/>
			<point x="121" y="589"/>
			<point x="121" y="462"/>
			<point x="121" y="360" type="curve" smooth="yes"/>
			<point x="121" y="316" type="line" smooth="yes"/>
			<point x="121" y="210"/>
			<point x="121" y="80"/>
		</contour>
		<contour>
			<point x="151" y="286" type="line"/>
			<point x="245" y="286" type="line" smooth="yes"/>
			<point x="425" y="286"/>
			<point x="493" y="380"/>
			<point x="493" y="484" type="curve" smooth="yes"/>
			<point x="493" y="594"/>
			<point x="417" y="669"/>
			<point x="271" y="669" type="curve" smooth="yes"/>
			<point x="151" y="669" type="line"/>
			<point x="151" y="645" type="line"/>
			<point x="254" y="645" type="line" smooth="yes"/>
			<point x="364" y="645"/>
			<point x="413" y="584"/>
			<point x="413" y="484" type="curve" smooth="yes"/>
			<point x="413" y="385"/>
			<point x="370" y="311"/>
			<point x="258" y="311" type="curve" smooth="yes"/>
			<point x="151" y="311" type="line"/>
		</contour>
		<contour>
			<point x="38" y="653" type="line"/>
			<point x="142" y="640" type="line"/>
			<point x="175" y="640" type="line"/>
			<point x="175" y="669" type="line"/>
			<point x="38" y="669" type="line"/>
		</contour>
	</outline>
	<anchor name="aboveUC" x="265" y="689"/>
	<anchor name="belowLC" x="162" y="-20"/>
</glyph>
<glyph name="Q" format="2">
	<advance width="640"/>
	<outline>
		<contour>
			<point x="463" y="-215" type="curve" smooth="yes"/>
			<point x="501" y="-215"/>
			<point x="545" y="-205"/>
			<point x="576" y="-181" type="curve"/>
			<point x="569" y="-165" type="line"/>
			<point x="539" y="-178"/>
			<point x="513" y="-180"/>
			<point x="493" y="-180" type="curve" smooth="yes"/>
			<point x="402" y="-180"/>
			<point x="345" y="-114"/>
			<point x="356" y="2" type="curve"/>
			<point x="283" y="3" type="line"/>
			<point x="283" y="-22" type="line" smooth="yes"/>
			<point x="283" y="-127"/>
			<point x="347" y="-215"/>
		</contour>
		<component base="O"/>
	</outline>
	<anchor name="aboveUC" x="320" y="689"/>
</glyph>
<glyph name="R" format="2">
	<advance width="611"/>
	<outline>
		<contour>
			<point x="38" y="0" type="line"/>
			<point x="277" y="0" type="line"/>
			<point x="277" y="16" type="line"/>
			<point x="177" y="29" type="line"/>
			<point x="142" y="29" type="line"/>
			<point x="38" y="16" type="line"/>
		</contour>
		<contour>
			<point x="117" y="0" type="curve"/>
			<point x="201" y="0" type="line"/>
			<point x="198" y="80"/>
			<point x="198" y="210"/>
			<point x="198" y="316" type="curve" smooth="yes"/>
			<point x="198" y="360" type="line" smooth="yes"/>
			<point x="198" y="462"/>
			<point x="198" y="589"/>
			<point x="201" y="669" type="curve"/>
			<point x="117" y="669" type="line"/>
			<point x="121" y="589"/>
			<point x="121" y="462"/>
			<point x="121" y="360" type="curve" smooth="yes"/>
			<point x="121" y="316" type="line" smooth="yes"/>
			<point x="121" y="210"/>
			<point x="121" y="80"/>
		</contour>
		<contour>
			<point x="532" y="-8" type="curve" smooth="yes"/>
			<point x="558" y="-8"/>
			<point x="582" y="-5"/>
			<point x="601" y="0" type="curve"/>
			<point x="601" y="16" type="line"/>
			<point x="496" y="27" type="line"/>
			<point x="534" y="16" type="line"/>
			<point x="449" y="198" type="line" smooth="yes"/>
			<point x="403" y="292"/>
			<point x="357" y="322"/>
			<point x="254" y="324" type="curve"/>
			<point x="254" y="317" type="line"/>
			<point x="426" y="317"/>
			<point x="497" y="407"/>
			<point x="497" y="499" type="curve" smooth="yes"/>
			<point x="497" y="608"/>
			<point x="415" y="669"/>
			<point x="284" y="669" type="curve" smooth="yes"/>
			<point x="152" y="669" type="line"/>
			<point x="152" y="645" type="line"/>
			<point x="278" y="645" type="line" smooth="yes"/>
			<point x="374" y="645"/>
			<point x="417" y="589"/>
			<point x="417" y="497" type="curve" smooth="yes"/>
			<point x="417" y="409"/>
			<point x="369" y="334"/>
			<point x="268" y="334" type="curve" smooth="yes"/>
			<point x="152" y="334" type="line"/>
			<point x="152" y="310" type="line"/>
			<point x="229" y="310" type="line" smooth="yes"/>
			<point x="302" y="310"/>
			<point x="325" y="290"/>
			<point x="358" y="214" type="curve" smooth="yes"/>
			<point x="427" y="59" type="line" smooth="yes"/>
			<point x="448" y="9"/>
			<point x="469" y="-8"/>
		</contour>
		<contour>
			<point x="38" y="653" type="line"/>
			<point x="142" y="640" type="line"/>
			<point x="175" y="640" type="line"/>
			<point x="175" y="669" type="line"/>
			<point x="38" y="669" type="line"/>
		</contour>
	</outline>
	<anchor name="aboveUC" x="302" y="689"/>
	<anchor name="belowLC" x="330" y="-20"/>
</glyph>
<glyph name="S" format="2">
	<advance width="471"/>
	<outline>
		<contour>
			<point x="216" y="-16" type="curve" smooth="yes"/>
			<point x="354" y="-16"/>
			<point x="431" y="56"/>
			<point x="431" y="173" type="curve" smooth="yes"/>
			<point x="431" y="285"/>
			<point x="351" y="328"/>
			<point x="271" y="366" type="curve" smooth="yes"/>
			<point x="237" y="383" type="line" smooth="yes"/>
			<point x="171" y="414"/>
			<point x="113" y="452"/>
			<point x="113" y="527" type="curve" smooth="yes"/>
			<point x="113" y="627"/>
			<point x="177" y="664"/>
			<point x="251" y="664" type="curve" smooth="yes"/>
			<point x="300" y="664"/>
			<point x="342" y="657"/>
			<point x="388" y="612" type="curve"/>
			<point x="384" y="638" type="line"/>
			<point x="337" y="658" type="line"/>
			<point x="382" y="493" type="line"/>
			<point x="399" y="493" type="line"/>
			<point x="403" y="637" type="line"/>
			<point x="366" y="667"/>
			<point x="317" y="685"/>
			<point x="250" y="685" type="curve" smooth="yes"/>
			<point x="139" y="685"/>
			<point x="52" y="621"/>
			<point x="52" y="506" type="curve" smooth="yes"/>
			<point x="52" y="397"/>
			<point x="129" y="352"/>
			<point x="206" y="315" type="curve" smooth="yes"/>
			<point x="242" y="298" type="line" smooth="yes"/>
			<point x="307" y="267"/>
			<point x="365" y="231"/>
			<point x="365" y="153" type="curve" smooth="yes"/>
			<point x="365" y="47"/>
			<point x="302" y="5"/>
			<point x="216" y="5" type="curve" smooth="yes"/>
			<point x="154" y="5"/>
			<point x="119" y="18"/>
			<point x="62" y="52" type="curve"/>
			<point x="63" y="36" type="line"/>
			<point x="107" y="12" type="line"/>
			<point x="64" y="188" type="line"/>
			<point x="48" y="188" type="line"/>
			<point x="40" y="36" type="line"/>
			<point x="84" y="6"/>
			<point x="146" y="-16"/>
		</contour>
	</outline>
	<anchor name="aboveUC" x="253" y="689"/>
	<anchor name="baseLC" x="218" y="0"/>
	<anchor name="belowLC" x="222" y="-20"/>
</glyph>
<glyph name="Schwa" format="2">
	<advance width="584"/>
	<outline>
		<contour>
			<point x="42" y="272" type="curve" smooth="yes"/>
			<point x="42" y="132"/>
			<point x="114" y="-16"/>
			<point x="288" y="-16" type="curve" smooth="yes"/>
			<point x="427" y="-16"/>
			<point x="538" y="114"/>
			<point x="538" y="339" type="curve" smooth="yes"/>
			<point x="538" y="559"/>
			<point x="422" y="685"/>
			<point x="280" y="685" type="curve" smooth="yes"/>
			<point x="195" y="685"/>
			<point x="135" y="649"/>
			<point x="83" y="585" type="curve"/>
			<point x="95" y="574" type="line"/>
			<point x="143" y="613"/>
			<point x="195" y="634"/>
			<point x="261" y="634" type="curve" smooth="yes"/>
			<point x="365" y="634"/>
			<point x="453" y="544"/>
			<point x="453" y="328" type="curve" smooth="yes"/>
			<point x="453" y="105"/>
			<point x="392" y="6"/>
			<point x="288" y="6" type="curve" smooth="yes"/>
			<point x="160" y="6"/>
			<point x="121" y="151"/>
			<point x="121" y="268" type="curve" smooth="yes"/>
			<point x="121" y="289"/>
			<point x="122" y="310"/>
			<point x="125" y="329" type="curve"/>
			<point x="494" y="329" type="line"/>
			<point x="494" y="353" type="line"/>
			<point x="50" y="353" type="line"/>
			<point x="44" y="329"/>
			<point x="42" y="308"/>
		</contour>
	</outline>
	<anchor name="aboveUC" x="286" y="689"/>
	<anchor name="belowLC" x="289" y="-20"/>
</glyph>
<glyph name="T" format="2">
	<advance width="570"/>
	<outline>
		<contour>
			<point x="152" y="0" type="line"/>
			<point x="417" y="0" type="line"/>
			<point x="417" y="16" type="line"/>
			<point x="301" y="29" type="line"/>
			<point x="268" y="29" type="line"/>
			<point x="152" y="16" type="line"/>
		</contour>
		<contour>
			<point x="243" y="0" type="curve"/>
			<point x="327" y="0" type="line"/>
			<point x="323" y="80"/>
			<point x="323" y="210"/>
			<point x="323" y="316" type="curve" smooth="yes"/>
			<point x="323" y="360" type="line" smooth="yes"/>
			<point x="323" y="462"/>
			<point x="323" y="589"/>
			<point x="327" y="669" type="curve"/>
			<point x="243" y="669" type="line"/>
			<point x="247" y="589"/>
			<point x="247" y="462"/>
			<point x="247" y="360" type="curve" smooth="yes"/>
			<point x="247" y="316" type="line" smooth="yes"/>
			<point x="247" y="210"/>
			<point x="247" y="80"/>
		</contour>
		<contour>
			<point x="27" y="481" type="line"/>
			<point x="44" y="481" type="line"/>
			<point x="106" y="657" type="line"/>
			<point x="68" y="645" type="line"/>
			<point x="502" y="645" type="line"/>
			<point x="464" y="657" type="line"/>
			<point x="526" y="481" type="line"/>
			<point x="543" y="481" type="line"/>
			<point x="531" y="669" type="line"/>
			<point x="39" y="669" type="line"/>
		</contour>
	</outline>
	<anchor name="aboveUC" x="284" y="689"/>
	<anchor name="baseLC" x="284" y="0"/>
	<anchor name="belowLC" x="284" y="-20"/>
</glyph>
<glyph name="Thorn" format="2">
	<advance width="518"/>
	<outline>
		<contour>
			<point x="152" y="169" type="line"/>
			<point x="261" y="169" type="line" smooth="yes"/>
			<point x="418" y="169"/>
			<point x="494" y="248"/>
			<point x="494" y="354" type="curve" smooth="yes"/>
			<point x="494" y="459"/>
			<point x="418" y="533"/>
			<point x="261" y="533" type="curve" smooth="yes"/>
			<point x="152" y="533" type="line"/>
			<point x="152" y="509" type="line"/>
			<point x="255" y="509" type="line" smooth="yes"/>
			<point x="364" y="509"/>
			<point x="414" y="447"/>
			<point x="414" y="354" type="curve" smooth="yes"/>
			<point x="414" y="259"/>
			<point x="364" y="194"/>
			<point x="255" y="194" type="curve" smooth="yes"/>
			<point x="152" y="194" type="line"/>
		</contour>
		<contour>
			<point x="117" y="0" type="curve"/>
			<point x="202" y="0" type="line"/>
			<point x="198" y="80"/>
			<point x="198" y="210"/>
			<point x="198" y="316" type="curve" smooth="yes"/>
			<point x="198" y="360" type="line" smooth="yes"/>
			<point x="198" y="462"/>
			<point x="198" y="589"/>
			<point x="202" y="669" type="curve"/>
			<point x="117" y="669" type="line"/>
			<point x="121" y="589"/>
			<point x="121" y="462"/>
			<point x="121" y="360" type="curve" smooth="yes"/>
			<point x="121" y="316" type="line" smooth="yes"/>
			<point x="121" y="210"/>
			<point x="121" y="80"/>
		</contour>
		<contour>
			<point x="142" y="640" type="line"/>
			<point x="175" y="640" type="line"/>
			<point x="279" y="653" type="line"/>
			<point x="279" y="669" type="line"/>
			<point x="38" y="669" type="line"/>
			<point x="38" y="653" type="line"/>
		</contour>
		<contour>
			<point x="38" y="0" type="line"/>
			<point x="279" y="0" type="line"/>
			<point x="279" y="16" type="line"/>
			<point x="175" y="29" type="line"/>
			<point x="142" y="29" type="line"/>
			<point x="38" y="16" type="line"/>
		</contour>
	</outline>
</glyph>
<glyph name="Uhorn" format="2">
	<advance width="661"/>
	<outline>
		<contour>
			<point x="337" y="-16" type="curve" smooth="yes"/>
			<point x="462" y="-16"/>
			<point x="549" y="53"/>
			<point x="549" y="243" type="curve" smooth="yes"/>
			<point x="549" y="669" type="line"/>
			<point x="521" y="669" type="line"/>
			<point x="521" y="247" type="line" smooth="yes"/>
			<point x="521" y="80"/>
			<point x="453" y="31"/>
			<point x="349" y="31" type="curve" smooth="yes"/>
			<point x="255" y="31"/>
			<point x="190" y="86"/>
			<point x="190" y="237" type="curve" smooth="yes"/>
			<point x="190" y="359" type="line" smooth="yes"/>
			<point x="190" y="462"/>
			<point x="190" y="589"/>
			<point x="194" y="669" type="curve"/>
			<point x="109" y="669" type="line"/>
			<point x="113" y="589"/>
			<point x="113" y="462"/>
			<point x="113" y="359" type="curve" smooth="yes"/>
			<point x="113" y="224" type="line" smooth="yes"/>
			<point x="113" y="50"/>
			<point x="211" y="-16"/>
		</contour>
		<contour>
			<point x="542" y="643" type="line"/>
			<point x="607" y="646"/>
			<point x="652" y="672"/>
			<point x="652" y="752" type="curve" smooth="yes"/>
			<point x="652" y="769"/>
			<point x="648" y="792"/>
			<point x="641" y="806" type="curve"/>
			<point x="633" y="813"/>
			<point x="625" y="816"/>
			<point x="613" y="816" type="curve" smooth="yes"/>
			<point x="595" y="816"/>
			<point x="579" y="802"/>
			<point x="579" y="781" type="curve" smooth="yes"/>
			<point x="579" y="756"/>
			<point x="615" y="738"/>
			<point x="615" y="711" type="curve" smooth="yes"/>
			<point x="615" y="684"/>
			<point x="593" y="669"/>
			<point x="542" y="669" type="curve"/>
		</contour>
		<contour>
			<point x="38" y="653" type="line"/>
			<point x="135" y="640" type="line"/>
			<point x="169" y="640" type="line"/>
			<point x="271" y="653" type="line"/>
			<point x="271" y="669" type="line"/>
			<point x="38" y="669" type="line"/>
		</contour>
		<contour>
			<point x="438" y="653" type="line"/>
			<point x="529" y="642" type="line"/>
			<point x="542" y="642" type="line"/>
			<point x="542" y="669" type="line"/>
			<point x="438" y="669" type="line"/>
		</contour>
	</outline>
	<anchor name="aboveUC" x="349" y="689"/>
	<anchor name="belowLC" x="333" y="-20"/>
</glyph>
<glyph name="Uogonek" format="2">
	<advance width="661"/>
	<outline>
		<contour>
			<point x="135" y="640" type="line"/>
			<point x="169" y="640" type="line"/>
			<point x="271" y="653" type="line"/>
			<point x="271" y="669" type="line"/>
			<point x="38" y="669" type="line"/>
			<point x="38" y="653" type="line"/>
		</contour>
		<contour>
			<point x="391" y="-230" type="curve" smooth="yes"/>
			<point x="428" y="-230"/>
			<point x="457" y="-215"/>
			<point x="484" y="-185" type="curve"/>
			<point x="477" y="-173" type="line"/>
			<point x="457" y="-181"/>
			<point x="436" y="-184"/>
			<point x="419" y="-184" type="curve" smooth="yes"/>
			<point x="382" y="-184"/>
			<point x="361" y="-162"/>
			<point x="361" y="-117" type="curve" smooth="yes"/>
			<point x="361" y="-64"/>
			<point x="407" y="-16"/>
			<point x="449" y="9" type="curve" smooth="yes"/>
			<point x="512" y="47"/>
			<point x="549" y="117"/>
			<point x="549" y="243" type="curve" smooth="yes"/>
			<point x="549" y="669" type="line"/>
			<point x="521" y="669" type="line"/>
			<point x="521" y="247" type="line" smooth="yes"/>
			<point x="521" y="80"/>
			<point x="453" y="31"/>
			<point x="349" y="31" type="curve" smooth="yes"/>
			<point x="255" y="31"/>
			<point x="190" y="86"/>
			<point x="190" y="237" type="curve" smooth="yes"/>
			<point x="190" y="359" type="line" smooth="yes"/>
			<point x="190" y="462"/>
			<point x="190" y="589"/>
			<point x="194" y="669" type="curve"/>
			<point x="109" y="669" type="line"/>
			<point x="113" y="589"/>
			<point x="113" y="462"/>
			<point x="113" y="359" type="curve" smooth="yes"/>
			<point x="113" y="224" type="line" smooth="yes"/>
			<point x="113" y="50"/>
			<point x="211" y="-16"/>
			<point x="337" y="-16" type="curve" smooth="yes"/>
			<point x="363" y="-16"/>
			<point x="387" y="-13"/>
			<point x="408" y="-7" type="curve"/>
			<point x="431" y="9" type="line"/>
			<point x="376" y="-18"/>
			<point x="305" y="-67"/>
			<point x="305" y="-144" type="curve" smooth="yes"/>
			<point x="305" y="-195"/>
			<point x="339" y="-230"/>
		</contour>
		<contour>
			<point x="529" y="642" type="line"/>
			<point x="542" y="642" type="line"/>
			<point x="622" y="653" type="line"/>
			<point x="622" y="669" type="line"/>
			<point x="438" y="669" type="line"/>
			<point x="438" y="653" type="line"/>
		</contour>
	</outline>
	<anchor name="aboveUC" x="349" y="689"/>
</glyph>
<glyph name="V" format="2">
	<advance width="612"/>
	<outline>
		<contour>
			<point x="293" y="-8" type="line"/>
			<point x="323" y="-8" type="line"/>
			<point x="542" y="669" type="line"/>
			<point x="510" y="669" type="line"/>
			<point x="328" y="88" type="line"/>
			<point x="325" y="79" type="line"/>
			<point x="338" y="79" type="line"/>
			<point x="156" y="669" type="line"/>
			<point x="71" y="669" type="line"/>
		</contour>
		<contour>
			<point x="12" y="653" type="line"/>
			<point x="96" y="640" type="line"/>
			<point x="141" y="640" type="line"/>
			<point x="250" y="653" type="line"/>
			<point x="250" y="669" type="line"/>
			<point x="12" y="669" type="line"/>
		</contour>
		<contour>
			<point x="411" y="653" type="line"/>
			<point x="505" y="643" type="line"/>
			<point x="524" y="643" type="line"/>
			<point x="600" y="653" type="line"/>
			<point x="600" y="669" type="line"/>
			<point x="411" y="669" type="line"/>
		</contour>
	</outline>
	<anchor name="aboveUC" x="324" y="689"/>
	<anchor name="belowLC" x="311" y="-20"/>
</glyph>
<glyph name="W" format="2">
	<advance width="890"/>
	<outline>
		<contour>
			<point x="245" y="-6" type="line"/>
			<point x="281" y="-6" type="line"/>
			<point x="449" y="571" type="line"/>
			<point x="453" y="583" type="line"/>
			<point x="434" y="583" type="line"/>
			<point x="599" y="-6" type="line"/>
			<point x="633" y="-6" type="line"/>
			<point x="818" y="669" type="line"/>
			<point x="786" y="669" type="line"/>
			<point x="640" y="115" type="line"/>
			<point x="636" y="98" type="line"/>
			<point x="655" y="98" type="line"/>
			<point x="493" y="669" type="line"/>
			<point x="450" y="669" type="line"/>
			<point x="286" y="114" type="line"/>
			<point x="281" y="98" type="line"/>
			<point x="300" y="98" type="line"/>
			<point x="157" y="669" type="line"/>
			<point x="71" y="669" type="line"/>
		</contour>
		<contour>
			<point x="12" y="653" type="line"/>
			<point x="104" y="640" type="line"/>
			<point x="131" y="640" type="line"/>
			<point x="254" y="653" type="line"/>
			<point x="254" y="669" type="line"/>
			<point x="12" y="669" type="line"/>
		</contour>
		<contour>
			<point x="360" y="653" type="line"/>
			<point x="445" y="643" type="line"/>
			<point x="475" y="640" type="line"/>
			<point x="583" y="653" type="line"/>
			<point x="583" y="669" type="line"/>
			<point x="360" y="669" type="line"/>
		</contour>
		<contour>
			<point x="685" y="653" type="line"/>
			<point x="787" y="643" type="line"/>
			<point x="800" y="643" type="line"/>
			<point x="879" y="653" type="line"/>
			<point x="879" y="669" type="line"/>
			<point x="685" y="669" type="line"/>
		</contour>
	</outline>
	<anchor name="aboveUC" x="467" y="689"/>
	<anchor name="belowLC" x="451" y="-20"/>
</glyph>
<glyph name="X" format="2">
	<advance width="613"/>
	<outline>
		<contour>
			<point x="12" y="0" type="line"/>
			<point x="206" y="0" type="line"/>
			<point x="206" y="16" type="line"/>
			<point x="120" y="26" type="line"/>
			<point x="92" y="26" type="line"/>
			<point x="12" y="16" type="line"/>
		</contour>
		<contour>
			<point x="72" y="0" type="line"/>
			<point x="105" y="0" type="line"/>
			<point x="293" y="318" type="line"/>
			<point x="301" y="330" type="line"/>
			<point x="314" y="330" type="line"/>
			<point x="282" y="348" type="line"/>
		</contour>
		<contour>
			<point x="359" y="0" type="line"/>
			<point x="601" y="0" type="line"/>
			<point x="601" y="16" type="line"/>
			<point x="509" y="29" type="line"/>
			<point x="471" y="29" type="line"/>
			<point x="359" y="16" type="line"/>
		</contour>
		<contour>
			<point x="331" y="349" type="line"/>
			<point x="523" y="669" type="line"/>
			<point x="490" y="669" type="line"/>
			<point x="321" y="380" type="line"/>
			<point x="314" y="370" type="line"/>
			<point x="301" y="370" type="line"/>
		</contour>
		<contour>
			<point x="459" y="0" type="line"/>
			<point x="548" y="0" type="line"/>
			<point x="165" y="669" type="line"/>
			<point x="75" y="669" type="line"/>
		</contour>
		<contour>
			<point x="22" y="653" type="line"/>
			<point x="117" y="640" type="line"/>
			<point x="155" y="640" type="line"/>
			<point x="264" y="653" type="line"/>
			<point x="264" y="669" type="line"/>
			<point x="22" y="669" type="line"/>
		</contour>
		<contour>
			<point x="390" y="653" type="line"/>
			<point x="476" y="643" type="line"/>
			<point x="504" y="643" type="line"/>
			<point x="584" y="653" type="line"/>
			<point x="584" y="669" type="line"/>
			<point x="390" y="669" type="line"/>
		</contour>
	</outline>
	<anchor name="aboveUC" x="325" y="689"/>
	<anchor name="belowLC" x="285" y="-20"/>
</glyph>
<glyph name="Y" format="2">
	<advance width="594"/>
	<outline>
		<contour>
			<point x="165" y="0" type="line"/>
			<point x="430" y="0" type="line"/>
			<point x="430" y="16" type="line"/>
			<point x="314" y="29" type="line"/>
			<point x="281" y="29" type="line"/>
			<point x="165" y="16" type="line"/>
		</contour>
		<contour>
			<point x="255" y="0" type="curve"/>
			<point x="339" y="0" type="line"/>
			<point x="336" y="105"/>
			<point x="336" y="165"/>
			<point x="336" y="294" type="curve"/>
			<point x="259" y="294" type="line"/>
			<point x="259" y="165"/>
			<point x="259" y="105"/>
		</contour>
		<contour>
			<point x="288" y="208" type="line"/>
			<point x="307" y="208" type="line"/>
			<point x="522" y="669" type="line"/>
			<point x="491" y="669" type="line"/>
			<point x="322" y="302" type="line"/>
			<point x="320" y="297" type="line"/>
			<point x="329" y="297" type="line"/>
			<point x="152" y="669" type="line"/>
			<point x="67" y="669" type="line"/>
		</contour>
		<contour>
			<point x="12" y="653" type="line"/>
			<point x="104" y="640" type="line"/>
			<point x="140" y="640" type="line"/>
			<point x="248" y="653" type="line"/>
			<point x="248" y="669" type="line"/>
			<point x="12" y="669" type="line"/>
		</contour>
		<contour>
			<point x="395" y="653" type="line"/>
			<point x="481" y="643" type="line"/>
			<point x="502" y="643" type="line"/>
			<point x="582" y="653" type="line"/>
			<point x="582" y="669" type="line"/>
			<point x="395" y="669" type="line"/>
		</contour>
	</outline>
	<anchor name="aboveUC" x="322" y="689"/>
	<anchor name="belowLC" x="297" y="-20"/>
</glyph>
<glyph name="Z" format="2">
	<advance width="503"/>
	<outline>
		<contour>
			<point x="24" y="0" type="line"/>
			<point x="470" y="0" type="line"/>
			<point x="482" y="188" type="line"/>
			<point x="466" y="188" type="line"/>
			<point x="404" y="12" type="line"/>
			<point x="443" y="24" type="line"/>
			<point x="275" y="24" type="line"/>
			<point x="109" y="24" type="line"/>
			<point x="109" y="32" type="line"/>
			<point x="103" y="8" type="line"/>
			<point x="455" y="653" type="line"/>
			<point x="455" y="669" type="line"/>
			<point x="40" y="669" type="line"/>
			<point x="28" y="493" type="line"/>
			<point x="46" y="493" type="line"/>
			<point x="107" y="657" type="line"/>
			<point x="69" y="645" type="line"/>
			<point x="221" y="645" type="line"/>
			<point x="371" y="645" type="line"/>
			<point x="371" y="636" type="line"/>
			<point x="378" y="663" type="line"/>
			<point x="24" y="16" type="line"/>
		</contour>
	</outline>
	<anchor name="aboveUC" x="245" y="689"/>
	<anchor name="belowLC" x="262" y="-20"/>
</glyph>
<glyph name=".notdef" format="2">
	<advance width="640"/>
	<outline>
		<contour>
			<point x="80" y="0" type="line"/>
			<point x="143" y="0" type="line"/>
			<point x="560" y="669" type="line"/>
			<point x="497" y="669" type="line"/>
		</contour>
		<contour>
			<point x="560" y="0" type="line"/>
			<point x="143" y="669" type="line"/>
			<point x="80" y="669" type="line"/>
			<point x="497" y="0" type="line"/>
		</contour>
		<contour>
			<point x="142" y="52" type="line"/>
			<point x="142" y="618" type="line"/>
			<point x="498" y="618" type="line"/>
			<point x="498" y="52" type="line"/>
		</contour>
		<contour>
			<point x="80" y="0" type="line"/>
			<point x="560" y="0" type="line"/>
			<point x="560" y="669" type="line"/>
			<point x="80" y="669" type="line"/>
		</contour>
	</outline>
</glyph>
<glyph name="a" format="2">
	<advance width="456"/>
	<outline>
		<contour>
			<point x="155" y="-12" type="curve" smooth="yes"/>
			<point x="208" y="-12"/>
			<point x="254" y="11"/>
			<point x="296" y="68" type="curve"/>
			<point x="326" y="68" type="line"/>
			<point x="318" y="106" type="line"/>
			<point x="260" y="47"/>
			<point x="231" y="38"/>
			<point x="188" y="38" type="curve" smooth="yes"/>
			<point x="145" y="38"/>
			<point x="114" y="61"/>
			<point x="114" y="118" type="curve" smooth="yes"/>
			<point x="114" y="153"/>
			<point x="124" y="192"/>
			<point x="206" y="227" type="curve" smooth="yes"/>
			<point x="225" y="235"/>
			<point x="264" y="248"/>
			<point x="331" y="268" type="curve"/>
			<point x="331" y="284" type="line"/>
			<point x="262" y="268"/>
			<point x="215" y="254"/>
			<point x="186" y="244" type="curve" smooth="yes"/>
			<point x="64" y="204"/>
			<point x="38" y="157"/>
			<point x="38" y="100" type="curve" smooth="yes"/>
			<point x="38" y="27"/>
			<point x="90" y="-12"/>
		</contour>
		<contour>
			<point x="370" y="-8" type="curve" smooth="yes"/>
			<point x="410" y="-8"/>
			<point x="433" y="15"/>
			<point x="447" y="48" type="curve"/>
			<point x="437" y="56" type="line"/>
			<point x="420" y="37"/>
			<point x="410" y="30"/>
			<point x="393" y="30" type="curve" smooth="yes"/>
			<point x="375" y="30"/>
			<point x="363" y="42"/>
			<point x="363" y="82" type="curve" smooth="yes"/>
			<point x="363" y="305" type="line" smooth="yes"/>
			<point x="363" y="416"/>
			<point x="320" y="465"/>
			<point x="227" y="465" type="curve" smooth="yes"/>
			<point x="138" y="465"/>
			<point x="70" y="421"/>
			<point x="55" y="355" type="curve"/>
			<point x="58" y="332"/>
			<point x="68" y="318"/>
			<point x="92" y="318" type="curve" smooth="yes"/>
			<point x="115" y="318"/>
			<point x="131" y="333"/>
			<point x="137" y="363" type="curve" smooth="yes"/>
			<point x="155" y="442" type="line"/>
			<point x="127" y="423" type="line"/>
			<point x="153" y="431"/>
			<point x="175" y="438"/>
			<point x="200" y="438" type="curve" smooth="yes"/>
			<point x="263" y="438"/>
			<point x="290" y="407"/>
			<point x="290" y="309" type="curve" smooth="yes"/>
			<point x="290" y="76" type="line"/>
			<point x="290" y="74" type="line"/>
			<point x="291" y="21"/>
			<point x="318" y="-8"/>
		</contour>
	</outline>
	<anchor name="aboveLC" x="220" y="472"/>
	<anchor name="belowLC" x="224" y="-20"/>
	<anchor name="ogonek" x="387" y="0"/>
</glyph>
<glyph name="ae" format="2">
	<advance width="691"/>
	<outline>
		<contour>
			<point x="156" y="-12" type="curve" smooth="yes"/>
			<point x="228" y="-12"/>
			<point x="284" y="37"/>
			<point x="327" y="94" type="curve"/>
			<point x="351" y="95" type="line"/>
			<point x="318" y="106" type="line"/>
			<point x="260" y="47"/>
			<point x="231" y="38"/>
			<point x="188" y="38" type="curve" smooth="yes"/>
			<point x="145" y="38"/>
			<point x="114" y="61"/>
			<point x="114" y="118" type="curve" smooth="yes"/>
			<point x="114" y="153"/>
			<point x="124" y="192"/>
			<point x="206" y="227" type="curve" smooth="yes"/>
			<point x="225" y="235"/>
			<point x="264" y="248"/>
			<point x="331" y="268" type="curve"/>
			<point x="331" y="284" type="line"/>
			<point x="262" y="268"/>
			<point x="215" y="254"/>
			<point x="186" y="244" type="curve" smooth="yes"/>
			<point x="64" y="204"/>
			<point x="38" y="157"/>
			<point x="38" y="100" type="curve" smooth="yes"/>
			<point x="38" y="27"/>
			<point x="90" y="-12"/>
		</contour>
		<contour>
			<point x="481" y="-12" type="curve" smooth="yes"/>
			<point x="550" y="-12"/>
			<point x="610" y="19"/>
			<point x="645" y="96" type="curve"/>
			<point x="631" y="104" type="line"/>
			<point x="600" y="62"/>
			<point x="558" y="39"/>
			<point x="503" y="39" type="curve" smooth="yes"/>
			<point x="422" y="39"/>
			<point x="365" y="112"/>
			<point x="365" y="234" type="curve" smooth="yes"/>
			<point x="365" y="384"/>
			<point x="425" y="442"/>
			<point x="482" y="442" type="curve" smooth="yes"/>
			<point x="536" y="442"/>
			<point x="577" y="394"/>
			<point x="577" y="319" type="curve" smooth="yes"/>
			<point x="577" y="283"/>
			<point x="565" y="268"/>
			<point x="526" y="268" type="curve" smooth="yes"/>
			<point x="318" y="268" type="line"/>
			<point x="318" y="246" type="line"/>
			<point x="639" y="246" type="line"/>
			<point x="643" y="258"/>
			<point x="645" y="274"/>
			<point x="645" y="296" type="curve" smooth="yes"/>
			<point x="645" y="400"/>
			<point x="576" y="465"/>
			<point x="490" y="465" type="curve" smooth="yes"/>
			<point x="407" y="465"/>
			<point x="337" y="407"/>
			<point x="307" y="314" type="curve"/>
			<point x="357" y="312" type="line"/>
			<point x="355" y="419"/>
			<point x="316" y="465"/>
			<point x="227" y="465" type="curve" smooth="yes"/>
			<point x="138" y="465"/>
			<point x="70" y="421"/>
			<point x="55" y="355" type="curve"/>
			<point x="58" y="332"/>
			<point x="68" y="318"/>
			<point x="92" y="318" type="curve" smooth="yes"/>
			<point x="115" y="318"/>
			<point x="131" y="333"/>
			<point x="137" y="363" type="curve" smooth="yes"/>
			<point x="155" y="442" type="line"/>
			<point x="127" y="423" type="line"/>
			<point x="153" y="431"/>
			<point x="175" y="438"/>
			<point x="200" y="438" type="curve" smooth="yes"/>
			<point x="263" y="438"/>
			<point x="290" y="407"/>
			<point x="290" y="309" type="curve" smooth="yes"/>
			<point x="290" y="216" type="line" smooth="yes"/>
			<point x="290" y="74"/>
			<point x="376" y="-12"/>
		</contour>
	</outline>
	<anchor name="aboveLC" x="339" y="472"/>
	<anchor name="belowLC" x="318" y="-20"/>
</glyph>
<glyph name="alphalatin" format="2">
	<advance width="529"/>
	<outline>
		<contour>
			<point x="223" y="-12" type="curve" smooth="yes"/>
			<point x="291" y="-12"/>
			<point x="342" y="33"/>
			<point x="372" y="89" type="curve"/>
			<point x="385" y="89" type="line"/>
			<point x="379" y="118" type="line"/>
			<point x="343" y="64"/>
			<point x="302" y="27"/>
			<point x="250" y="27" type="curve" smooth="yes"/>
			<point x="174" y="27"/>
			<point x="120" y="87"/>
			<point x="120" y="220" type="curve" smooth="yes"/>
			<point x="120" y="358"/>
			<point x="178" y="424"/>
			<point x="250" y="424" type="curve" smooth="yes"/>
			<point x="303" y="424"/>
			<point x="334" y="405"/>
			<point x="383" y="347" type="curve"/>
			<point x="390" y="372" type="line"/>
			<point x="376" y="372" type="line"/>
			<point x="339" y="439"/>
			<point x="290" y="465"/>
			<point x="236" y="465" type="curve" smooth="yes"/>
			<point x="132" y="465"/>
			<point x="43" y="374"/>
			<point x="43" y="216" type="curve" smooth="yes"/>
			<point x="43" y="64"/>
			<point x="125" y="-12"/>
		</contour>
		<contour>
			<point x="363" y="88" type="line"/>
			<point x="363" y="75" type="line"/>
			<point x="363" y="21"/>
			<point x="390" y="-8"/>
			<point x="442" y="-8" type="curve" smooth="yes"/>
			<point x="482" y="-8"/>
			<point x="505" y="11"/>
			<point x="519" y="44" type="curve"/>
			<point x="509" y="53" type="line"/>
			<point x="492" y="33"/>
			<point x="482" y="26"/>
			<point x="465" y="26" type="curve" smooth="yes"/>
			<point x="448" y="26"/>
			<point x="435" y="35"/>
			<point x="435" y="76" type="curve" smooth="yes"/>
			<point x="435" y="256" type="line"/>
			<point x="439" y="457" type="line"/>
			<point x="429" y="462" type="line"/>
			<point x="363" y="384" type="line"/>
			<point x="363" y="379" type="line"/>
		</contour>
	</outline>
	<anchor name="aboveLC" x="256" y="472"/>
	<anchor name="belowLC" x="255" y="-20"/>
</glyph>
<glyph name="ampersand" format="2">
	<advance width="676"/>
	<outline>
		<contour>
			<point x="223" y="-12" type="curve" smooth="yes"/>
			<point x="334" y="-12"/>
			<point x="394" y="51"/>
			<point x="433" y="113" type="curve"/>
			<point x="424" y="116" type="line"/>
			<point x="411" y="121" type="line"/>
			<point x="378" y="65"/>
			<point x="317" y="42"/>
			<point x="251" y="42" type="curve" smooth="yes"/>
			<point x="155" y="42"/>
			<point x="102" y="117"/>
			<point x="102" y="196" type="curve" smooth="yes"/>
			<point x="102" y="251"/>
			<point x="131" y="324"/>
			<point x="212" y="366" type="curve"/>
			<point x="204" y="372" type="line"/>
			<point x="196" y="377" type="line"/>
			<point x="88" y="326"/>
			<point x="24" y="263"/>
			<point x="24" y="165" type="curve" smooth="yes"/>
			<point x="24" y="66"/>
			<point x="104" y="-12"/>
		</contour>
		<contour>
			<point x="437" y="107" type="line"/>
			<point x="493" y="189"/>
			<point x="532" y="286"/>
			<point x="555" y="400" type="curve"/>
			<point x="524" y="400" type="line"/>
			<point x="504" y="293"/>
			<point x="474" y="206"/>
			<point x="423" y="127" type="curve"/>
			<point x="418" y="127" type="line"/>
		</contour>
		<contour>
			<point x="529" y="393" type="line"/>
			<point x="550" y="393" type="line"/>
			<point x="631" y="405" type="line"/>
			<point x="631" y="420" type="line"/>
			<point x="440" y="420" type="line"/>
			<point x="440" y="405" type="line"/>
		</contour>
		<contour>
			<point x="556" y="-12" type="curve" smooth="yes"/>
			<point x="581" y="-12"/>
			<point x="605" y="-8"/>
			<point x="635" y="0" type="curve"/>
			<point x="635" y="15" type="line"/>
			<point x="512" y="30" type="line"/>
			<point x="577" y="9" type="line"/>
			<point x="480" y="119"/>
			<point x="408" y="201"/>
			<point x="333" y="288" type="curve" smooth="yes"/>
			<point x="272" y="361"/>
			<point x="244" y="392"/>
			<point x="209" y="438" type="curve" smooth="yes"/>
			<point x="175" y="484"/>
			<point x="167" y="523"/>
			<point x="167" y="559" type="curve" smooth="yes"/>
			<point x="167" y="620"/>
			<point x="205" y="663"/>
			<point x="251" y="663" type="curve" smooth="yes"/>
			<point x="301" y="663"/>
			<point x="336" y="624"/>
			<point x="336" y="558" type="curve" smooth="yes"/>
			<point x="336" y="489"/>
			<point x="289" y="432"/>
			<point x="224" y="388" type="curve"/>
			<point x="229" y="382" type="line"/>
			<point x="235" y="376" type="line"/>
			<point x="347" y="435"/>
			<point x="398" y="483"/>
			<point x="398" y="557" type="curve" smooth="yes"/>
			<point x="398" y="632"/>
			<point x="349" y="685"/>
			<point x="255" y="685" type="curve" smooth="yes"/>
			<point x="166" y="685"/>
			<point x="100" y="620"/>
			<point x="100" y="538" type="curve" smooth="yes"/>
			<point x="100" y="487"/>
			<point x="117" y="438"/>
			<point x="164" y="381" type="curve" smooth="yes"/>
			<point x="205" y="329"/>
			<point x="242" y="288"/>
			<point x="297" y="217" type="curve" smooth="yes"/>
			<point x="345" y="159"/>
			<point x="393" y="103"/>
			<point x="453" y="32" type="curve" smooth="yes"/>
			<point x="485" y="-2"/>
			<point x="505" y="-12"/>
		</contour>
	</outline>
</glyph>
<glyph name="aogonek" format="2">
	<advance width="456"/>
	<outline>
		<contour>
			<point x="155" y="-12" type="curve" smooth="yes"/>
			<point x="208" y="-12"/>
			<point x="254" y="11"/>
			<point x="296" y="68" type="curve"/>
			<point x="326" y="68" type="line"/>
			<point x="318" y="106" type="line"/>
			<point x="260" y="47"/>
			<point x="231" y="38"/>
			<point x="188" y="38" type="curve" smooth="yes"/>
			<point x="145" y="38"/>
			<point x="114" y="61"/>
			<point x="114" y="118" type="curve" smooth="yes"/>
			<point x="114" y="153"/>
			<point x="124" y="192"/>
			<point x="206" y="227" type="curve" smooth="yes"/>
			<point x="225" y="235"/>
			<point x="264" y="248"/>
			<point x="331" y="268" type="curve"/>
			<point x="331" y="284" type="line"/>
			<point x="262" y="268"/>
			<point x="215" y="254"/>
			<point x="186" y="244" type="curve" smooth="yes"/>
			<point x="64" y="204"/>
			<point x="38" y="157"/>
			<point x="38" y="100" type="curve" smooth="yes"/>
			<point x="38" y="27"/>
			<point x="90" y="-12"/>
		</contour>
		<contour>
			<point x="354" y="-230" type="curve" smooth="yes"/>
			<point x="391" y="-230"/>
			<point x="420" y="-215"/>
			<point x="447" y="-185" type="curve"/>
			<point x="441" y="-173" type="line"/>
			<point x="420" y="-181"/>
			<point x="399" y="-184"/>
			<point x="382" y="-184" type="curve" smooth="yes"/>
			<point x="346" y="-184"/>
			<point x="324" y="-163"/>
			<point x="324" y="-121" type="curve" smooth="yes"/>
			<point x="324" y="-75"/>
			<point x="378" y="-25"/>
			<point x="416" y="4" type="curve" smooth="yes"/>
			<point x="431" y="16"/>
			<point x="440" y="30"/>
			<point x="447" y="48" type="curve"/>
			<point x="437" y="56" type="line"/>
			<point x="420" y="37"/>
			<point x="410" y="30"/>
			<point x="393" y="30" type="curve" smooth="yes"/>
			<point x="375" y="30"/>
			<point x="363" y="42"/>
			<point x="363" y="82" type="curve" smooth="yes"/>
			<point x="363" y="305" type="line" smooth="yes"/>
			<point x="363" y="416"/>
			<point x="320" y="465"/>
			<point x="227" y="465" type="curve" smooth="yes"/>
			<point x="138" y="465"/>
			<point x="70" y="421"/>
			<point x="55" y="355" type="curve"/>
			<point x="58" y="332"/>
			<point x="68" y="318"/>
			<point x="92" y="318" type="curve" smooth="yes"/>
			<point x="115" y="318"/>
			<point x="131" y="333"/>
			<point x="137" y="363" type="curve" smooth="yes"/>
			<point x="157" y="447" type="line"/>
			<point x="124" y="423" type="line"/>
			<point x="168" y="436"/>
			<point x="184" y="438"/>
			<point x="200" y="438" type="curve" smooth="yes"/>
			<point x="263" y="438"/>
			<point x="290" y="407"/>
			<point x="290" y="309" type="curve" smooth="yes"/>
			<point x="290" y="76" type="line"/>
			<point x="290" y="74" type="line" smooth="yes"/>
			<point x="291" y="21"/>
			<point x="318" y="-8"/>
			<point x="370" y="-8" type="curve" smooth="yes"/>
			<point x="376" y="-8"/>
			<point x="384" y="-7"/>
			<point x="393" y="-4" type="curve"/>
			<point x="400" y="6" type="line"/>
			<point x="321" y="-37"/>
			<point x="268" y="-86"/>
			<point x="268" y="-144" type="curve" smooth="yes"/>
			<point x="268" y="-195"/>
			<point x="302" y="-230"/>
		</contour>
	</outline>
	<anchor name="aboveLC" x="220" y="472"/>
</glyph>
<glyph name="b" format="2">
	<advance width="542"/>
	<outline>
		<contour>
			<point x="35" y="0" type="line"/>
			<point x="179" y="-10" type="line"/>
			<point x="179" y="73" type="line"/>
			<point x="179" y="75" type="line"/>
			<point x="179" y="367" type="line"/>
			<point x="179" y="370" type="line"/>
			<point x="179" y="538" type="line"/>
			<point x="183" y="735" type="line"/>
			<point x="175" y="743" type="line"/>
			<point x="31" y="706" type="line"/>
			<point x="31" y="692" type="line"/>
			<point x="107" y="675" type="line"/>
			<point x="107" y="211" type="line" smooth="yes"/>
			<point x="107" y="160"/>
			<point x="106" y="84"/>
			<point x="104" y="25" type="curve"/>
			<point x="35" y="16" type="line"/>
		</contour>
		<contour>
			<point x="309" y="-12" type="curve" smooth="yes"/>
			<point x="415" y="-12"/>
			<point x="499" y="78"/>
			<point x="499" y="236" type="curve" smooth="yes"/>
			<point x="499" y="388"/>
			<point x="417" y="465"/>
			<point x="319" y="465" type="curve" smooth="yes"/>
			<point x="251" y="465"/>
			<point x="200" y="421"/>
			<point x="170" y="363" type="curve"/>
			<point x="157" y="363" type="line"/>
			<point x="163" y="335" type="line"/>
			<point x="198" y="389"/>
			<point x="240" y="425"/>
			<point x="292" y="425" type="curve" smooth="yes"/>
			<point x="368" y="425"/>
			<point x="422" y="365"/>
			<point x="422" y="232" type="curve" smooth="yes"/>
			<point x="422" y="96"/>
			<point x="368" y="28"/>
			<point x="296" y="28" type="curve" smooth="yes"/>
			<point x="242" y="28"/>
			<point x="207" y="48"/>
			<point x="159" y="105" type="curve"/>
			<point x="152" y="81" type="line"/>
			<point x="166" y="81" type="line"/>
			<point x="203" y="13"/>
			<point x="255" y="-12"/>
		</contour>
	</outline>
	<anchor name="aboveLC" x="147" y="743"/>
	<anchor name="belowLC" x="271" y="-20"/>
</glyph>
<glyph name="c" format="2">
	<advance width="431"/>
	<outline>
		<contour>
			<point x="246" y="-12" type="curve" smooth="yes"/>
			<point x="321" y="-12"/>
			<point x="378" y="24"/>
			<point x="412" y="100" type="curve"/>
			<point x="398" y="108" type="line"/>
			<point x="366" y="65"/>
			<point x="326" y="39"/>
			<point x="267" y="39" type="curve" smooth="yes"/>
			<point x="164" y="39"/>
			<point x="116" y="130"/>
			<point x="116" y="238" type="curve" smooth="yes"/>
			<point x="116" y="350"/>
			<point x="165" y="442"/>
			<point x="259" y="442" type="curve" smooth="yes"/>
			<point x="279" y="442"/>
			<point x="308" y="440"/>
			<point x="330" y="417" type="curve"/>
			<point x="303" y="442" type="line"/>
			<point x="321" y="363" type="line" smooth="yes"/>
			<point x="327" y="333"/>
			<point x="343" y="318"/>
			<point x="366" y="318" type="curve" smooth="yes"/>
			<point x="389" y="318"/>
			<point x="402" y="330"/>
			<point x="405" y="354" type="curve"/>
			<point x="393" y="418"/>
			<point x="339" y="465"/>
			<point x="258" y="465" type="curve" smooth="yes"/>
			<point x="146" y="465"/>
			<point x="39" y="380"/>
			<point x="39" y="220" type="curve" smooth="yes"/>
			<point x="39" y="72"/>
			<point x="124" y="-12"/>
		</contour>
	</outline>
	<anchor name="aboveLC" x="247" y="472"/>
	<anchor name="baseLC" x="244" y="0"/>
	<anchor name="belowLC" x="244" y="-20"/>
</glyph>
<glyph name="comma" format="2">
	<advance width="258"/>
	<outline>
		<contour>
			<point x="69" y="-143" type="line"/>
			<point x="132" y="-114"/>
			<point x="184" y="-58"/>
			<point x="184" y="27" type="curve" smooth="yes"/>
			<point x="184" y="45"/>
			<point x="181" y="65"/>
			<point x="176" y="86" type="curve"/>
			<point x="156" y="103"/>
			<point x="142" y="104"/>
			<point x="127" y="104" type="curve" smooth="yes"/>
			<point x="96" y="104"/>
			<point x="74" y="82"/>
			<point x="74" y="50" type="curve" smooth="yes"/>
			<point x="74" y="33"/>
			<point x="83" y="14"/>
			<point x="106" y="1" type="curve" smooth="yes"/>
			<point x="151" y="-28" type="line"/>
			<point x="151" y="-4" type="line"/>
			<point x="128" y="-69"/>
			<point x="110" y="-93"/>
			<point x="58" y="-125" type="curve"/>
		</contour>
	</outline>
</glyph>
<glyph name="dcroat" format="2">
	<advance width="530"/>
	<outline>
		<contour>
			<point x="171" y="554" type="line"/>
			<point x="503" y="554" type="line"/>
			<point x="503" y="577" type="line"/>
			<point x="171" y="577" type="line"/>
		</contour>
		<contour>
			<point x="120" y="212" type="curve" smooth="yes"/>
			<point x="120" y="342"/>
			<point x="178" y="408"/>
			<point x="250" y="408" type="curve" smooth="yes"/>
			<point x="303" y="408"/>
			<point x="334" y="389"/>
			<point x="383" y="331" type="curve"/>
			<point x="390" y="356" type="line"/>
			<point x="376" y="356" type="line"/>
			<point x="339" y="423"/>
			<point x="290" y="449"/>
			<point x="236" y="449" type="curve" smooth="yes"/>
			<point x="132" y="449"/>
			<point x="43" y="358"/>
			<point x="43" y="208" type="curve" smooth="yes"/>
			<point x="43" y="64"/>
			<point x="125" y="-12"/>
			<point x="223" y="-12" type="curve" smooth="yes"/>
			<point x="291" y="-12"/>
			<point x="342" y="33"/>
			<point x="372" y="89" type="curve"/>
			<point x="385" y="89" type="line"/>
			<point x="379" y="118" type="line"/>
			<point x="343" y="64"/>
			<point x="302" y="27"/>
			<point x="250" y="27" type="curve" smooth="yes"/>
			<point x="174" y="27"/>
			<point x="120" y="87"/>
		</contour>
		<contour>
			<point x="503" y="0" type="line"/>
			<point x="503" y="16" type="line"/>
			<point x="435" y="26" type="line"/>
			<point x="435" y="538" type="line"/>
			<point x="439" y="735" type="line"/>
			<point x="431" y="743" type="line"/>
			<point x="289" y="706" type="line"/>
			<point x="289" y="692" type="line"/>
			<point x="363" y="675" type="line"/>
			<point x="363" y="367" type="line"/>
			<point x="363" y="362" type="line"/>
			<point x="363" y="85" type="line"/>
			<point x="363" y="79" type="line"/>
			<point x="363" y="-10" type="line"/>
		</contour>
	</outline>
</glyph>
<glyph name="dotlessi" format="2">
	<advance width="274"/>
	<outline>
		<contour>
			<point x="34" y="0" type="line"/>
			<point x="247" y="0" type="line"/>
			<point x="247" y="16" type="line"/>
			<point x="153" y="29" type="line"/>
			<point x="129" y="29" type="line"/>
			<point x="34" y="16" type="line"/>
		</contour>
		<contour>
			<point x="103" y="0" type="curve"/>
			<point x="183" y="0" type="line"/>
			<point x="180" y="46"/>
			<point x="179" y="148"/>
			<point x="179" y="212" type="curve" smooth="yes"/>
			<point x="179" y="330" type="line"/>
			<point x="183" y="456" type="line"/>
			<point x="174" y="465" type="line"/>
			<point x="30" y="420" type="line"/>
			<point x="30" y="406" type="line"/>
			<point x="104" y="389" type="line"/>
			<point x="106" y="347"/>
			<point x="107" y="313"/>
			<point x="107" y="257" type="curve" smooth="yes"/>
			<point x="107" y="212" type="line" smooth="yes"/>
			<point x="107" y="148"/>
			<point x="106" y="46"/>
		</contour>
	</outline>
	<anchor name="aboveLC" x="139" y="472"/>
	<anchor name="belowLC" x="140" y="-20"/>
	<anchor name="ogonek" x="187" y="0"/>
</glyph>
<glyph name="e" format="2">
	<advance width="458"/>
	<outline>
		<contour>
			<point x="247" y="-12" type="curve" smooth="yes"/>
			<point x="320" y="-12"/>
			<point x="381" y="23"/>
			<point x="416" y="100" type="curve"/>
			<point x="402" y="108" type="line"/>
			<point x="371" y="66"/>
			<point x="328" y="39"/>
			<point x="270" y="39" type="curve" smooth="yes"/>
			<point x="182" y="39"/>
			<point x="118" y="112"/>
			<point x="118" y="234" type="curve" smooth="yes"/>
			<point x="118" y="384"/>
			<point x="181" y="442"/>
			<point x="245" y="442" type="curve" smooth="yes"/>
			<point x="306" y="442"/>
			<point x="345" y="394"/>
			<point x="345" y="319" type="curve" smooth="yes"/>
			<point x="345" y="283"/>
			<point x="331" y="268"/>
			<point x="293" y="268" type="curve" smooth="yes"/>
			<point x="70" y="268" type="line"/>
			<point x="70" y="246" type="line"/>
			<point x="405" y="246" type="line"/>
			<point x="409" y="258"/>
			<point x="411" y="274"/>
			<point x="411" y="296" type="curve" smooth="yes"/>
			<point x="411" y="400"/>
			<point x="338" y="465"/>
			<point x="244" y="465" type="curve" smooth="yes"/>
			<point x="136" y="465"/>
			<point x="42" y="367"/>
			<point x="42" y="216" type="curve" smooth="yes"/>
			<point x="42" y="74"/>
			<point x="132" y="-12"/>
		</contour>
	</outline>
	<anchor name="aboveLC" x="245" y="472"/>
	<anchor name="belowLC" x="247" y="-20"/>
	<anchor name="ogonek" x="295" y="0"/>
</glyph>
<glyph name="eight.cap" format="2">
	<advance width="482"/>
	<outline>
		<contour>
			<point x="241" y="-12" type="curve" smooth="yes"/>
			<point x="351" y="-12"/>
			<point x="439" y="69"/>
			<point x="439" y="170" type="curve" smooth="yes"/>
			<point x="439" y="273"/>
			<point x="358" y="323"/>
			<point x="279" y="370" type="curve" smooth="yes"/>
			<point x="207" y="413"/>
			<point x="138" y="456"/>
			<point x="138" y="534" type="curve" smooth="yes"/>
			<point x="138" y="613"/>
			<point x="184" y="664"/>
			<point x="245" y="664" type="curve" smooth="yes"/>
			<point x="313" y="664"/>
			<point x="346" y="603"/>
			<point x="346" y="529" type="curve" smooth="yes"/>
			<point x="346" y="468"/>
			<point x="318" y="406"/>
			<point x="242" y="351" type="curve"/>
			<point x="268" y="345" type="line"/>
			<point x="268" y="355" type="line"/>
			<point x="375" y="400"/>
			<point x="418" y="475"/>
			<point x="418" y="533" type="curve" smooth="yes"/>
			<point x="418" y="627"/>
			<point x="348" y="685"/>
			<point x="247" y="685" type="curve" smooth="yes"/>
			<point x="146" y="685"/>
			<point x="62" y="617"/>
			<point x="62" y="514" type="curve" smooth="yes"/>
			<point x="62" y="420"/>
			<point x="129" y="368"/>
			<point x="200" y="325" type="curve" smooth="yes"/>
			<point x="278" y="278"/>
			<point x="360" y="238"/>
			<point x="360" y="155" type="curve" smooth="yes"/>
			<point x="360" y="71"/>
			<point x="310" y="9"/>
			<point x="241" y="9" type="curve" smooth="yes"/>
			<point x="174" y="9"/>
			<point x="118" y="73"/>
			<point x="118" y="156" type="curve" smooth="yes"/>
			<point x="118" y="232"/>
			<point x="160" y="289"/>
			<point x="234" y="335" type="curve"/>
			<point x="205" y="345" type="line"/>
			<point x="205" y="337" type="line"/>
			<point x="104" y="288"/>
			<point x="43" y="229"/>
			<point x="43" y="149" type="curve" smooth="yes"/>
			<point x="43" y="48"/>
			<point x="124" y="-12"/>
		</contour>
	</outline>
</glyph>
<glyph name="eight.lf" format="2">
	<advance width="482"/>
	<outline>
		<contour>
			<point x="241" y="-12" type="curve" smooth="yes"/>
			<point x="351" y="-12"/>
			<point x="438" y="63"/>
			<point x="438" y="164" type="curve" smooth="yes"/>
			<point x="438" y="267"/>
			<point x="357" y="314"/>
			<point x="279" y="357" type="curve" smooth="yes"/>
			<point x="207" y="397"/>
			<point x="138" y="434"/>
			<point x="138" y="512" type="curve" smooth="yes"/>
			<point x="138" y="592"/>
			<point x="184" y="637"/>
			<point x="245" y="637" type="curve" smooth="yes"/>
			<point x="313" y="637"/>
			<point x="346" y="582"/>
			<point x="346" y="508" type="curve" smooth="yes"/>
			<point x="346" y="447"/>
			<point x="318" y="394"/>
			<point x="242" y="339" type="curve"/>
			<point x="268" y="331" type="line"/>
			<point x="268" y="342" type="line"/>
			<point x="375" y="387"/>
			<point x="418" y="454"/>
			<point x="418" y="512" type="curve" smooth="yes"/>
			<point x="418" y="606"/>
			<point x="348" y="658"/>
			<point x="247" y="658" type="curve" smooth="yes"/>
			<point x="146" y="658"/>
			<point x="62" y="596"/>
			<point x="62" y="493" type="curve" smooth="yes"/>
			<point x="62" y="399"/>
			<point x="130" y="352"/>
			<point x="201" y="313" type="curve" smooth="yes"/>
			<point x="278" y="269"/>
			<point x="360" y="232"/>
			<point x="360" y="149" type="curve" smooth="yes"/>
			<point x="360" y="66"/>
			<point x="310" y="9"/>
			<point x="241" y="9" type="curve" smooth="yes"/>
			<point x="174" y="9"/>
			<point x="118" y="67"/>
			<point x="118" y="150" type="curve" smooth="yes"/>
			<point x="118" y="226"/>
			<point x="160" y="277"/>
			<point x="234" y="323" type="curve"/>
			<point x="204" y="332" type="line"/>
			<point x="204" y="323" type="line"/>
			<point x="103" y="276"/>
			<point x="43" y="223"/>
			<point x="43" y="142" type="curve" smooth="yes"/>
			<point x="43" y="41"/>
			<point x="124" y="-12"/>
		</contour>
	</outline>
</glyph>
<glyph name="eng" format="2">
	<advance width="542"/>
	<outline>
		<contour>
			<point x="34" y="0" type="line"/>
			<point x="247" y="0" type="line"/>
			<point x="247" y="16" type="line"/>
			<point x="153" y="29" type="line"/>
			<point x="129" y="29" type="line"/>
			<point x="34" y="16" type="line"/>
		</contour>
		<contour>
			<point x="103" y="0" type="curve"/>
			<point x="183" y="0" type="line"/>
			<point x="180" y="46"/>
			<point x="179" y="148"/>
			<point x="179" y="212" type="curve" smooth="yes"/>
			<point x="179" y="357" type="line"/>
			<point x="179" y="360" type="line"/>
			<point x="179" y="456" type="line"/>
			<point x="170" y="465" type="line"/>
			<point x="30" y="420" type="line"/>
			<point x="30" y="406" type="line"/>
			<point x="104" y="389" type="line"/>
			<point x="106" y="347"/>
			<point x="107" y="313"/>
			<point x="107" y="257" type="curve" smooth="yes"/>
			<point x="107" y="212" type="line" smooth="yes"/>
			<point x="107" y="148"/>
			<point x="106" y="46"/>
		</contour>
		<contour>
			<point x="310" y="-258" type="curve" smooth="yes"/>
			<point x="350" y="-258"/>
			<point x="382" y="-243"/>
			<point x="411" y="-212" type="curve" smooth="yes"/>
			<point x="453" y="-166"/>
			<point x="465" y="-102"/>
			<point x="465" y="33" type="curve" smooth="yes"/>
			<point x="465" y="306" type="line" smooth="yes"/>
			<point x="465" y="422"/>
			<point x="423" y="465"/>
			<point x="347" y="465" type="curve" smooth="yes"/>
			<point x="274" y="465"/>
			<point x="208" y="410"/>
			<point x="167" y="356" type="curve"/>
			<point x="163" y="356" type="line"/>
			<point x="171" y="341" type="line"/>
			<point x="220" y="387"/>
			<point x="264" y="413"/>
			<point x="312" y="413" type="curve" smooth="yes"/>
			<point x="369" y="413"/>
			<point x="391" y="391"/>
			<point x="391" y="306" type="curve" smooth="yes"/>
			<point x="391" y="39" type="line" smooth="yes"/>
			<point x="391" y="-85"/>
			<point x="396" y="-162"/>
			<point x="375" y="-208" type="curve" smooth="yes"/>
			<point x="367" y="-225"/>
			<point x="360" y="-233"/>
			<point x="349" y="-235" type="curve"/>
			<point x="349" y="-241" type="line"/>
			<point x="371" y="-241" type="line"/>
			<point x="371" y="-235" type="line"/>
			<point x="339" y="-204" type="line" smooth="yes"/>
			<point x="321" y="-186"/>
			<point x="302" y="-178"/>
			<point x="280" y="-178" type="curve" smooth="yes"/>
			<point x="252" y="-178"/>
			<point x="232" y="-191"/>
			<point x="230" y="-215" type="curve"/>
			<point x="239" y="-243"/>
			<point x="269" y="-258"/>
		</contour>
	</outline>
</glyph>
<glyph name="eogonek" format="2">
	<advance width="458"/>
	<outline>
		<contour>
			<point x="278" y="-230" type="curve" smooth="yes"/>
			<point x="315" y="-230"/>
			<point x="344" y="-215"/>
			<point x="371" y="-185" type="curve"/>
			<point x="365" y="-173" type="line"/>
			<point x="344" y="-181"/>
			<point x="323" y="-184"/>
			<point x="306" y="-184" type="curve" smooth="yes"/>
			<point x="270" y="-184"/>
			<point x="248" y="-162"/>
			<point x="248" y="-117" type="curve" smooth="yes"/>
			<point x="248" y="-65"/>
			<point x="295" y="-17"/>
			<point x="336" y="8" type="curve" smooth="yes"/>
			<point x="368" y="28"/>
			<point x="396" y="56"/>
			<point x="416" y="100" type="curve"/>
			<point x="402" y="108" type="line"/>
			<point x="371" y="66"/>
			<point x="328" y="39"/>
			<point x="270" y="39" type="curve" smooth="yes"/>
			<point x="182" y="39"/>
			<point x="118" y="112"/>
			<point x="118" y="234" type="curve" smooth="yes"/>
			<point x="118" y="384"/>
			<point x="181" y="442"/>
			<point x="245" y="442" type="curve" smooth="yes"/>
			<point x="306" y="442"/>
			<point x="345" y="394"/>
			<point x="345" y="319" type="curve" smooth="yes"/>
			<point x="345" y="283"/>
			<point x="331" y="268"/>
			<point x="293" y="268" type="curve" smooth="yes"/>
			<point x="70" y="268" type="line"/>
			<point x="70" y="246" type="line"/>
			<point x="405" y="246" type="line"/>
			<point x="409" y="258"/>
			<point x="411" y="274"/>
			<point x="411" y="296" type="curve" smooth="yes"/>
			<point x="411" y="400"/>
			<point x="338" y="465"/>
			<point x="244" y="465" type="curve" smooth="yes"/>
			<point x="136" y="465"/>
			<point x="42" y="367"/>
			<point x="42" y="216" type="curve" smooth="yes"/>
			<point x="42" y="74"/>
			<point x="132" y="-12"/>
			<point x="247" y="-12" type="curve" smooth="yes"/>
			<point x="266" y="-12"/>
			<point x="285" y="-9"/>
			<point x="301" y="-5" type="curve"/>
			<point x="319" y="9" type="line"/>
			<point x="264" y="-17"/>
			<point x="192" y="-67"/>
			<point x="192" y="-144" type="curve" smooth="yes"/>
			<point x="192" y="-195"/>
			<point x="226" y="-230"/>
		</contour>
	</outline>
	<anchor name="aboveLC" x="245" y="472"/>
</glyph>
<glyph name="eth" format="2">
	<advance width="503"/>
	<outline>
		<contour>
			<point x="252" y="-12" type="curve" smooth="yes"/>
			<point x="387" y="-12"/>
			<point x="461" y="99"/>
			<point x="461" y="279" type="curve" smooth="yes"/>
			<point x="461" y="513"/>
			<point x="341" y="667"/>
			<point x="161" y="753" type="curve"/>
			<point x="149" y="737" type="line"/>
			<point x="290" y="644"/>
			<point x="352" y="549"/>
			<point x="389" y="379" type="curve"/>
			<point x="395" y="371" type="line"/>
			<point x="373" y="433"/>
			<point x="321" y="465"/>
			<point x="252" y="465" type="curve" smooth="yes"/>
			<point x="140" y="465"/>
			<point x="43" y="380"/>
			<point x="43" y="224" type="curve" smooth="yes"/>
			<point x="43" y="69"/>
			<point x="139" y="-12"/>
		</contour>
		<contour>
			<point x="252" y="9" type="curve" smooth="yes"/>
			<point x="171" y="9"/>
			<point x="122" y="83"/>
			<point x="122" y="224" type="curve" smooth="yes"/>
			<point x="122" y="366"/>
			<point x="171" y="443"/>
			<point x="252" y="443" type="curve" smooth="yes"/>
			<point x="332" y="443"/>
			<point x="381" y="369"/>
			<point x="381" y="228" type="curve" smooth="yes"/>
			<point x="381" y="86"/>
			<point x="332" y="9"/>
		</contour>
		<contour>
			<point x="148" y="537" type="line"/>
			<point x="463" y="707" type="line"/>
			<point x="452" y="727" type="line"/>
			<point x="137" y="556" type="line"/>
		</contour>
	</outline>
</glyph>
<glyph name="exclam" format="2">
	<advance width="268"/>
	<outline>
		<contour>
			<point x="134" y="-7" type="curve" smooth="yes"/>
			<point x="164" y="-7"/>
			<point x="189" y="15"/>
			<point x="189" y="48" type="curve" smooth="yes"/>
			<point x="189" y="81"/>
			<point x="164" y="104"/>
			<point x="134" y="104" type="curve" smooth="yes"/>
			<point x="103" y="104"/>
			<point x="78" y="81"/>
			<point x="78" y="48" type="curve" smooth="yes"/>
			<point x="78" y="15"/>
			<point x="103" y="-7"/>
		</contour>
		<contour>
			<point x="134" y="685" type="curve" smooth="yes"/>
			<point x="101" y="685"/>
			<point x="83" y="667"/>
			<point x="83" y="622" type="curve" smooth="yes"/>
			<point x="83" y="585"/>
			<point x="96" y="489"/>
			<point x="109" y="350" type="curve" smooth="yes"/>
			<point x="122" y="215" type="line"/>
			<point x="145" y="215" type="line"/>
			<point x="159" y="350" type="line" smooth="yes"/>
			<point x="172" y="489"/>
			<point x="185" y="585"/>
			<point x="185" y="622" type="curve" smooth="yes"/>
			<point x="185" y="667"/>
			<point x="166" y="685"/>
		</contour>
	</outline>
</glyph>
<glyph name="f" format="2">
	<advance width="320"/>
	<outline>
		<contour>
			<point x="34" y="0" type="line"/>
			<point x="271" y="0" type="line"/>
			<point x="271" y="16" type="line"/>
			<point x="161" y="29" type="line"/>
			<point x="129" y="29" type="line"/>
			<point x="34" y="16" type="line"/>
		</contour>
		<contour>
			<point x="103" y="0" type="curve"/>
			<point x="183" y="0" type="line"/>
			<point x="180" y="46"/>
			<point x="179" y="148"/>
			<point x="179" y="212" type="curve" smooth="yes"/>
			<point x="179" y="444" type="line"/>
			<point x="174" y="569"/>
			<point x="193" y="645"/>
			<point x="222" y="692" type="curve" smooth="yes"/>
			<point x="245" y="726"/>
			<point x="270" y="732"/>
			<point x="292" y="733" type="curve"/>
			<point x="292" y="737" type="line"/>
			<point x="245" y="737" type="line"/>
			<point x="245" y="733" type="line"/>
			<point x="281" y="703" type="line" smooth="yes"/>
			<point x="307" y="680"/>
			<point x="324" y="671"/>
			<point x="348" y="671" type="curve" smooth="yes"/>
			<point x="374" y="671"/>
			<point x="395" y="685"/>
			<point x="397" y="708" type="curve"/>
			<point x="388" y="738"/>
			<point x="350" y="753"/>
			<point x="313" y="753" type="curve" smooth="yes"/>
			<point x="272" y="753"/>
			<point x="230" y="739"/>
			<point x="197" y="708" type="curve" smooth="yes"/>
			<point x="144" y="656"/>
			<point x="113" y="587"/>
			<point x="108" y="455" type="curve"/>
			<point x="107" y="430" type="line"/>
			<point x="127" y="461" type="line"/>
			<point x="30" y="444" type="line"/>
			<point x="30" y="428" type="line"/>
			<point x="107" y="428" type="line"/>
			<point x="107" y="212" type="line" smooth="yes"/>
			<point x="107" y="148"/>
			<point x="106" y="46"/>
		</contour>
		<contour>
			<point x="140" y="428" type="line"/>
			<point x="300" y="428" type="line"/>
			<point x="300" y="452" type="line"/>
			<point x="140" y="452" type="line"/>
		</contour>
	</outline>
	<anchor name="aboveLC" x="282" y="743"/>
	<anchor name="belowLC" x="148" y="-20"/>
</glyph>
<glyph name="f_i" format="2">
	<advance width="559"/>
	<outline>
		<contour>
			<point x="35" y="0" type="line"/>
			<point x="248" y="0" type="line"/>
			<point x="248" y="16" type="line"/>
			<point x="155" y="29" type="line"/>
			<point x="127" y="29" type="line"/>
			<point x="35" y="16" type="line"/>
		</contour>
		<contour>
			<point x="103" y="0" type="curve"/>
			<point x="183" y="0" type="line"/>
			<point x="180" y="46"/>
			<point x="179" y="148"/>
			<point x="179" y="212" type="curve" smooth="yes"/>
			<point x="179" y="444" type="line"/>
			<point x="178" y="529"/>
			<point x="186" y="615"/>
			<point x="222" y="670" type="curve" smooth="yes"/>
			<point x="249" y="711"/>
			<point x="292" y="737"/>
			<point x="358" y="737" type="curve"/>
			<point x="358" y="741" type="line"/>
			<point x="314" y="741" type="line"/>
			<point x="314" y="737" type="line"/>
			<point x="343" y="707" type="line" smooth="yes"/>
			<point x="368" y="680"/>
			<point x="384" y="670"/>
			<point x="407" y="670" type="curve" smooth="yes"/>
			<point x="434" y="670"/>
			<point x="451" y="684"/>
			<point x="453" y="708" type="curve"/>
			<point x="444" y="737"/>
			<point x="405" y="753"/>
			<point x="354" y="753" type="curve" smooth="yes"/>
			<point x="284" y="753"/>
			<point x="232" y="727"/>
			<point x="193" y="685" type="curve" smooth="yes"/>
			<point x="135" y="622"/>
			<point x="110" y="522"/>
			<point x="107" y="430" type="curve"/>
			<point x="127" y="461" type="line"/>
			<point x="30" y="444" type="line"/>
			<point x="30" y="428" type="line"/>
			<point x="107" y="428" type="line"/>
			<point x="107" y="212" type="line" smooth="yes"/>
			<point x="107" y="148"/>
			<point x="106" y="46"/>
		</contour>
		<contour>
			<point x="320" y="0" type="line"/>
			<point x="532" y="0" type="line"/>
			<point x="532" y="16" type="line"/>
			<point x="437" y="29" type="line"/>
			<point x="415" y="29" type="line"/>
			<point x="320" y="16" type="line"/>
		</contour>
		<contour>
			<point x="387" y="0" type="curve"/>
			<point x="469" y="0" type="line"/>
			<point x="466" y="46"/>
			<point x="465" y="148"/>
			<point x="465" y="212" type="curve" smooth="yes"/>
			<point x="465" y="330" type="line"/>
			<point x="469" y="456" type="line"/>
			<point x="459" y="465" type="line"/>
			<point x="420" y="452" type="line"/>
			<point x="140" y="452" type="line"/>
			<point x="140" y="428" type="line"/>
			<point x="388" y="428" type="line"/>
			<point x="390" y="387"/>
			<point x="391" y="313"/>
			<point x="391" y="257" type="curve" smooth="yes"/>
			<point x="391" y="212" type="line" smooth="yes"/>
			<point x="391" y="148"/>
			<point x="390" y="46"/>
		</contour>
	</outline>
</glyph>
<glyph name="f_l" format="2">
	<advance width="561"/>
	<outline>
		<contour>
			<point x="35" y="0" type="line"/>
			<point x="248" y="0" type="line"/>
			<point x="248" y="16" type="line"/>
			<point x="155" y="29" type="line"/>
			<point x="127" y="29" type="line"/>
			<point x="35" y="16" type="line"/>
		</contour>
		<contour>
			<point x="103" y="0" type="curve"/>
			<point x="183" y="0" type="line"/>
			<point x="180" y="46"/>
			<point x="179" y="148"/>
			<point x="179" y="212" type="curve" smooth="yes"/>
			<point x="179" y="444" type="line"/>
			<point x="176" y="537"/>
			<point x="188" y="654"/>
			<point x="249" y="708" type="curve" smooth="yes"/>
			<point x="268" y="725"/>
			<point x="287" y="731"/>
			<point x="322" y="732" type="curve"/>
			<point x="322" y="737" type="line"/>
			<point x="267" y="737" type="line"/>
			<point x="267" y="730" type="line"/>
			<point x="299" y="703" type="line" smooth="yes"/>
			<point x="326" y="679"/>
			<point x="342" y="671"/>
			<point x="366" y="671" type="curve" smooth="yes"/>
			<point x="392" y="671"/>
			<point x="413" y="685"/>
			<point x="415" y="708" type="curve"/>
			<point x="406" y="738"/>
			<point x="365" y="753"/>
			<point x="328" y="753" type="curve" smooth="yes"/>
			<point x="286" y="753"/>
			<point x="245" y="744"/>
			<point x="208" y="712" type="curve" smooth="yes"/>
			<point x="154" y="664"/>
			<point x="111" y="578"/>
			<point x="107" y="430" type="curve"/>
			<point x="127" y="461" type="line"/>
			<point x="30" y="444" type="line"/>
			<point x="30" y="428" type="line"/>
			<point x="107" y="428" type="line"/>
			<point x="107" y="212" type="line" smooth="yes"/>
			<point x="107" y="148"/>
			<point x="106" y="46"/>
		</contour>
		<contour>
			<point x="140" y="428" type="line"/>
			<point x="299" y="428" type="line"/>
			<point x="299" y="452" type="line"/>
			<point x="140" y="452" type="line"/>
		</contour>
		<contour>
			<point x="322" y="0" type="line"/>
			<point x="533" y="0" type="line"/>
			<point x="533" y="16" type="line"/>
			<point x="439" y="29" type="line"/>
			<point x="416" y="29" type="line"/>
			<point x="322" y="16" type="line"/>
		</contour>
		<contour>
			<point x="389" y="0" type="curve"/>
			<point x="470" y="0" type="line"/>
			<point x="466" y="46"/>
			<point x="465" y="148"/>
			<point x="465" y="212" type="curve" smooth="yes"/>
			<point x="465" y="538" type="line"/>
			<point x="469" y="735" type="line"/>
			<point x="461" y="743" type="line"/>
			<point x="393" y="726" type="line"/>
			<point x="393" y="212" type="line" smooth="yes"/>
			<point x="393" y="148"/>
			<point x="392" y="46"/>
		</contour>
	</outline>
</glyph>
<glyph name="f_t" format="2">
	<advance width="587"/>
	<outline>
		<contour>
			<point x="408" y="428" type="line"/>
			<point x="563" y="428" type="line"/>
			<point x="563" y="452" type="line"/>
			<point x="408" y="452" type="line"/>
		</contour>
		<contour>
			<point x="472" y="-12" type="curve" smooth="yes"/>
			<point x="525" y="-12"/>
			<point x="554" y="11"/>
			<point x="575" y="50" type="curve"/>
			<point x="564" y="59" type="line"/>
			<point x="545" y="39"/>
			<point x="523" y="27"/>
			<point x="496" y="27" type="curve" smooth="yes"/>
			<point x="462" y="27"/>
			<point x="440" y="46"/>
			<point x="440" y="98" type="curve" smooth="yes"/>
			<point x="440" y="436" type="line"/>
			<point x="440" y="440" type="line"/>
			<point x="444" y="604" type="line"/>
			<point x="421" y="604" type="line"/>
			<point x="368" y="440" type="line"/>
			<point x="403" y="452" type="line"/>
			<point x="276" y="452" type="line"/>
			<point x="276" y="428" type="line"/>
			<point x="369" y="428" type="line"/>
			<point x="367" y="201" type="line" smooth="yes"/>
			<point x="367" y="155"/>
			<point x="367" y="128"/>
			<point x="367" y="91" type="curve" smooth="yes"/>
			<point x="367" y="22"/>
			<point x="407" y="-12"/>
		</contour>
		<component base="f"/>
	</outline>
</glyph>
<glyph name="five.cap" format="2">
	<advance width="478"/>
	<outline>
		<contour>
			<point x="213" y="-12" type="curve" smooth="yes"/>
			<point x="346" y="-12"/>
			<point x="435" y="76"/>
			<point x="435" y="205" type="curve" smooth="yes"/>
			<point x="435" y="330"/>
			<point x="352" y="399"/>
			<point x="231" y="399" type="curve" smooth="yes"/>
			<point x="183" y="399"/>
			<point x="140" y="391"/>
			<point x="95" y="370" type="curve"/>
			<point x="110" y="359" type="line"/>
			<point x="128" y="633" type="line"/>
			<point x="119" y="601" type="line"/>
			<point x="420" y="601" type="line"/>
			<point x="420" y="669" type="line"/>
			<point x="108" y="669" type="line"/>
			<point x="88" y="355" type="line"/>
			<point x="101" y="346" type="line"/>
			<point x="138" y="365"/>
			<point x="175" y="370"/>
			<point x="208" y="370" type="curve" smooth="yes"/>
			<point x="306" y="370"/>
			<point x="356" y="290"/>
			<point x="356" y="204" type="curve" smooth="yes"/>
			<point x="356" y="104"/>
			<point x="306" y="9"/>
			<point x="207" y="9" type="curve" smooth="yes"/>
			<point x="179" y="9"/>
			<point x="147" y="13"/>
			<point x="115" y="33" type="curve"/>
			<point x="148" y="4" type="line"/>
			<point x="127" y="89" type="line" smooth="yes"/>
			<point x="117" y="132"/>
			<point x="104" y="151"/>
			<point x="79" y="151" type="curve" smooth="yes"/>
			<point x="60" y="151"/>
			<point x="46" y="143"/>
			<point x="39" y="122" type="curve"/>
			<point x="51" y="33"/>
			<point x="116" y="-12"/>
		</contour>
	</outline>
</glyph>
<glyph name="five.lf" format="2">
	<advance width="478"/>
	<outline>
		<contour>
			<point x="213" y="-12" type="curve" smooth="yes"/>
			<point x="346" y="-12"/>
			<point x="435" y="70"/>
			<point x="435" y="192" type="curve" smooth="yes"/>
			<point x="435" y="317"/>
			<point x="352" y="385"/>
			<point x="231" y="385" type="curve" smooth="yes"/>
			<point x="182" y="385"/>
			<point x="140" y="378"/>
			<point x="95" y="357" type="curve"/>
			<point x="110" y="346" type="line"/>
			<point x="128" y="610" type="line"/>
			<point x="119" y="578" type="line"/>
			<point x="420" y="578" type="line"/>
			<point x="420" y="646" type="line"/>
			<point x="108" y="646" type="line"/>
			<point x="88" y="341" type="line"/>
			<point x="101" y="333" type="line"/>
			<point x="138" y="352"/>
			<point x="175" y="357"/>
			<point x="208" y="357" type="curve" smooth="yes"/>
			<point x="306" y="357"/>
			<point x="356" y="277"/>
			<point x="356" y="191" type="curve" smooth="yes"/>
			<point x="356" y="97"/>
			<point x="306" y="9"/>
			<point x="207" y="9" type="curve" smooth="yes"/>
			<point x="179" y="9"/>
			<point x="147" y="13"/>
			<point x="115" y="33" type="curve"/>
			<point x="148" y="4" type="line"/>
			<point x="127" y="89" type="line" smooth="yes"/>
			<point x="117" y="132"/>
			<point x="104" y="151"/>
			<point x="79" y="151" type="curve" smooth="yes"/>
			<point x="60" y="151"/>
			<point x="46" y="143"/>
			<point x="39" y="122" type="curve"/>
			<point x="51" y="33"/>
			<point x="116" y="-12"/>
		</contour>
	</outline>
</glyph>
<glyph name="four.cap" format="2">
	<advance width="477"/>
	<outline>
		<contour>
			<point x="284" y="-15" type="line"/>
			<point x="355" y="-15" type="line"/>
			<point x="355" y="680" type="line"/>
			<point x="304" y="680" type="line"/>
			<point x="28" y="229" type="line"/>
			<point x="28" y="172" type="line"/>
			<point x="453" y="172" type="line"/>
			<point x="453" y="237" type="line"/>
			<point x="54" y="237" type="line"/>
			<point x="54" y="247" type="line"/>
			<point x="47" y="219" type="line"/>
			<point x="170" y="424" type="line"/>
			<point x="292" y="627" type="line"/>
			<point x="274" y="621" type="line"/>
			<point x="284" y="621" type="line"/>
			<point x="284" y="219" type="line"/>
			<point x="284" y="199" type="line"/>
		</contour>
	</outline>
</glyph>
<glyph name="four.lf" format="2">
	<advance width="477"/>
	<outline>
		<contour>
			<point x="284" y="-15" type="line"/>
			<point x="355" y="-15" type="line"/>
			<point x="355" y="653" type="line"/>
			<point x="304" y="653" type="line"/>
			<point x="28" y="217" type="line"/>
			<point x="28" y="160" type="line"/>
			<point x="453" y="160" type="line"/>
			<point x="453" y="226" type="line"/>
			<point x="54" y="226" type="line"/>
			<point x="54" y="236" type="line"/>
			<point x="46" y="205" type="line"/>
			<point x="170" y="403" type="line"/>
			<point x="293" y="601" type="line"/>
			<point x="272" y="593" type="line"/>
			<point x="284" y="593" type="line"/>
			<point x="284" y="201" type="line"/>
			<point x="284" y="182" type="line"/>
		</contour>
	</outline>
</glyph>
<glyph name="g" format="2">
	<advance width="479"/>
	<outline>
		<contour>
			<point x="212" y="-258" type="curve" smooth="yes"/>
			<point x="372" y="-258"/>
			<point x="451" y="-171"/>
			<point x="451" y="-79" type="curve" smooth="yes"/>
			<point x="451" y="5"/>
			<point x="399" y="43"/>
			<point x="298" y="43" type="curve" smooth="yes"/>
			<point x="174" y="43" type="line" smooth="yes"/>
			<point x="124" y="43"/>
			<point x="102" y="59"/>
			<point x="102" y="93" type="curve" smooth="yes"/>
			<point x="102" y="117"/>
			<point x="110" y="140"/>
			<point x="138" y="166" type="curve"/>
			<point x="125" y="183" type="line"/>
			<point x="125" y="176" type="line"/>
			<point x="73" y="135"/>
			<point x="48" y="104"/>
			<point x="48" y="61" type="curve" smooth="yes"/>
			<point x="48" y="13"/>
			<point x="82" y="-17"/>
			<point x="132" y="-21" type="curve"/>
			<point x="133" y="-23" type="line"/>
			<point x="146" y="-27"/>
			<point x="165" y="-27"/>
			<point x="176" y="-27" type="curve" smooth="yes"/>
			<point x="284" y="-27" type="line" smooth="yes"/>
			<point x="355" y="-27"/>
			<point x="386" y="-56"/>
			<point x="386" y="-107" type="curve" smooth="yes"/>
			<point x="386" y="-178"/>
			<point x="329" y="-238"/>
			<point x="222" y="-238" type="curve" smooth="yes"/>
			<point x="144" y="-238"/>
			<point x="91" y="-199"/>
			<point x="91" y="-126" type="curve" smooth="yes"/>
			<point x="91" y="-63"/>
			<point x="127" y="-37"/>
			<point x="156" y="-15" type="curve"/>
			<point x="152" y="-9" type="line"/>
			<point x="72" y="-43"/>
			<point x="26" y="-83"/>
			<point x="26" y="-136" type="curve" smooth="yes"/>
			<point x="26" y="-209"/>
			<point x="81" y="-258"/>
		</contour>
		<contour>
			<point x="221" y="142" type="curve" smooth="yes"/>
			<point x="307" y="142"/>
			<point x="387" y="200"/>
			<point x="387" y="305" type="curve" smooth="yes"/>
			<point x="387" y="348"/>
			<point x="376" y="381"/>
			<point x="354" y="407" type="curve"/>
			<point x="350" y="411" type="line"/>
			<point x="319" y="447"/>
			<point x="272" y="465"/>
			<point x="221" y="465" type="curve" smooth="yes"/>
			<point x="135" y="465"/>
			<point x="54" y="407"/>
			<point x="54" y="302" type="curve" smooth="yes"/>
			<point x="54" y="196"/>
			<point x="135" y="142"/>
		</contour>
		<contour>
			<point x="221" y="162" type="curve" smooth="yes"/>
			<point x="164" y="162"/>
			<point x="127" y="208"/>
			<point x="127" y="302" type="curve" smooth="yes"/>
			<point x="127" y="394"/>
			<point x="164" y="444"/>
			<point x="221" y="444" type="curve" smooth="yes"/>
			<point x="277" y="444"/>
			<point x="315" y="398"/>
			<point x="315" y="305" type="curve" smooth="yes"/>
			<point x="315" y="212"/>
			<point x="277" y="162"/>
		</contour>
		<contour>
			<point x="337" y="394" type="line"/>
			<point x="457" y="394" type="line"/>
			<point x="457" y="457" type="line"/>
			<point x="449" y="465" type="line"/>
			<point x="339" y="411" type="line"/>
			<point x="335" y="411" type="line"/>
		</contour>
	</outline>
	<anchor name="aboveLC" x="235" y="472"/>
	<anchor name="belowLC" x="234" y="-277"/>
</glyph>
<glyph name="germandbls" format="2">
	<advance width="579"/>
	<outline>
		<contour>
			<point x="30" y="0" type="line"/>
			<point x="139" y="0" type="line"/>
			<point x="139" y="29" type="line"/>
			<point x="126" y="29" type="line"/>
			<point x="30" y="16" type="line"/>
		</contour>
		<contour>
			<point x="101" y="0" type="curve"/>
			<point x="177" y="0" type="line"/>
			<point x="176" y="70"/>
			<point x="175" y="142"/>
			<point x="175" y="212" type="curve" smooth="yes"/>
			<point x="175" y="462" type="line" smooth="yes"/>
			<point x="175" y="583"/>
			<point x="193" y="659"/>
			<point x="233" y="698" type="curve" smooth="yes"/>
			<point x="257" y="722"/>
			<point x="289" y="733"/>
			<point x="327" y="733" type="curve" smooth="yes"/>
			<point x="384" y="733"/>
			<point x="428" y="694"/>
			<point x="428" y="621" type="curve" smooth="yes"/>
			<point x="428" y="571"/>
			<point x="406" y="541"/>
			<point x="379" y="513" type="curve" smooth="yes"/>
			<point x="338" y="471"/>
			<point x="286" y="431"/>
			<point x="286" y="362" type="curve" smooth="yes"/>
			<point x="286" y="298"/>
			<point x="334" y="265"/>
			<point x="381" y="232" type="curve" smooth="yes"/>
			<point x="429" y="199"/>
			<point x="474" y="167"/>
			<point x="474" y="110" type="curve" smooth="yes"/>
			<point x="474" y="42"/>
			<point x="430" y="7"/>
			<point x="368" y="7" type="curve" smooth="yes"/>
			<point x="342" y="7"/>
			<point x="306" y="12"/>
			<point x="261" y="39" type="curve"/>
			<point x="303" y="10" type="line"/>
			<point x="261" y="145" type="line"/>
			<point x="247" y="145" type="line"/>
			<point x="241" y="20" type="line"/>
			<point x="283" y="-1"/>
			<point x="329" y="-12"/>
			<point x="369" y="-12" type="curve" smooth="yes"/>
			<point x="472" y="-12"/>
			<point x="539" y="44"/>
			<point x="539" y="131" type="curve" smooth="yes"/>
			<point x="539" y="212"/>
			<point x="479" y="253"/>
			<point x="425" y="292" type="curve" smooth="yes"/>
			<point x="382" y="321"/>
			<point x="343" y="348"/>
			<point x="343" y="393" type="curve" smooth="yes"/>
			<point x="343" y="438"/>
			<point x="375" y="469"/>
			<point x="410" y="499" type="curve" smooth="yes"/>
			<point x="449" y="532"/>
			<point x="491" y="569"/>
			<point x="491" y="626" type="curve" smooth="yes"/>
			<point x="491" y="699"/>
			<point x="435" y="753"/>
			<point x="331" y="753" type="curve" smooth="yes"/>
			<point x="285" y="753"/>
			<point x="243" y="741"/>
			<point x="209" y="718" type="curve" smooth="yes"/>
			<point x="141" y="671"/>
			<point x="103" y="578"/>
			<point x="103" y="461" type="curve" smooth="yes"/>
			<point x="103" y="212" type="line" smooth="yes"/>
			<point x="103" y="142"/>
			<point x="102" y="70"/>
		</contour>
	</outline>
</glyph>
<glyph name="gscript" format="2">
	<advance width="515"/>
	<outline>
		<contour>
			<point x="222" y="-258" type="curve" smooth="yes"/>
			<point x="275" y="-258"/>
			<point x="328" y="-242"/>
			<point x="366" y="-205" type="curve" smooth="yes"/>
			<point x="408" y="-166"/>
			<point x="435" y="-105"/>
			<point x="435" y="-16" type="curve"/>
			<point x="435" y="256" type="line"/>
			<point x="439" y="457" type="line"/>
			<point x="429" y="462" type="line"/>
			<point x="363" y="384" type="line"/>
			<point x="363" y="381" type="line"/>
			<point x="363" y="88" type="line"/>
			<point x="363" y="84" type="line"/>
			<point x="363" y="45"/>
			<point x="363" y="6"/>
			<point x="363" y="-33" type="curve" smooth="yes"/>
			<point x="363" y="-99"/>
			<point x="351" y="-150"/>
			<point x="325" y="-185" type="curve" smooth="yes"/>
			<point x="301" y="-218"/>
			<point x="267" y="-236"/>
			<point x="220" y="-236" type="curve" smooth="yes"/>
			<point x="185" y="-236"/>
			<point x="156" y="-227"/>
			<point x="131" y="-210" type="curve"/>
			<point x="157" y="-236" type="line"/>
			<point x="139" y="-156" type="line" smooth="yes"/>
			<point x="133" y="-126"/>
			<point x="115" y="-111"/>
			<point x="92" y="-111" type="curve" smooth="yes"/>
			<point x="69" y="-111"/>
			<point x="58" y="-123"/>
			<point x="56" y="-147" type="curve"/>
			<point x="66" y="-211"/>
			<point x="139" y="-258"/>
		</contour>
		<contour>
			<point x="223" y="-12" type="curve" smooth="yes"/>
			<point x="291" y="-12"/>
			<point x="342" y="33"/>
			<point x="372" y="89" type="curve"/>
			<point x="385" y="89" type="line"/>
			<point x="379" y="118" type="line"/>
			<point x="343" y="64"/>
			<point x="302" y="27"/>
			<point x="250" y="27" type="curve" smooth="yes"/>
			<point x="174" y="27"/>
			<point x="120" y="87"/>
			<point x="120" y="220" type="curve" smooth="yes"/>
			<point x="120" y="358"/>
			<point x="178" y="424"/>
			<point x="250" y="424" type="curve" smooth="yes"/>
			<point x="303" y="424"/>
			<point x="334" y="405"/>
			<point x="383" y="347" type="curve"/>
			<point x="390" y="372" type="line"/>
			<point x="376" y="372" type="line"/>
			<point x="339" y="439"/>
			<point x="290" y="465"/>
			<point x="236" y="465" type="curve" smooth="yes"/>
			<point x="132" y="465"/>
			<point x="43" y="374"/>
			<point x="43" y="216" type="curve" smooth="yes"/>
			<point x="43" y="64"/>
			<point x="125" y="-12"/>
		</contour>
	</outline>
	<anchor name="aboveLC" x="257" y="472"/>
	<anchor name="belowLC" x="246" y="-278"/>
</glyph>
<glyph name="guilsinglleft" format="2">
	<advance width="262"/>
	<outline>
		<contour>
			<point x="229" y="37" type="line"/>
			<point x="241" y="49" type="line"/>
			<point x="73" y="260" type="line"/>
			<point x="73" y="218" type="line"/>
			<point x="241" y="428" type="line"/>
			<point x="229" y="440" type="line"/>
			<point x="28" y="254" type="line"/>
			<point x="28" y="222" type="line"/>
		</contour>
	</outline>
</glyph>
<glyph name="hbar" format="2">
	<advance width="559"/>
	<outline>
		<contour>
			<point x="103" y="0" type="curve"/>
			<point x="183" y="0" type="line"/>
			<point x="180" y="46"/>
			<point x="179" y="148"/>
			<point x="179" y="212" type="curve" smooth="yes"/>
			<point x="179" y="337" type="line"/>
			<point x="179" y="342" type="line"/>
			<point x="179" y="538" type="line"/>
			<point x="183" y="735" type="line"/>
			<point x="174" y="743" type="line"/>
			<point x="30" y="706" type="line"/>
			<point x="30" y="692" type="line"/>
			<point x="107" y="675" type="line"/>
			<point x="107" y="212" type="line" smooth="yes"/>
			<point x="107" y="148"/>
			<point x="106" y="46"/>
		</contour>
		<contour>
			<point x="34" y="0" type="line"/>
			<point x="247" y="0" type="line"/>
			<point x="247" y="16" type="line"/>
			<point x="153" y="29" type="line"/>
			<point x="129" y="29" type="line"/>
			<point x="34" y="16" type="line"/>
		</contour>
		<contour>
			<point x="320" y="0" type="line"/>
			<point x="532" y="0" type="line"/>
			<point x="532" y="16" type="line"/>
			<point x="437" y="29" type="line"/>
			<point x="415" y="29" type="line"/>
			<point x="320" y="16" type="line"/>
		</contour>
		<contour>
			<point x="30" y="554" type="line"/>
			<point x="362" y="554" type="line"/>
			<point x="362" y="577" type="line"/>
			<point x="30" y="577" type="line"/>
		</contour>
		<contour>
			<point x="387" y="0" type="curve"/>
			<point x="469" y="0" type="line"/>
			<point x="466" y="46"/>
			<point x="465" y="148"/>
			<point x="465" y="212" type="curve" smooth="yes"/>
			<point x="465" y="290" type="line" smooth="yes"/>
			<point x="465" y="406"/>
			<point x="423" y="449"/>
			<point x="347" y="449" type="curve" smooth="yes"/>
			<point x="274" y="449"/>
			<point x="208" y="394"/>
			<point x="167" y="340" type="curve"/>
			<point x="163" y="340" type="line"/>
			<point x="171" y="325" type="line"/>
			<point x="220" y="371"/>
			<point x="264" y="397"/>
			<point x="312" y="397" type="curve" smooth="yes"/>
			<point x="369" y="397"/>
			<point x="391" y="375"/>
			<point x="391" y="290" type="curve" smooth="yes"/>
			<point x="391" y="212" type="line" smooth="yes"/>
			<point x="391" y="148"/>
			<point x="390" y="46"/>
		</contour>
	</outline>
</glyph>
<glyph name="j" format="2">
	<advance width="263"/>
	<outline>
		<contour>
			<point x="24" y="-258" type="curve" smooth="yes"/>
			<point x="64" y="-258"/>
			<point x="97" y="-243"/>
			<point x="127" y="-212" type="curve" smooth="yes"/>
			<point x="169" y="-166"/>
			<point x="179" y="-102"/>
			<point x="179" y="33" type="curve" smooth="yes"/>
			<point x="179" y="330" type="line"/>
			<point x="183" y="456" type="line"/>
			<point x="174" y="465" type="line"/>
			<point x="30" y="420" type="line"/>
			<point x="30" y="406" type="line"/>
			<point x="104" y="389" type="line"/>
			<point x="106" y="347"/>
			<point x="107" y="314"/>
			<point x="107" y="257" type="curve" smooth="yes"/>
			<point x="107" y="39" type="line" smooth="yes"/>
			<point x="107" y="-85"/>
			<point x="110" y="-162"/>
			<point x="88" y="-211" type="curve" smooth="yes"/>
			<point x="81" y="-225"/>
			<point x="76" y="-231"/>
			<point x="67" y="-235" type="curve"/>
			<point x="67" y="-241" type="line"/>
			<point x="85" y="-241" type="line"/>
			<point x="85" y="-234" type="line"/>
			<point x="53" y="-204" type="line" smooth="yes"/>
			<point x="36" y="-185"/>
			<point x="17" y="-178"/>
			<point x="-6" y="-178" type="curve" smooth="yes"/>
			<point x="-32" y="-178"/>
			<point x="-54" y="-191"/>
			<point x="-56" y="-215" type="curve"/>
			<point x="-47" y="-243"/>
			<point x="-17" y="-258"/>
		</contour>
		<contour>
			<point x="142" y="567" type="curve" smooth="yes"/>
			<point x="172" y="567"/>
			<point x="196" y="588"/>
			<point x="196" y="622" type="curve" smooth="yes"/>
			<point x="196" y="654"/>
			<point x="172" y="675"/>
			<point x="142" y="675" type="curve" smooth="yes"/>
			<point x="112" y="675"/>
			<point x="88" y="654"/>
			<point x="88" y="622" type="curve" smooth="yes"/>
			<point x="88" y="588"/>
			<point x="112" y="567"/>
		</contour>
	</outline>
	<anchor name="aboveLC" x="141" y="675"/>
	<anchor name="belowLC" x="80" y="-268"/>
</glyph>
<glyph name="k" format="2">
	<advance width="509"/>
	<outline>
		<contour>
			<point x="34" y="0" type="line"/>
			<point x="247" y="0" type="line"/>
			<point x="247" y="16" type="line"/>
			<point x="153" y="29" type="line"/>
			<point x="129" y="29" type="line"/>
			<point x="34" y="16" type="line"/>
		</contour>
		<contour>
			<point x="103" y="0" type="curve"/>
			<point x="183" y="0" type="line"/>
			<point x="180" y="46"/>
			<point x="179" y="148"/>
			<point x="179" y="212" type="curve" smooth="yes"/>
			<point x="179" y="538" type="line"/>
			<point x="183" y="735" type="line"/>
			<point x="174" y="743" type="line"/>
			<point x="30" y="706" type="line"/>
			<point x="30" y="692" type="line"/>
			<point x="107" y="675" type="line"/>
			<point x="107" y="212" type="line" smooth="yes"/>
			<point x="107" y="148"/>
			<point x="106" y="46"/>
		</contour>
		<contour>
			<point x="144" y="139" type="line"/>
			<point x="429" y="452" type="line"/>
			<point x="395" y="452" type="line"/>
			<point x="273" y="316" type="line"/>
			<point x="150" y="178" type="line"/>
			<point x="144" y="178" type="line"/>
		</contour>
		<contour>
			<point x="376" y="0" type="line"/>
			<point x="503" y="0" type="line"/>
			<point x="503" y="16" type="line"/>
			<point x="448" y="25" type="line"/>
			<point x="284" y="302" type="line"/>
			<point x="230" y="252" type="line"/>
		</contour>
		<contour>
			<point x="283" y="436" type="line"/>
			<point x="378" y="424" type="line"/>
			<point x="395" y="424" type="line"/>
			<point x="479" y="436" type="line"/>
			<point x="479" y="452" type="line"/>
			<point x="283" y="452" type="line"/>
		</contour>
	</outline>
	<anchor name="aboveLC" x="148" y="743"/>
	<anchor name="belowLC" x="276" y="-20"/>
</glyph>
<glyph name="kgreenlandic" format="2">
	<advance width="509"/>
	<outline>
		<contour>
			<point x="34" y="0" type="line"/>
			<point x="247" y="0" type="line"/>
			<point x="247" y="16" type="line"/>
			<point x="153" y="29" type="line"/>
			<point x="129" y="29" type="line"/>
			<point x="34" y="16" type="line"/>
		</contour>
		<contour>
			<point x="103" y="0" type="curve"/>
			<point x="183" y="0" type="line"/>
			<point x="180" y="46"/>
			<point x="179" y="148"/>
			<point x="179" y="212" type="curve" smooth="yes"/>
			<point x="179" y="330" type="line"/>
			<point x="183" y="456" type="line"/>
			<point x="174" y="465" type="line"/>
			<point x="30" y="420" type="line"/>
			<point x="30" y="406" type="line"/>
			<point x="104" y="389" type="line"/>
			<point x="106" y="347"/>
			<point x="107" y="313"/>
			<point x="107" y="257" type="curve" smooth="yes"/>
			<point x="107" y="212" type="line" smooth="yes"/>
			<point x="107" y="148"/>
			<point x="106" y="46"/>
		</contour>
		<contour>
			<point x="144" y="139" type="line"/>
			<point x="429" y="452" type="line"/>
			<point x="395" y="452" type="line"/>
			<point x="273" y="316" type="line"/>
			<point x="150" y="178" type="line"/>
			<point x="144" y="178" type="line"/>
		</contour>
		<contour>
			<point x="376" y="0" type="line"/>
			<point x="503" y="0" type="line"/>
			<point x="503" y="16" type="line"/>
			<point x="418" y="29" type="line"/>
			<point x="455" y="14" type="line"/>
			<point x="284" y="302" type="line"/>
			<point x="230" y="252" type="line"/>
		</contour>
		<contour>
			<point x="378" y="424" type="line"/>
			<point x="395" y="424" type="line"/>
			<point x="479" y="436" type="line"/>
			<point x="479" y="452" type="line"/>
			<point x="283" y="452" type="line"/>
			<point x="283" y="436" type="line"/>
		</contour>
	</outline>
</glyph>
<glyph name="l" format="2">
	<advance width="274"/>
	<outline>
		<contour>
			<point x="34" y="0" type="line"/>
			<point x="247" y="0" type="line"/>
			<point x="247" y="16" type="line"/>
			<point x="153" y="29" type="line"/>
			<point x="129" y="29" type="line"/>
			<point x="34" y="16" type="line"/>
		</contour>
		<contour>
			<point x="103" y="0" type="curve"/>
			<point x="183" y="0" type="line"/>
			<point x="180" y="46"/>
			<point x="179" y="148"/>
			<point x="179" y="212" type="curve" smooth="yes"/>
			<point x="179" y="560" type="line"/>
			<point x="183" y="735" type="line"/>
			<point x="174" y="743" type="line"/>
			<point x="30" y="706" type="line"/>
			<point x="30" y="692" type="line"/>
			<point x="107" y="675" type="line"/>
			<point x="107" y="212" type="line" smooth="yes"/>
			<point x="107" y="148"/>
			<point x="106" y="46"/>
		</contour>
	</outline>
	<anchor name="aboveLC" x="139" y="743"/>
	<anchor name="belowLC" x="139" y="-20"/>
</glyph>
<glyph name="longs" format="2">
	<advance width="320"/>
	<outline>
		<contour>
			<point x="34" y="0" type="line"/>
			<point x="271" y="0" type="line"/>
			<point x="271" y="16" type="line"/>
			<point x="161" y="29" type="line"/>
			<point x="129" y="29" type="line"/>
			<point x="34" y="16" type="line"/>
		</contour>
		<contour>
			<point x="104" y="0" type="curve"/>
			<point x="181" y="0" type="line"/>
			<point x="180" y="46"/>
			<point x="179" y="148"/>
			<point x="179" y="212" type="curve" smooth="yes"/>
			<point x="179" y="444" type="line" smooth="yes"/>
			<point x="179" y="588"/>
			<point x="192" y="658"/>
			<point x="229" y="701" type="curve" smooth="yes"/>
			<point x="247" y="722"/>
			<point x="276" y="732"/>
			<point x="292" y="733" type="curve"/>
			<point x="277" y="738" type="line"/>
			<point x="256" y="738" type="line"/>
			<point x="244" y="733" type="line"/>
			<point x="281" y="703" type="line" smooth="yes"/>
			<point x="307" y="680"/>
			<point x="324" y="671"/>
			<point x="348" y="671" type="curve" smooth="yes"/>
			<point x="374" y="671"/>
			<point x="395" y="685"/>
			<point x="397" y="708" type="curve"/>
			<point x="388" y="737"/>
			<point x="350" y="753"/>
			<point x="313" y="753" type="curve" smooth="yes"/>
			<point x="272" y="753"/>
			<point x="229" y="739"/>
			<point x="193" y="704" type="curve" smooth="yes"/>
			<point x="146" y="655"/>
			<point x="107" y="587"/>
			<point x="107" y="430" type="curve" smooth="yes"/>
			<point x="107" y="212" type="line" smooth="yes"/>
			<point x="107" y="148"/>
			<point x="106" y="46"/>
		</contour>
	</outline>
</glyph>
<glyph name="lslash" format="2">
	<advance width="274"/>
	<outline>
		<contour>
			<point x="147" y="392" type="line"/>
			<point x="31" y="331" type="line"/>
			<point x="31" y="307" type="line"/>
			<point x="147" y="368" type="line"/>
		</contour>
		<contour>
			<point x="251" y="438" type="line"/>
			<point x="135" y="377" type="line"/>
			<point x="135" y="355" type="line"/>
			<point x="251" y="416" type="line"/>
		</contour>
		<component base="l"/>
	</outline>
</glyph>
<glyph name="m" format="2">
	<advance width="838"/>
	<outline>
		<contour>
			<point x="34" y="0" type="line"/>
			<point x="247" y="0" type="line"/>
			<point x="247" y="16" type="line"/>
			<point x="153" y="29" type="line"/>
			<point x="129" y="29" type="line"/>
			<point x="34" y="16" type="line"/>
		</contour>
		<contour>
			<point x="103" y="0" type="curve"/>
			<point x="183" y="0" type="line"/>
			<point x="180" y="46"/>
			<point x="179" y="148"/>
			<point x="179" y="212" type="curve" smooth="yes"/>
			<point x="179" y="357" type="line"/>
			<point x="179" y="362" type="line"/>
			<point x="179" y="456" type="line"/>
			<point x="170" y="465" type="line"/>
			<point x="30" y="420" type="line"/>
			<point x="30" y="406" type="line"/>
			<point x="104" y="389" type="line"/>
			<point x="106" y="347"/>
			<point x="107" y="313"/>
			<point x="107" y="257" type="curve" smooth="yes"/>
			<point x="107" y="212" type="line" smooth="yes"/>
			<point x="107" y="148"/>
			<point x="106" y="46"/>
		</contour>
		<contour>
			<point x="317" y="0" type="line"/>
			<point x="528" y="0" type="line"/>
			<point x="528" y="16" type="line"/>
			<point x="434" y="29" type="line"/>
			<point x="411" y="29" type="line"/>
			<point x="317" y="16" type="line"/>
		</contour>
		<contour>
			<point x="384" y="0" type="curve"/>
			<point x="465" y="0" type="line"/>
			<point x="462" y="46"/>
			<point x="461" y="148"/>
			<point x="461" y="212" type="curve" smooth="yes"/>
			<point x="461" y="306" type="line" smooth="yes"/>
			<point x="461" y="422"/>
			<point x="421" y="465"/>
			<point x="345" y="465" type="curve" smooth="yes"/>
			<point x="272" y="465"/>
			<point x="208" y="410"/>
			<point x="167" y="356" type="curve"/>
			<point x="163" y="356" type="line"/>
			<point x="171" y="341" type="line"/>
			<point x="220" y="387"/>
			<point x="262" y="413"/>
			<point x="310" y="413" type="curve" smooth="yes"/>
			<point x="367" y="413"/>
			<point x="389" y="391"/>
			<point x="389" y="306" type="curve" smooth="yes"/>
			<point x="389" y="212" type="line" smooth="yes"/>
			<point x="389" y="148"/>
			<point x="388" y="46"/>
		</contour>
		<contour>
			<point x="598" y="0" type="line"/>
			<point x="810" y="0" type="line"/>
			<point x="810" y="16" type="line"/>
			<point x="715" y="29" type="line"/>
			<point x="693" y="29" type="line"/>
			<point x="598" y="16" type="line"/>
		</contour>
		<contour>
			<point x="665" y="0" type="curve"/>
			<point x="747" y="0" type="line"/>
			<point x="744" y="46"/>
			<point x="743" y="148"/>
			<point x="743" y="212" type="curve" smooth="yes"/>
			<point x="743" y="306" type="line" smooth="yes"/>
			<point x="743" y="422"/>
			<point x="703" y="465"/>
			<point x="627" y="465" type="curve" smooth="yes"/>
			<point x="554" y="465"/>
			<point x="489" y="410"/>
			<point x="448" y="356" type="curve"/>
			<point x="444" y="356" type="line"/>
			<point x="452" y="340" type="line"/>
			<point x="502" y="387"/>
			<point x="544" y="413"/>
			<point x="592" y="413" type="curve" smooth="yes"/>
			<point x="649" y="413"/>
			<point x="670" y="391"/>
			<point x="670" y="306" type="curve" smooth="yes"/>
			<point x="670" y="212" type="line" smooth="yes"/>
			<point x="670" y="148"/>
			<point x="670" y="46"/>
		</contour>
	</outline>
	<anchor name="aboveLC" x="422" y="472"/>
	<anchor name="belowLC" x="426" y="-20"/>
</glyph>
<glyph name="n" format="2">
	<advance width="559"/>
	<outline>
		<contour>
			<point x="34" y="0" type="line"/>
			<point x="247" y="0" type="line"/>
			<point x="247" y="16" type="line"/>
			<point x="153" y="29" type="line"/>
			<point x="129" y="29" type="line"/>
			<point x="34" y="16" type="line"/>
		</contour>
		<contour>
			<point x="103" y="0" type="curve"/>
			<point x="183" y="0" type="line"/>
			<point x="180" y="46"/>
			<point x="179" y="148"/>
			<point x="179" y="212" type="curve" smooth="yes"/>
			<point x="179" y="357" type="line"/>
			<point x="179" y="359" type="line"/>
			<point x="179" y="456" type="line"/>
			<point x="170" y="465" type="line"/>
			<point x="30" y="420" type="line"/>
			<point x="30" y="406" type="line"/>
			<point x="104" y="389" type="line"/>
			<point x="106" y="347"/>
			<point x="107" y="313"/>
			<point x="107" y="257" type="curve" smooth="yes"/>
			<point x="107" y="212" type="line" smooth="yes"/>
			<point x="107" y="148"/>
			<point x="106" y="46"/>
		</contour>
		<contour>
			<point x="320" y="0" type="line"/>
			<point x="532" y="0" type="line"/>
			<point x="532" y="16" type="line"/>
			<point x="437" y="29" type="line"/>
			<point x="415" y="29" type="line"/>
			<point x="320" y="16" type="line"/>
		</contour>
		<contour>
			<point x="387" y="0" type="curve"/>
			<point x="469" y="0" type="line"/>
			<point x="466" y="46"/>
			<point x="465" y="148"/>
			<point x="465" y="212" type="curve" smooth="yes"/>
			<point x="465" y="306" type="line" smooth="yes"/>
			<point x="465" y="422"/>
			<point x="423" y="465"/>
			<point x="347" y="465" type="curve" smooth="yes"/>
			<point x="274" y="465"/>
			<point x="208" y="410"/>
			<point x="167" y="356" type="curve"/>
			<point x="163" y="356" type="line"/>
			<point x="171" y="341" type="line"/>
			<point x="220" y="387"/>
			<point x="264" y="413"/>
			<point x="312" y="413" type="curve" smooth="yes"/>
			<point x="369" y="413"/>
			<point x="391" y="391"/>
			<point x="391" y="306" type="curve" smooth="yes"/>
			<point x="391" y="212" type="line" smooth="yes"/>
			<point x="391" y="148"/>
			<point x="390" y="46"/>
		</contour>
	</outline>
	<anchor name="aboveLC" x="284" y="472"/>
	<anchor name="belowLC" x="287" y="-20"/>
</glyph>
<glyph name="nine.cap" format="2">
	<advance width="487"/>
	<outline>
		<contour>
			<point x="84" y="-20" type="line"/>
			<point x="328" y="34"/>
			<point x="440" y="215"/>
			<point x="440" y="403" type="curve" smooth="yes"/>
			<point x="440" y="582"/>
			<point x="362" y="685"/>
			<point x="239" y="685" type="curve" smooth="yes"/>
			<point x="129" y="685"/>
			<point x="39" y="596"/>
			<point x="39" y="469" type="curve" smooth="yes"/>
			<point x="39" y="335"/>
			<point x="116" y="264"/>
			<point x="218" y="264" type="curve" smooth="yes"/>
			<point x="287" y="264"/>
			<point x="342" y="300"/>
			<point x="386" y="372" type="curve"/>
			<point x="392" y="372" type="line"/>
			<point x="382" y="384" type="line"/>
			<point x="343" y="329"/>
			<point x="289" y="306"/>
			<point x="247" y="306" type="curve" smooth="yes"/>
			<point x="172" y="306"/>
			<point x="114" y="352"/>
			<point x="114" y="474" type="curve" smooth="yes"/>
			<point x="114" y="596"/>
			<point x="172" y="664"/>
			<point x="239" y="664" type="curve" smooth="yes"/>
			<point x="314" y="664"/>
			<point x="362" y="576"/>
			<point x="362" y="398" type="curve" smooth="yes"/>
			<point x="362" y="192"/>
			<point x="279" y="69"/>
			<point x="80" y="-3" type="curve"/>
		</contour>
	</outline>
</glyph>
<glyph name="o" format="2">
	<advance width="503"/>
	<outline>
		<contour>
			<point x="252" y="-12" type="curve" smooth="yes"/>
			<point x="363" y="-12"/>
			<point x="461" y="74"/>
			<point x="461" y="228" type="curve" smooth="yes"/>
			<point x="461" y="384"/>
			<point x="364" y="465"/>
			<point x="252" y="465" type="curve" smooth="yes"/>
			<point x="140" y="465"/>
			<point x="43" y="380"/>
			<point x="43" y="224" type="curve" smooth="yes"/>
			<point x="43" y="69"/>
			<point x="139" y="-12"/>
		</contour>
		<contour>
			<point x="252" y="9" type="curve" smooth="yes"/>
			<point x="171" y="9"/>
			<point x="122" y="83"/>
			<point x="122" y="224" type="curve" smooth="yes"/>
			<point x="122" y="366"/>
			<point x="171" y="443"/>
			<point x="252" y="443" type="curve" smooth="yes"/>
			<point x="332" y="443"/>
			<point x="381" y="369"/>
			<point x="381" y="228" type="curve" smooth="yes"/>
			<point x="381" y="86"/>
			<point x="332" y="9"/>
		</contour>
	</outline>
	<anchor name="aboveLC" x="252" y="472"/>
	<anchor name="belowLC" x="252" y="-20"/>
	<anchor name="hornLC" x="369" y="370"/>
	<anchor name="ogonek" x="305" y="0"/>
</glyph>
<glyph name="oe" format="2">
	<advance width="782"/>
	<outline>
		<contour>
			<point x="244" y="-12" type="curve" smooth="yes"/>
			<point x="321" y="-12"/>
			<point x="385" y="29"/>
			<point x="418" y="106" type="curve"/>
			<point x="390" y="106" type="line"/>
			<point x="423" y="31"/>
			<point x="489" y="-12"/>
			<point x="568" y="-12" type="curve" smooth="yes"/>
			<point x="641" y="-12"/>
			<point x="701" y="23"/>
			<point x="736" y="100" type="curve"/>
			<point x="722" y="108" type="line"/>
			<point x="691" y="66"/>
			<point x="649" y="39"/>
			<point x="590" y="39" type="curve" smooth="yes"/>
			<point x="502" y="39"/>
			<point x="442" y="112"/>
			<point x="442" y="234" type="curve" smooth="yes"/>
			<point x="442" y="384"/>
			<point x="506" y="442"/>
			<point x="569" y="442" type="curve" smooth="yes"/>
			<point x="630" y="442"/>
			<point x="668" y="394"/>
			<point x="668" y="319" type="curve" smooth="yes"/>
			<point x="668" y="283"/>
			<point x="656" y="268"/>
			<point x="617" y="268" type="curve" smooth="yes"/>
			<point x="394" y="268" type="line"/>
			<point x="394" y="246" type="line"/>
			<point x="730" y="246" type="line"/>
			<point x="734" y="258"/>
			<point x="735" y="274"/>
			<point x="735" y="296" type="curve" smooth="yes"/>
			<point x="735" y="400"/>
			<point x="671" y="465"/>
			<point x="577" y="465" type="curve" smooth="yes"/>
			<point x="500" y="465"/>
			<point x="432" y="421"/>
			<point x="396" y="348" type="curve"/>
			<point x="420" y="348" type="line"/>
			<point x="387" y="425"/>
			<point x="322" y="465"/>
			<point x="244" y="465" type="curve" smooth="yes"/>
			<point x="133" y="465"/>
			<point x="43" y="380"/>
			<point x="43" y="224" type="curve" smooth="yes"/>
			<point x="43" y="69"/>
			<point x="132" y="-12"/>
		</contour>
		<contour>
			<point x="244" y="9" type="curve" smooth="yes"/>
			<point x="164" y="9"/>
			<point x="122" y="83"/>
			<point x="122" y="224" type="curve" smooth="yes"/>
			<point x="122" y="366"/>
			<point x="164" y="443"/>
			<point x="244" y="443" type="curve" smooth="yes"/>
			<point x="324" y="443"/>
			<point x="367" y="369"/>
			<point x="367" y="228" type="curve" smooth="yes"/>
			<point x="367" y="86"/>
			<point x="324" y="9"/>
		</contour>
	</outline>
	<anchor name="aboveLC" x="405" y="472"/>
</glyph>
<glyph name="one.cap" format="2">
	<advance width="409"/>
	<outline>
		<contour>
			<point x="61" y="0" type="line"/>
			<point x="370" y="0" type="line"/>
			<point x="370" y="16" type="line"/>
			<point x="225" y="35" type="line"/>
			<point x="203" y="35" type="line"/>
			<point x="61" y="16" type="line"/>
		</contour>
		<contour>
			<point x="175" y="0" type="curve"/>
			<point x="257" y="0" type="line"/>
			<point x="254" y="46"/>
			<point x="253" y="148"/>
			<point x="253" y="212" type="curve" smooth="yes"/>
			<point x="253" y="473" type="line"/>
			<point x="257" y="670" type="line"/>
			<point x="247" y="678" type="line"/>
			<point x="62" y="618" type="line"/>
			<point x="62" y="604" type="line"/>
			<point x="179" y="617" type="line"/>
			<point x="179" y="212" type="line" smooth="yes"/>
			<point x="179" y="148"/>
			<point x="179" y="46"/>
		</contour>
	</outline>
</glyph>
<glyph name="one" format="2">
	<advance width="473"/>
	<outline>
		<contour>
			<point x="72" y="0" type="line"/>
			<point x="417" y="0" type="line"/>
			<point x="417" y="16" type="line"/>
			<point x="254" y="35" type="line"/>
			<point x="231" y="35" type="line"/>
			<point x="72" y="16" type="line"/>
		</contour>
		<contour>
			<point x="204" y="0" type="curve"/>
			<point x="285" y="0" type="line"/>
			<point x="281" y="46"/>
			<point x="280" y="148"/>
			<point x="280" y="212" type="curve" smooth="yes"/>
			<point x="280" y="445" type="line"/>
			<point x="284" y="642" type="line"/>
			<point x="276" y="650" type="line"/>
			<point x="82" y="591" type="line"/>
			<point x="82" y="577" type="line"/>
			<point x="208" y="588" type="line"/>
			<point x="208" y="212" type="line" smooth="yes"/>
			<point x="208" y="148"/>
			<point x="207" y="46"/>
		</contour>
	</outline>
</glyph>
<glyph name="one.osf" format="2">
	<advance width="409"/>
	<outline>
		<contour>
			<point x="68" y="0" type="line"/>
			<point x="378" y="0" type="line"/>
			<point x="378" y="16" type="line"/>
			<point x="233" y="35" type="line"/>
			<point x="210" y="35" type="line"/>
			<point x="68" y="16" type="line"/>
		</contour>
		<contour>
			<point x="183" y="0" type="curve"/>
			<point x="264" y="0" type="line"/>
			<point x="260" y="46"/>
			<point x="259" y="148"/>
			<point x="259" y="212" type="curve" smooth="yes"/>
			<point x="259" y="316" type="line"/>
			<point x="263" y="513" type="line"/>
			<point x="255" y="521" type="line"/>
			<point x="69" y="461" type="line"/>
			<point x="69" y="447" type="line"/>
			<point x="187" y="459" type="line"/>
			<point x="187" y="212" type="line" smooth="yes"/>
			<point x="187" y="148"/>
			<point x="186" y="46"/>
		</contour>
	</outline>
</glyph>
<glyph name="one.tosf" format="2">
	<advance width="473"/>
	<outline>
		<contour>
			<point x="72" y="0" type="line"/>
			<point x="416" y="0" type="line"/>
			<point x="416" y="16" type="line"/>
			<point x="254" y="35" type="line"/>
			<point x="231" y="35" type="line"/>
			<point x="72" y="16" type="line"/>
		</contour>
		<contour>
			<point x="204" y="0" type="curve"/>
			<point x="284" y="0" type="line"/>
			<point x="281" y="46"/>
			<point x="280" y="148"/>
			<point x="280" y="212" type="curve" smooth="yes"/>
			<point x="280" y="315" type="line"/>
			<point x="284" y="513" type="line"/>
			<point x="276" y="521" type="line"/>
			<point x="80" y="461" type="line"/>
			<point x="80" y="447" type="line"/>
			<point x="208" y="459" type="line"/>
			<point x="208" y="212" type="line" smooth="yes"/>
			<point x="208" y="148"/>
			<point x="207" y="46"/>
		</contour>
	</outline>
</glyph>
<glyph name="oslash" format="2">
	<advance width="503"/>
	<outline>
		<contour>
			<point x="459" y="449" type="line"/>
			<point x="443" y="462" type="line"/>
			<point x="52" y="4" type="line"/>
			<point x="68" y="-8" type="line"/>
		</contour>
		<contour>
			<point x="252" y="-12" type="curve" smooth="yes"/>
			<point x="363" y="-12"/>
			<point x="461" y="74"/>
			<point x="461" y="228" type="curve" smooth="yes"/>
			<point x="461" y="384"/>
			<point x="364" y="465"/>
			<point x="252" y="465" type="curve" smooth="yes"/>
			<point x="140" y="465"/>
			<point x="43" y="380"/>
			<point x="43" y="224" type="curve" smooth="yes"/>
			<point x="43" y="69"/>
			<point x="139" y="-12"/>
		</contour>
		<contour>
			<point x="252" y="9" type="curve" smooth="yes"/>
			<point x="169" y="9"/>
			<point x="119" y="83"/>
			<point x="119" y="224" type="curve" smooth="yes"/>
			<point x="119" y="366"/>
			<point x="169" y="443"/>
			<point x="252" y="443" type="curve" smooth="yes"/>
			<point x="334" y="443"/>
			<point x="385" y="369"/>
			<point x="385" y="228" type="curve" smooth="yes"/>
			<point x="385" y="86"/>
			<point x="334" y="9"/>
		</contour>
	</outline>
	<anchor name="aboveLC" x="252" y="472"/>
</glyph>
<glyph name="p" format="2">
	<advance width="541"/>
	<outline>
		<contour>
			<point x="34" y="-258" type="line"/>
			<point x="257" y="-258" type="line"/>
			<point x="257" y="-241" type="line"/>
			<point x="151" y="-229" type="line"/>
			<point x="129" y="-229" type="line"/>
			<point x="34" y="-241" type="line"/>
		</contour>
		<contour>
			<point x="103" y="-258" type="curve"/>
			<point x="183" y="-258" type="line"/>
			<point x="180" y="-212"/>
			<point x="179" y="-111"/>
			<point x="179" y="-46" type="curve" smooth="yes"/>
			<point x="179" y="72" type="line"/>
			<point x="179" y="76" type="line"/>
			<point x="179" y="369" type="line"/>
			<point x="179" y="373" type="line"/>
			<point x="179" y="456" type="line"/>
			<point x="170" y="465" type="line"/>
			<point x="30" y="420" type="line"/>
			<point x="30" y="406" type="line"/>
			<point x="104" y="389" type="line"/>
			<point x="106" y="347"/>
			<point x="107" y="313"/>
			<point x="107" y="257" type="curve" smooth="yes"/>
			<point x="107" y="-46" type="line" smooth="yes"/>
			<point x="107" y="-111"/>
			<point x="106" y="-212"/>
		</contour>
		<contour>
			<point x="309" y="-12" type="curve" smooth="yes"/>
			<point x="413" y="-12"/>
			<point x="499" y="78"/>
			<point x="499" y="236" type="curve" smooth="yes"/>
			<point x="499" y="388"/>
			<point x="417" y="465"/>
			<point x="317" y="465" type="curve" smooth="yes"/>
			<point x="249" y="465"/>
			<point x="200" y="421"/>
			<point x="170" y="363" type="curve"/>
			<point x="157" y="363" type="line"/>
			<point x="163" y="335" type="line"/>
			<point x="198" y="389"/>
			<point x="239" y="425"/>
			<point x="292" y="425" type="curve" smooth="yes"/>
			<point x="367" y="425"/>
			<point x="422" y="365"/>
			<point x="422" y="232" type="curve" smooth="yes"/>
			<point x="422" y="96"/>
			<point x="366" y="28"/>
			<point x="295" y="28" type="curve" smooth="yes"/>
			<point x="241" y="28"/>
			<point x="207" y="48"/>
			<point x="159" y="105" type="curve"/>
			<point x="152" y="81" type="line"/>
			<point x="166" y="81" type="line"/>
			<point x="202" y="13"/>
			<point x="255" y="-12"/>
		</contour>
	</outline>
	<anchor name="aboveLC" x="281" y="472"/>
	<anchor name="belowLC" x="147" y="-278"/>
</glyph>
<glyph name="period" format="2">
	<advance width="258"/>
	<outline>
		<contour>
			<point x="129" y="-7" type="curve" smooth="yes"/>
			<point x="160" y="-7"/>
			<point x="185" y="15"/>
			<point x="185" y="48" type="curve" smooth="yes"/>
			<point x="185" y="81"/>
			<point x="160" y="104"/>
			<point x="129" y="104" type="curve" smooth="yes"/>
			<point x="99" y="104"/>
			<point x="73" y="81"/>
			<point x="73" y="48" type="curve" smooth="yes"/>
			<point x="73" y="15"/>
			<point x="99" y="-7"/>
		</contour>
	</outline>
</glyph>
<glyph name="q" format="2">
	<advance width="515"/>
	<outline>
		<contour>
			<point x="284" y="-258" type="line"/>
			<point x="507" y="-258" type="line"/>
			<point x="507" y="-241" type="line"/>
			<point x="412" y="-229" type="line"/>
			<point x="391" y="-229" type="line"/>
			<point x="284" y="-241" type="line"/>
		</contour>
		<contour>
			<point x="223" y="-12" type="curve" smooth="yes"/>
			<point x="291" y="-12"/>
			<point x="342" y="33"/>
			<point x="372" y="89" type="curve"/>
			<point x="385" y="89" type="line"/>
			<point x="379" y="118" type="line"/>
			<point x="343" y="64"/>
			<point x="302" y="27"/>
			<point x="250" y="27" type="curve" smooth="yes"/>
			<point x="174" y="27"/>
			<point x="120" y="87"/>
			<point x="120" y="220" type="curve" smooth="yes"/>
			<point x="120" y="358"/>
			<point x="178" y="424"/>
			<point x="250" y="424" type="curve" smooth="yes"/>
			<point x="303" y="424"/>
			<point x="334" y="405"/>
			<point x="383" y="347" type="curve"/>
			<point x="390" y="372" type="line"/>
			<point x="376" y="372" type="line"/>
			<point x="339" y="439"/>
			<point x="290" y="465"/>
			<point x="236" y="465" type="curve" smooth="yes"/>
			<point x="132" y="465"/>
			<point x="43" y="374"/>
			<point x="43" y="216" type="curve" smooth="yes"/>
			<point x="43" y="64"/>
			<point x="125" y="-12"/>
		</contour>
		<contour>
			<point x="359" y="-258" type="curve"/>
			<point x="439" y="-258" type="line"/>
			<point x="436" y="-212"/>
			<point x="435" y="-111"/>
			<point x="435" y="-46" type="curve" smooth="yes"/>
			<point x="435" y="341" type="line"/>
			<point x="439" y="457" type="line"/>
			<point x="429" y="462" type="line"/>
			<point x="363" y="384" type="line"/>
			<point x="363" y="382" type="line"/>
			<point x="363" y="88" type="line"/>
			<point x="363" y="84" type="line"/>
			<point x="363" y="-46" type="line" smooth="yes"/>
			<point x="363" y="-111"/>
			<point x="362" y="-212"/>
		</contour>
	</outline>
	<anchor name="aboveLC" x="277" y="472"/>
	<anchor name="belowLC" x="392" y="-278"/>
</glyph>
<glyph name="question" format="2">
	<advance width="388"/>
	<outline>
		<contour>
			<point x="143" y="-7" type="curve" smooth="yes"/>
			<point x="173" y="-7"/>
			<point x="198" y="14"/>
			<point x="198" y="48" type="curve" smooth="yes"/>
			<point x="198" y="81"/>
			<point x="173" y="104"/>
			<point x="143" y="104" type="curve" smooth="yes"/>
			<point x="112" y="104"/>
			<point x="87" y="81"/>
			<point x="87" y="48" type="curve" smooth="yes"/>
			<point x="87" y="14"/>
			<point x="112" y="-7"/>
		</contour>
		<contour>
			<point x="327" y="466" type="curve" smooth="yes"/>
			<point x="327" y="585"/>
			<point x="184" y="676"/>
			<point x="101" y="685" type="curve"/>
			<point x="74" y="679"/>
			<point x="62" y="664"/>
			<point x="62" y="644" type="curve" smooth="yes"/>
			<point x="62" y="624"/>
			<point x="73" y="608"/>
			<point x="122" y="601" type="curve" smooth="yes"/>
			<point x="275" y="578" type="line"/>
			<point x="219" y="611" type="line"/>
			<point x="257" y="575"/>
			<point x="294" y="525"/>
			<point x="294" y="480" type="curve" smooth="yes"/>
			<point x="294" y="447"/>
			<point x="263" y="422"/>
			<point x="223" y="406" type="curve" smooth="yes"/>
			<point x="173" y="388" type="line" smooth="yes"/>
			<point x="118" y="368"/>
			<point x="104" y="351"/>
			<point x="104" y="321" type="curve" smooth="yes"/>
			<point x="104" y="308"/>
			<point x="107" y="293"/>
			<point x="118" y="254" type="curve" smooth="yes"/>
			<point x="130" y="212" type="line"/>
			<point x="150" y="212" type="line"/>
			<point x="150" y="270" type="line" smooth="yes"/>
			<point x="150" y="302"/>
			<point x="164" y="314"/>
			<point x="204" y="329" type="curve" smooth="yes"/>
			<point x="240" y="342" type="line" smooth="yes"/>
			<point x="302" y="366"/>
			<point x="327" y="402"/>
		</contour>
	</outline>
</glyph>
<glyph name="quoteleft" format="2">
	<advance width="188"/>
	<outline>
		<contour>
			<point x="96" y="509" type="curve" smooth="yes"/>
			<point x="127" y="509"/>
			<point x="147" y="529"/>
			<point x="147" y="561" type="curve" smooth="yes"/>
			<point x="147" y="577"/>
			<point x="138" y="594"/>
			<point x="116" y="608" type="curve" smooth="yes"/>
			<point x="74" y="635" type="line"/>
			<point x="73" y="613" type="line"/>
			<point x="94" y="671"/>
			<point x="112" y="689"/>
			<point x="158" y="715" type="curve"/>
			<point x="150" y="733" type="line"/>
			<point x="94" y="711"/>
			<point x="42" y="660"/>
			<point x="42" y="582" type="curve" smooth="yes"/>
			<point x="42" y="565"/>
			<point x="45" y="545"/>
			<point x="51" y="527" type="curve"/>
			<point x="69" y="511"/>
			<point x="83" y="509"/>
		</contour>
	</outline>
</glyph>
<glyph name="r" format="2">
	<advance width="394"/>
	<outline>
		<contour>
			<point x="34" y="0" type="line"/>
			<point x="259" y="0" type="line"/>
			<point x="259" y="16" type="line"/>
			<point x="153" y="29" type="line"/>
			<point x="129" y="29" type="line"/>
			<point x="34" y="16" type="line"/>
		</contour>
		<contour>
			<point x="103" y="0" type="curve"/>
			<point x="183" y="0" type="line"/>
			<point x="180" y="46"/>
			<point x="179" y="148"/>
			<point x="179" y="212" type="curve" smooth="yes"/>
			<point x="179" y="303" type="line"/>
			<point x="179" y="306" type="line"/>
			<point x="179" y="456" type="line"/>
			<point x="170" y="465" type="line"/>
			<point x="30" y="420" type="line"/>
			<point x="30" y="406" type="line"/>
			<point x="104" y="389" type="line"/>
			<point x="106" y="347"/>
			<point x="107" y="313"/>
			<point x="107" y="257" type="curve" smooth="yes"/>
			<point x="107" y="212" type="line" smooth="yes"/>
			<point x="107" y="148"/>
			<point x="106" y="46"/>
		</contour>
		<contour>
			<point x="172" y="255" type="line"/>
			<point x="193" y="349"/>
			<point x="244" y="412"/>
			<point x="288" y="431" type="curve"/>
			<point x="250" y="426" type="line"/>
			<point x="273" y="401" type="line" smooth="yes"/>
			<point x="291" y="381"/>
			<point x="308" y="371"/>
			<point x="331" y="371" type="curve" smooth="yes"/>
			<point x="359" y="371"/>
			<point x="383" y="389"/>
			<point x="385" y="422" type="curve"/>
			<point x="377" y="452"/>
			<point x="353" y="465"/>
			<point x="323" y="465" type="curve" smooth="yes"/>
			<point x="261" y="465"/>
			<point x="208" y="413"/>
			<point x="174" y="310" type="curve"/>
			<point x="160" y="310" type="line"/>
		</contour>
	</outline>
	<anchor name="aboveLC" x="228" y="472"/>
	<anchor name="belowLC" x="151" y="-20"/>
</glyph>
<glyph name="s" format="2">
	<advance width="393"/>
	<outline>
		<contour>
			<point x="188" y="-12" type="curve" smooth="yes"/>
			<point x="294" y="-12"/>
			<point x="350" y="45"/>
			<point x="350" y="123" type="curve" smooth="yes"/>
			<point x="350" y="201"/>
			<point x="290" y="229"/>
			<point x="230" y="255" type="curve" smooth="yes"/>
			<point x="202" y="267" type="line" smooth="yes"/>
			<point x="153" y="288"/>
			<point x="111" y="312"/>
			<point x="111" y="364" type="curve" smooth="yes"/>
			<point x="111" y="409"/>
			<point x="143" y="444"/>
			<point x="205" y="444" type="curve" smooth="yes"/>
			<point x="245" y="444"/>
			<point x="278" y="434"/>
			<point x="311" y="411" type="curve"/>
			<point x="311" y="437" type="line"/>
			<point x="271" y="437" type="line"/>
			<point x="311" y="316" type="line"/>
			<point x="326" y="316" type="line"/>
			<point x="330" y="431" type="line"/>
			<point x="291" y="454"/>
			<point x="254" y="465"/>
			<point x="205" y="465" type="curve" smooth="yes"/>
			<point x="105" y="465"/>
			<point x="54" y="408"/>
			<point x="54" y="334" type="curve" smooth="yes"/>
			<point x="54" y="258"/>
			<point x="110" y="229"/>
			<point x="167" y="205" type="curve" smooth="yes"/>
			<point x="195" y="193" type="line" smooth="yes"/>
			<point x="245" y="171"/>
			<point x="289" y="149"/>
			<point x="289" y="96" type="curve" smooth="yes"/>
			<point x="289" y="47"/>
			<point x="255" y="7"/>
			<point x="188" y="7" type="curve" smooth="yes"/>
			<point x="142" y="7"/>
			<point x="111" y="15"/>
			<point x="79" y="33" type="curve"/>
			<point x="79" y="14" type="line"/>
			<point x="113" y="14" type="line"/>
			<point x="72" y="148" type="line"/>
			<point x="57" y="148" type="line"/>
			<point x="51" y="23" type="line"/>
			<point x="96" y="-1"/>
			<point x="131" y="-12"/>
		</contour>
	</outline>
	<anchor name="aboveLC" x="205" y="472"/>
	<anchor name="baseLC" x="192" y="0"/>
	<anchor name="belowLC" x="194" y="-20"/>
</glyph>
<glyph name="schwa" format="2">
	<advance width="466"/>
	<outline>
		<contour>
			<point x="223" y="-12" type="curve" smooth="yes"/>
			<point x="340" y="-12"/>
			<point x="423" y="73"/>
			<point x="423" y="226" type="curve" smooth="yes"/>
			<point x="423" y="375"/>
			<point x="337" y="465"/>
			<point x="229" y="465" type="curve" smooth="yes"/>
			<point x="156" y="465"/>
			<point x="96" y="430"/>
			<point x="61" y="353" type="curve"/>
			<point x="74" y="343" type="line"/>
			<point x="106" y="387"/>
			<point x="148" y="414"/>
			<point x="207" y="414" type="curve" smooth="yes"/>
			<point x="291" y="414"/>
			<point x="348" y="342"/>
			<point x="348" y="219" type="curve" smooth="yes"/>
			<point x="348" y="69"/>
			<point x="289" y="10"/>
			<point x="223" y="10" type="curve" smooth="yes"/>
			<point x="157" y="10"/>
			<point x="108" y="55"/>
			<point x="108" y="157" type="curve" smooth="yes"/>
			<point x="108" y="194"/>
			<point x="122" y="209"/>
			<point x="159" y="209" type="curve" smooth="yes"/>
			<point x="396" y="209" type="line"/>
			<point x="396" y="231" type="line"/>
			<point x="46" y="231" type="line"/>
			<point x="42" y="218"/>
			<point x="41" y="204"/>
			<point x="41" y="182" type="curve" smooth="yes"/>
			<point x="41" y="53"/>
			<point x="117" y="-12"/>
		</contour>
	</outline>
	<anchor name="aboveLC" x="227" y="472"/>
	<anchor name="belowLC" x="229" y="-20"/>
</glyph>
<glyph name="seven.cap" format="2">
	<advance width="453"/>
	<outline>
		<contour>
			<point x="114" y="0" type="line"/>
			<point x="194" y="0" type="line"/>
			<point x="421" y="633" type="line"/>
			<point x="421" y="669" type="line"/>
			<point x="29" y="669" type="line"/>
			<point x="29" y="601" type="line"/>
			<point x="389" y="601" type="line"/>
			<point x="389" y="587" type="line"/>
			<point x="399" y="632" type="line"/>
			<point x="106" y="12" type="line"/>
		</contour>
	</outline>
</glyph>
<glyph name="seven.lf" format="2">
	<advance width="453"/>
	<outline>
		<contour>
			<point x="114" y="0" type="line"/>
			<point x="194" y="0" type="line"/>
			<point x="421" y="609" type="line"/>
			<point x="421" y="646" type="line"/>
			<point x="29" y="646" type="line"/>
			<point x="29" y="578" type="line"/>
			<point x="388" y="578" type="line"/>
			<point x="388" y="561" type="line"/>
			<point x="396" y="601" type="line"/>
			<point x="106" y="12" type="line"/>
		</contour>
	</outline>
</glyph>
<glyph name="six.cap" format="2">
	<advance width="487"/>
	<outline>
		<contour>
			<point x="251" y="-12" type="curve" smooth="yes"/>
			<point x="356" y="-12"/>
			<point x="448" y="67"/>
			<point x="448" y="204" type="curve" smooth="yes"/>
			<point x="448" y="326"/>
			<point x="384" y="402"/>
			<point x="276" y="402" type="curve" smooth="yes"/>
			<point x="207" y="402"/>
			<point x="153" y="365"/>
			<point x="108" y="294" type="curve"/>
			<point x="102" y="294" type="line"/>
			<point x="112" y="283" type="line"/>
			<point x="152" y="337"/>
			<point x="206" y="360"/>
			<point x="249" y="360" type="curve" smooth="yes"/>
			<point x="316" y="360"/>
			<point x="374" y="312"/>
			<point x="374" y="198" type="curve" smooth="yes"/>
			<point x="374" y="74"/>
			<point x="321" y="9"/>
			<point x="252" y="9" type="curve" smooth="yes"/>
			<point x="176" y="9"/>
			<point x="126" y="91"/>
			<point x="126" y="261" type="curve" smooth="yes"/>
			<point x="126" y="470"/>
			<point x="210" y="612"/>
			<point x="411" y="669" type="curve"/>
			<point x="407" y="685" type="line"/>
			<point x="177" y="657"/>
			<point x="47" y="474"/>
			<point x="47" y="266" type="curve" smooth="yes"/>
			<point x="47" y="88"/>
			<point x="126" y="-12"/>
		</contour>
	</outline>
</glyph>
<glyph name="six.lf" format="2">
	<advance width="487"/>
	<outline>
		<contour>
			<point x="251" y="-12" type="curve" smooth="yes"/>
			<point x="356" y="-12"/>
			<point x="448" y="68"/>
			<point x="448" y="197" type="curve" smooth="yes"/>
			<point x="448" y="312"/>
			<point x="384" y="388"/>
			<point x="276" y="388" type="curve" smooth="yes"/>
			<point x="207" y="388"/>
			<point x="153" y="352"/>
			<point x="108" y="280" type="curve"/>
			<point x="101" y="280" type="line"/>
			<point x="112" y="268" type="line"/>
			<point x="152" y="322"/>
			<point x="206" y="346"/>
			<point x="249" y="346" type="curve" smooth="yes"/>
			<point x="316" y="346"/>
			<point x="374" y="298"/>
			<point x="374" y="192" type="curve" smooth="yes"/>
			<point x="374" y="75"/>
			<point x="321" y="9"/>
			<point x="251" y="9" type="curve" smooth="yes"/>
			<point x="176" y="9"/>
			<point x="126" y="91"/>
			<point x="126" y="253" type="curve" smooth="yes"/>
			<point x="126" y="456"/>
			<point x="210" y="585"/>
			<point x="411" y="641" type="curve"/>
			<point x="407" y="658" type="line"/>
			<point x="177" y="630"/>
			<point x="47" y="461"/>
			<point x="47" y="260" type="curve" smooth="yes"/>
			<point x="47" y="89"/>
			<point x="126" y="-12"/>
		</contour>
	</outline>
</glyph>
<glyph name="t" format="2">
	<advance width="301"/>
	<outline>
		<contour>
			<point x="123" y="428" type="line"/>
			<point x="279" y="428" type="line"/>
			<point x="279" y="452" type="line"/>
			<point x="123" y="452" type="line"/>
		</contour>
		<contour>
			<point x="186" y="-12" type="curve" smooth="yes"/>
			<point x="241" y="-12"/>
			<point x="269" y="11"/>
			<point x="290" y="50" type="curve"/>
			<point x="278" y="59" type="line"/>
			<point x="260" y="39"/>
			<point x="237" y="27"/>
			<point x="211" y="27" type="curve" smooth="yes"/>
			<point x="177" y="27"/>
			<point x="155" y="46"/>
			<point x="155" y="98" type="curve" smooth="yes"/>
			<point x="155" y="436" type="line"/>
			<point x="155" y="440" type="line"/>
			<point x="159" y="604" type="line"/>
			<point x="135" y="604" type="line"/>
			<point x="82" y="440" type="line"/>
			<point x="118" y="462" type="line"/>
			<point x="8" y="444" type="line"/>
			<point x="8" y="428" type="line"/>
			<point x="83" y="428" type="line"/>
			<point x="81" y="201" type="line" smooth="yes"/>
			<point x="81" y="155"/>
			<point x="81" y="128"/>
			<point x="81" y="91" type="curve" smooth="yes"/>
			<point x="81" y="22"/>
			<point x="122" y="-12"/>
		</contour>
	</outline>
	<anchor name="aboveLC" x="142" y="584"/>
	<anchor name="baseLC" x="183" y="0"/>
	<anchor name="belowLC" x="182" y="-20"/>
</glyph>
<glyph name="thorn" format="2">
	<advance width="535"/>
	<outline>
		<contour>
			<point x="97" y="-258" type="curve"/>
			<point x="174" y="-258" type="line"/>
			<point x="172" y="-189"/>
			<point x="171" y="-117"/>
			<point x="171" y="-46" type="curve" smooth="yes"/>
			<point x="171" y="69" type="line"/>
			<point x="171" y="72" type="line"/>
			<point x="171" y="371" type="line"/>
			<point x="171" y="374" type="line"/>
			<point x="171" y="538" type="line"/>
			<point x="175" y="735" type="line"/>
			<point x="167" y="743" type="line"/>
			<point x="24" y="706" type="line"/>
			<point x="24" y="692" type="line"/>
			<point x="99" y="675" type="line"/>
			<point x="99" y="-46" type="line" smooth="yes"/>
			<point x="99" y="-111"/>
			<point x="98" y="-212"/>
		</contour>
		<contour>
			<point x="303" y="-12" type="curve" smooth="yes"/>
			<point x="407" y="-12"/>
			<point x="491" y="78"/>
			<point x="491" y="236" type="curve" smooth="yes"/>
			<point x="491" y="388"/>
			<point x="409" y="465"/>
			<point x="311" y="465" type="curve" smooth="yes"/>
			<point x="243" y="465"/>
			<point x="192" y="421"/>
			<point x="162" y="363" type="curve"/>
			<point x="149" y="363" type="line"/>
			<point x="155" y="335" type="line"/>
			<point x="190" y="389"/>
			<point x="232" y="425"/>
			<point x="285" y="425" type="curve" smooth="yes"/>
			<point x="360" y="425"/>
			<point x="415" y="365"/>
			<point x="415" y="232" type="curve" smooth="yes"/>
			<point x="415" y="96"/>
			<point x="360" y="28"/>
			<point x="288" y="28" type="curve" smooth="yes"/>
			<point x="235" y="28"/>
			<point x="199" y="48"/>
			<point x="152" y="105" type="curve"/>
			<point x="144" y="81" type="line"/>
			<point x="158" y="81" type="line"/>
			<point x="195" y="13"/>
			<point x="249" y="-12"/>
		</contour>
		<contour>
			<point x="28" y="-258" type="line"/>
			<point x="249" y="-258" type="line"/>
			<point x="249" y="-241" type="line"/>
			<point x="143" y="-229" type="line"/>
			<point x="122" y="-229" type="line"/>
			<point x="28" y="-241" type="line"/>
		</contour>
	</outline>
	<anchor name="aboveLC" x="140" y="743"/>
	<anchor name="belowLC" x="363" y="-20"/>
</glyph>
<glyph name="three.cap" format="2">
	<advance width="474"/>
	<outline>
		<contour>
			<point x="216" y="-12" type="curve" smooth="yes"/>
			<point x="352" y="-12"/>
			<point x="431" y="72"/>
			<point x="431" y="180" type="curve" smooth="yes"/>
			<point x="431" y="271"/>
			<point x="369" y="343"/>
			<point x="237" y="349" type="curve"/>
			<point x="237" y="344" type="line"/>
			<point x="350" y="359"/>
			<point x="410" y="432"/>
			<point x="410" y="527" type="curve" smooth="yes"/>
			<point x="410" y="615"/>
			<point x="351" y="685"/>
			<point x="227" y="685" type="curve" smooth="yes"/>
			<point x="143" y="685"/>
			<point x="65" y="639"/>
			<point x="54" y="552" type="curve"/>
			<point x="59" y="530"/>
			<point x="71" y="523"/>
			<point x="88" y="523" type="curve" smooth="yes"/>
			<point x="117" y="523"/>
			<point x="127" y="541"/>
			<point x="137" y="579" type="curve" smooth="yes"/>
			<point x="159" y="666" type="line"/>
			<point x="123" y="639" type="line"/>
			<point x="155" y="658"/>
			<point x="188" y="664"/>
			<point x="216" y="664" type="curve" smooth="yes"/>
			<point x="296" y="664"/>
			<point x="334" y="600"/>
			<point x="334" y="522" type="curve" smooth="yes"/>
			<point x="334" y="438"/>
			<point x="289" y="357"/>
			<point x="191" y="357" type="curve" smooth="yes"/>
			<point x="157" y="357" type="line"/>
			<point x="157" y="333" type="line"/>
			<point x="199" y="333" type="line" smooth="yes"/>
			<point x="305" y="333"/>
			<point x="352" y="258"/>
			<point x="352" y="175" type="curve" smooth="yes"/>
			<point x="352" y="91"/>
			<point x="302" y="9"/>
			<point x="206" y="9" type="curve" smooth="yes"/>
			<point x="177" y="9"/>
			<point x="142" y="13"/>
			<point x="109" y="33" type="curve"/>
			<point x="144" y="4" type="line"/>
			<point x="123" y="89" type="line" smooth="yes"/>
			<point x="113" y="132"/>
			<point x="100" y="151"/>
			<point x="75" y="151" type="curve" smooth="yes"/>
			<point x="56" y="151"/>
			<point x="43" y="143"/>
			<point x="35" y="122" type="curve"/>
			<point x="48" y="33"/>
			<point x="116" y="-12"/>
		</contour>
	</outline>
</glyph>
<glyph name="three.lf" format="2">
	<advance width="474"/>
	<outline>
		<contour>
			<point x="216" y="-12" type="curve" smooth="yes"/>
			<point x="352" y="-12"/>
			<point x="431" y="71"/>
			<point x="431" y="175" type="curve" smooth="yes"/>
			<point x="431" y="262"/>
			<point x="369" y="334"/>
			<point x="237" y="340" type="curve"/>
			<point x="237" y="335" type="line"/>
			<point x="350" y="350"/>
			<point x="410" y="419"/>
			<point x="410" y="508" type="curve" smooth="yes"/>
			<point x="410" y="588"/>
			<point x="351" y="658"/>
			<point x="227" y="658" type="curve" smooth="yes"/>
			<point x="143" y="658"/>
			<point x="65" y="612"/>
			<point x="54" y="525" type="curve"/>
			<point x="59" y="503"/>
			<point x="71" y="496"/>
			<point x="88" y="496" type="curve" smooth="yes"/>
			<point x="117" y="496"/>
			<point x="127" y="514"/>
			<point x="137" y="551" type="curve" smooth="yes"/>
			<point x="159" y="638" type="line"/>
			<point x="123" y="612" type="line"/>
			<point x="155" y="631"/>
			<point x="188" y="637"/>
			<point x="216" y="637" type="curve" smooth="yes"/>
			<point x="296" y="637"/>
			<point x="334" y="573"/>
			<point x="334" y="502" type="curve" smooth="yes"/>
			<point x="334" y="427"/>
			<point x="289" y="348"/>
			<point x="191" y="348" type="curve" smooth="yes"/>
			<point x="157" y="348" type="line"/>
			<point x="157" y="324" type="line"/>
			<point x="199" y="324" type="line" smooth="yes"/>
			<point x="305" y="324"/>
			<point x="352" y="249"/>
			<point x="352" y="171" type="curve" smooth="yes"/>
			<point x="352" y="90"/>
			<point x="302" y="9"/>
			<point x="206" y="9" type="curve" smooth="yes"/>
			<point x="177" y="9"/>
			<point x="142" y="13"/>
			<point x="109" y="33" type="curve"/>
			<point x="144" y="4" type="line"/>
			<point x="123" y="89" type="line" smooth="yes"/>
			<point x="113" y="132"/>
			<point x="100" y="151"/>
			<point x="75" y="151" type="curve" smooth="yes"/>
			<point x="56" y="151"/>
			<point x="43" y="143"/>
			<point x="35" y="122" type="curve"/>
			<point x="48" y="33"/>
			<point x="116" y="-12"/>
		</contour>
	</outline>
</glyph>
<glyph name="two.cap" format="2">
	<advance width="470"/>
	<outline>
		<contour>
			<point x="49" y="0" type="line"/>
			<point x="434" y="0" type="line"/>
			<point x="434" y="68" type="line"/>
			<point x="88" y="68" type="line"/>
			<point x="88" y="79" type="line"/>
			<point x="71" y="45" type="line"/>
			<point x="116" y="91"/>
			<point x="162" y="138"/>
			<point x="207" y="184" type="curve" smooth="yes"/>
			<point x="349" y="331"/>
			<point x="408" y="419"/>
			<point x="408" y="513" type="curve" smooth="yes"/>
			<point x="408" y="609"/>
			<point x="359" y="685"/>
			<point x="225" y="685" type="curve" smooth="yes"/>
			<point x="124" y="685"/>
			<point x="55" y="626"/>
			<point x="44" y="543" type="curve"/>
			<point x="52" y="524"/>
			<point x="63" y="514"/>
			<point x="82" y="514" type="curve" smooth="yes"/>
			<point x="109" y="514"/>
			<point x="119" y="533"/>
			<point x="129" y="577" type="curve" smooth="yes"/>
			<point x="153" y="669" type="line"/>
			<point x="117" y="636" type="line"/>
			<point x="151" y="656"/>
			<point x="182" y="664"/>
			<point x="212" y="664" type="curve" smooth="yes"/>
			<point x="284" y="664"/>
			<point x="332" y="608"/>
			<point x="332" y="506" type="curve" smooth="yes"/>
			<point x="332" y="422"/>
			<point x="275" y="322"/>
			<point x="187" y="214" type="curve" smooth="yes"/>
			<point x="141" y="159"/>
			<point x="95" y="102"/>
			<point x="49" y="46" type="curve"/>
		</contour>
	</outline>
</glyph>
<glyph name="two.lf" format="2">
	<advance width="470"/>
	<outline>
		<contour>
			<point x="49" y="0" type="line"/>
			<point x="434" y="0" type="line"/>
			<point x="434" y="68" type="line"/>
			<point x="88" y="68" type="line"/>
			<point x="88" y="78" type="line"/>
			<point x="71" y="45" type="line"/>
			<point x="116" y="88"/>
			<point x="162" y="133"/>
			<point x="207" y="176" type="curve" smooth="yes"/>
			<point x="353" y="319"/>
			<point x="408" y="396"/>
			<point x="408" y="486" type="curve" smooth="yes"/>
			<point x="408" y="586"/>
			<point x="359" y="658"/>
			<point x="225" y="658" type="curve" smooth="yes"/>
			<point x="124" y="658"/>
			<point x="55" y="599"/>
			<point x="44" y="516" type="curve"/>
			<point x="52" y="497"/>
			<point x="63" y="487"/>
			<point x="82" y="487" type="curve" smooth="yes"/>
			<point x="109" y="487"/>
			<point x="119" y="506"/>
			<point x="129" y="550" type="curve" smooth="yes"/>
			<point x="153" y="642" type="line"/>
			<point x="117" y="609" type="line"/>
			<point x="151" y="629"/>
			<point x="182" y="637"/>
			<point x="212" y="637" type="curve" smooth="yes"/>
			<point x="284" y="637"/>
			<point x="332" y="584"/>
			<point x="332" y="479" type="curve" smooth="yes"/>
			<point x="332" y="399"/>
			<point x="278" y="312"/>
			<point x="187" y="206" type="curve" smooth="yes"/>
			<point x="141" y="153"/>
			<point x="95" y="100"/>
			<point x="49" y="46" type="curve"/>
		</contour>
	</outline>
</glyph>
<glyph name="two.osf" format="2">
	<advance width="478"/>
	<outline>
		<contour>
			<point x="52" y="0" type="line"/>
			<point x="431" y="0" type="line"/>
			<point x="431" y="68" type="line"/>
			<point x="94" y="68" type="line"/>
			<point x="94" y="79" type="line"/>
			<point x="77" y="48" type="line"/>
			<point x="121" y="82"/>
			<point x="166" y="111"/>
			<point x="212" y="144" type="curve" smooth="yes"/>
			<point x="358" y="246"/>
			<point x="411" y="309"/>
			<point x="411" y="380" type="curve" smooth="yes"/>
			<point x="411" y="469"/>
			<point x="340" y="521"/>
			<point x="234" y="521" type="curve" smooth="yes"/>
			<point x="134" y="521"/>
			<point x="65" y="461"/>
			<point x="53" y="379" type="curve"/>
			<point x="61" y="359"/>
			<point x="73" y="351"/>
			<point x="92" y="351" type="curve" smooth="yes"/>
			<point x="118" y="351"/>
			<point x="129" y="370"/>
			<point x="139" y="413" type="curve" smooth="yes"/>
			<point x="162" y="505" type="line"/>
			<point x="127" y="472" type="line"/>
			<point x="161" y="492"/>
			<point x="191" y="500"/>
			<point x="221" y="500" type="curve" smooth="yes"/>
			<point x="286" y="500"/>
			<point x="335" y="454"/>
			<point x="335" y="376" type="curve" smooth="yes"/>
			<point x="335" y="306"/>
			<point x="283" y="248"/>
			<point x="198" y="174" type="curve" smooth="yes"/>
			<point x="149" y="133"/>
			<point x="98" y="92"/>
			<point x="52" y="49" type="curve"/>
		</contour>
	</outline>
</glyph>
<glyph name="u" format="2">
	<advance width="542"/>
	<outline>
		<contour>
			<point x="212" y="-12" type="curve" smooth="yes"/>
			<point x="284" y="-12"/>
			<point x="348" y="42"/>
			<point x="387" y="94" type="curve"/>
			<point x="391" y="94" type="line"/>
			<point x="384" y="112" type="line"/>
			<point x="334" y="65"/>
			<point x="290" y="39"/>
			<point x="244" y="39" type="curve" smooth="yes"/>
			<point x="187" y="39"/>
			<point x="163" y="61"/>
			<point x="163" y="146" type="curve" smooth="yes"/>
			<point x="163" y="330" type="line"/>
			<point x="167" y="457" type="line"/>
			<point x="159" y="465" type="line"/>
			<point x="24" y="432" type="line"/>
			<point x="24" y="417" type="line"/>
			<point x="113" y="399" type="line"/>
			<point x="91" y="429" type="line"/>
			<point x="91" y="131" type="line" smooth="yes"/>
			<point x="91" y="30"/>
			<point x="135" y="-12"/>
		</contour>
		<contour>
			<point x="377" y="-10" type="line"/>
			<point x="515" y="0" type="line"/>
			<point x="515" y="16" type="line"/>
			<point x="449" y="25" type="line"/>
			<point x="449" y="330" type="line"/>
			<point x="453" y="457" type="line"/>
			<point x="445" y="465" type="line"/>
			<point x="305" y="432" type="line"/>
			<point x="305" y="417" type="line"/>
			<point x="377" y="403" type="line"/>
			<point x="377" y="92" type="line"/>
			<point x="377" y="89" type="line"/>
		</contour>
	</outline>
	<anchor name="aboveLC" x="266" y="472"/>
	<anchor name="belowLC" x="285" y="-20"/>
	<anchor name="hornLC" x="430" y="412"/>
	<anchor name="ogonek" x="444" y="0"/>
</glyph>
<glyph name="uhorn" format="2">
	<advance width="542"/>
	<outline>
		<contour>
			<point x="212" y="-12" type="curve" smooth="yes"/>
			<point x="284" y="-12"/>
			<point x="348" y="42"/>
			<point x="387" y="94" type="curve"/>
			<point x="391" y="94" type="line"/>
			<point x="384" y="112" type="line"/>
			<point x="334" y="65"/>
			<point x="290" y="39"/>
			<point x="244" y="39" type="curve" smooth="yes"/>
			<point x="187" y="39"/>
			<point x="163" y="61"/>
			<point x="163" y="146" type="curve" smooth="yes"/>
			<point x="163" y="330" type="line"/>
			<point x="167" y="457" type="line"/>
			<point x="159" y="465" type="line"/>
			<point x="24" y="432" type="line"/>
			<point x="24" y="417" type="line"/>
			<point x="113" y="399" type="line"/>
			<point x="91" y="429" type="line"/>
			<point x="91" y="131" type="line" smooth="yes"/>
			<point x="91" y="30"/>
			<point x="135" y="-12"/>
		</contour>
		<contour>
			<point x="377" y="-10" type="line"/>
			<point x="515" y="0" type="line"/>
			<point x="515" y="16" type="line"/>
			<point x="449" y="25" type="line"/>
			<point x="449" y="330" type="line"/>
			<point x="453" y="457" type="line"/>
			<point x="428" y="442" type="line"/>
			<point x="492" y="453"/>
			<point x="535" y="492"/>
			<point x="535" y="551" type="curve" smooth="yes"/>
			<point x="535" y="576"/>
			<point x="531" y="593"/>
			<point x="523" y="608" type="curve"/>
			<point x="515" y="615"/>
			<point x="506" y="618"/>
			<point x="495" y="618" type="curve" smooth="yes"/>
			<point x="476" y="618"/>
			<point x="461" y="604"/>
			<point x="461" y="583" type="curve" smooth="yes"/>
			<point x="461" y="553"/>
			<point x="487" y="538"/>
			<point x="487" y="511" type="curve" smooth="yes"/>
			<point x="487" y="478"/>
			<point x="467" y="469"/>
			<point x="428" y="460" type="curve" smooth="yes"/>
			<point x="305" y="432" type="line"/>
			<point x="305" y="417" type="line"/>
			<point x="377" y="403" type="line"/>
			<point x="377" y="92" type="line"/>
			<point x="377" y="89" type="line"/>
		</contour>
	</outline>
	<anchor name="aboveLC" x="266" y="472"/>
	<anchor name="belowLC" x="285" y="-20"/>
</glyph>
<glyph name="uogonek" format="2">
	<advance width="542"/>
	<outline>
		<contour>
			<point x="436" y="-230" type="curve" smooth="yes"/>
			<point x="473" y="-230"/>
			<point x="502" y="-215"/>
			<point x="529" y="-185" type="curve"/>
			<point x="523" y="-173" type="line"/>
			<point x="502" y="-181"/>
			<point x="482" y="-184"/>
			<point x="464" y="-184" type="curve" smooth="yes"/>
			<point x="428" y="-184"/>
			<point x="406" y="-162"/>
			<point x="406" y="-117" type="curve" smooth="yes"/>
			<point x="406" y="-70"/>
			<point x="429" y="-27"/>
			<point x="468" y="2" type="curve"/>
			<point x="452" y="10" type="line"/>
			<point x="452" y="2" type="line"/>
			<point x="398" y="-25"/>
			<point x="350" y="-80"/>
			<point x="350" y="-144" type="curve" smooth="yes"/>
			<point x="350" y="-195"/>
			<point x="384" y="-230"/>
		</contour>
		<component base="u"/>
	</outline>
	<anchor name="aboveLC" x="266" y="472"/>
</glyph>
<glyph name="v" format="2">
	<advance width="467"/>
	<outline>
		<contour>
			<point x="224" y="-4" type="line"/>
			<point x="247" y="-4" type="line"/>
			<point x="419" y="452" type="line"/>
			<point x="391" y="452" type="line"/>
			<point x="256" y="86" type="line"/>
			<point x="252" y="74" type="line"/>
			<point x="269" y="74" type="line"/>
			<point x="128" y="452" type="line"/>
			<point x="44" y="452" type="line"/>
		</contour>
		<contour>
			<point x="4" y="436" type="line"/>
			<point x="90" y="424" type="line"/>
			<point x="116" y="424" type="line"/>
			<point x="215" y="437" type="line"/>
			<point x="215" y="452" type="line"/>
			<point x="4" y="452" type="line"/>
		</contour>
		<contour>
			<point x="315" y="437" type="line"/>
			<point x="391" y="428" type="line"/>
			<point x="403" y="428" type="line"/>
			<point x="463" y="436" type="line"/>
			<point x="463" y="452" type="line"/>
			<point x="315" y="452" type="line"/>
		</contour>
	</outline>
	<anchor name="aboveLC" x="259" y="472"/>
	<anchor name="belowLC" x="236" y="-20"/>
</glyph>
<glyph name="w" format="2">
	<advance width="701"/>
	<outline>
		<contour>
			<point x="203" y="-4" type="line"/>
			<point x="229" y="-4" type="line"/>
			<point x="355" y="361" type="line"/>
			<point x="358" y="369" type="line"/>
			<point x="346" y="369" type="line"/>
			<point x="476" y="-4" type="line"/>
			<point x="501" y="-4" type="line"/>
			<point x="656" y="452" type="line"/>
			<point x="627" y="452" type="line"/>
			<point x="508" y="87" type="line"/>
			<point x="504" y="74" type="line"/>
			<point x="522" y="74" type="line"/>
			<point x="392" y="452" type="line"/>
			<point x="359" y="452" type="line"/>
			<point x="236" y="86" type="line"/>
			<point x="231" y="74" type="line"/>
			<point x="249" y="74" type="line"/>
			<point x="128" y="452" type="line"/>
			<point x="44" y="452" type="line"/>
		</contour>
		<contour>
			<point x="4" y="436" type="line"/>
			<point x="90" y="424" type="line"/>
			<point x="116" y="424" type="line"/>
			<point x="203" y="437" type="line"/>
			<point x="203" y="452" type="line"/>
			<point x="4" y="452" type="line"/>
		</contour>
		<contour>
			<point x="281" y="437" type="line"/>
			<point x="357" y="428" type="line"/>
			<point x="395" y="428" type="line"/>
			<point x="471" y="437" type="line"/>
			<point x="471" y="452" type="line"/>
			<point x="281" y="452" type="line"/>
		</contour>
		<contour>
			<point x="551" y="437" type="line"/>
			<point x="625" y="428" type="line"/>
			<point x="637" y="428" type="line"/>
			<point x="697" y="436" type="line"/>
			<point x="697" y="452" type="line"/>
			<point x="551" y="452" type="line"/>
		</contour>
	</outline>
	<anchor name="aboveLC" x="375" y="472"/>
	<anchor name="belowLC" x="356" y="-20"/>
</glyph>
<glyph name="x" format="2">
	<advance width="461"/>
	<outline>
		<contour>
			<point x="5" y="0" type="line"/>
			<point x="150" y="0" type="line"/>
			<point x="150" y="15" type="line"/>
			<point x="84" y="25" type="line"/>
			<point x="70" y="25" type="line"/>
			<point x="5" y="16" type="line"/>
		</contour>
		<contour>
			<point x="46" y="0" type="line"/>
			<point x="77" y="0" type="line"/>
			<point x="155" y="114" type="line"/>
			<point x="231" y="227" type="line"/>
			<point x="224" y="234" type="line"/>
			<point x="215" y="242" type="line"/>
		</contour>
		<contour>
			<point x="257" y="0" type="line"/>
			<point x="455" y="0" type="line"/>
			<point x="455" y="16" type="line"/>
			<point x="373" y="29" type="line"/>
			<point x="347" y="29" type="line"/>
			<point x="257" y="15" type="line"/>
		</contour>
		<contour>
			<point x="233" y="210" type="line"/>
			<point x="403" y="452" type="line"/>
			<point x="372" y="452" type="line"/>
			<point x="294" y="339" type="line"/>
			<point x="218" y="225" type="line"/>
			<point x="225" y="218" type="line"/>
		</contour>
		<contour>
			<point x="332" y="0" type="line"/>
			<point x="421" y="0" type="line"/>
			<point x="256" y="252" type="line"/>
			<point x="133" y="452" type="line"/>
			<point x="44" y="452" type="line"/>
			<point x="198" y="215" type="line"/>
		</contour>
		<contour>
			<point x="12" y="436" type="line"/>
			<point x="92" y="424" type="line"/>
			<point x="117" y="424" type="line"/>
			<point x="212" y="437" type="line"/>
			<point x="212" y="452" type="line"/>
			<point x="12" y="452" type="line"/>
		</contour>
		<contour>
			<point x="299" y="437" type="line"/>
			<point x="365" y="428" type="line"/>
			<point x="379" y="428" type="line"/>
			<point x="441" y="436" type="line"/>
			<point x="441" y="452" type="line"/>
			<point x="299" y="452" type="line"/>
		</contour>
	</outline>
	<anchor name="aboveLC" x="245" y="472"/>
	<anchor name="belowLC" x="213" y="-20"/>
</glyph>
<glyph name="y" format="2">
	<advance width="467"/>
	<outline>
		<contour>
			<point x="60" y="-258" type="curve" smooth="yes"/>
			<point x="139" y="-258"/>
			<point x="185" y="-171"/>
			<point x="233" y="-43" type="curve" smooth="yes"/>
			<point x="419" y="452" type="line"/>
			<point x="391" y="452" type="line"/>
			<point x="316" y="249" type="line"/>
			<point x="239" y="39" type="line"/>
			<point x="238" y="34" type="line"/>
			<point x="208" y="-43" type="line" smooth="yes"/>
			<point x="170" y="-140"/>
			<point x="140" y="-204"/>
			<point x="89" y="-232" type="curve"/>
			<point x="109" y="-227" type="line"/>
			<point x="119" y="-223" type="line"/>
			<point x="95" y="-204" type="line" smooth="yes"/>
			<point x="75" y="-187"/>
			<point x="58" y="-178"/>
			<point x="35" y="-178" type="curve" smooth="yes"/>
			<point x="8" y="-178"/>
			<point x="-12" y="-193"/>
			<point x="-14" y="-216" type="curve"/>
			<point x="-5" y="-245"/>
			<point x="28" y="-258"/>
		</contour>
		<contour>
			<point x="226" y="-10" type="line"/>
			<point x="243" y="25" type="line"/>
			<point x="269" y="74" type="line"/>
			<point x="128" y="452" type="line"/>
			<point x="44" y="452" type="line"/>
		</contour>
		<contour>
			<point x="4" y="436" type="line"/>
			<point x="90" y="424" type="line"/>
			<point x="116" y="424" type="line"/>
			<point x="215" y="437" type="line"/>
			<point x="215" y="452" type="line"/>
			<point x="4" y="452" type="line"/>
		</contour>
		<contour>
			<point x="311" y="437" type="line"/>
			<point x="387" y="428" type="line"/>
			<point x="399" y="428" type="line"/>
			<point x="463" y="436" type="line"/>
			<point x="463" y="452" type="line"/>
			<point x="311" y="452" type="line"/>
		</contour>
	</outline>
	<anchor name="aboveLC" x="266" y="472"/>
	<anchor name="belowLC" x="111" y="-268"/>
</glyph>
<glyph name="z" format="2">
	<advance width="415"/>
	<outline>
		<contour>
			<point x="28" y="0" type="line"/>
			<point x="384" y="0" type="line"/>
			<point x="391" y="156" type="line"/>
			<point x="377" y="156" type="line"/>
			<point x="325" y="12" type="line"/>
			<point x="362" y="22" type="line"/>
			<point x="227" y="22" type="line"/>
			<point x="109" y="22" type="line"/>
			<point x="109" y="37" type="line"/>
			<point x="102" y="5" type="line"/>
			<point x="379" y="440" type="line"/>
			<point x="379" y="452" type="line"/>
			<point x="44" y="452" type="line"/>
			<point x="40" y="312" type="line"/>
			<point x="55" y="310" type="line"/>
			<point x="105" y="440" type="line"/>
			<point x="65" y="430" type="line"/>
			<point x="190" y="430" type="line"/>
			<point x="300" y="430" type="line"/>
			<point x="304" y="421" type="line"/>
			<point x="304" y="445" type="line"/>
			<point x="28" y="12" type="line"/>
		</contour>
	</outline>
	<anchor name="aboveLC" x="209" y="472"/>
	<anchor name="belowLC" x="216" y="-20"/>
</glyph>
<glyph name="zero.cap" format="2">
	<advance width="486"/>
	<outline>
		<contour>
			<point x="243" y="-12" type="curve" smooth="yes"/>
			<point x="347" y="-12"/>
			<point x="440" y="76"/>
			<point x="440" y="335" type="curve" smooth="yes"/>
			<point x="440" y="594"/>
			<point x="347" y="685"/>
			<point x="243" y="685" type="curve" smooth="yes"/>
			<point x="140" y="685"/>
			<point x="47" y="594"/>
			<point x="47" y="335" type="curve" smooth="yes"/>
			<point x="47" y="76"/>
			<point x="140" y="-12"/>
		</contour>
		<contour>
			<point x="243" y="9" type="curve" smooth="yes"/>
			<point x="187" y="9"/>
			<point x="126" y="70"/>
			<point x="126" y="335" type="curve" smooth="yes"/>
			<point x="126" y="599"/>
			<point x="187" y="664"/>
			<point x="243" y="664" type="curve" smooth="yes"/>
			<point x="299" y="664"/>
			<point x="360" y="599"/>
			<point x="360" y="335" type="curve" smooth="yes"/>
			<point x="360" y="70"/>
			<point x="299" y="9"/>
		</contour>
	</outline>
</glyph>
<glyph name="zero" format="2">
	<advance width="473"/>
	<outline>
		<contour>
			<point x="237" y="-12" type="curve" smooth="yes"/>
			<point x="339" y="-12"/>
			<point x="431" y="77"/>
			<point x="431" y="323" type="curve" smooth="yes"/>
			<point x="431" y="570"/>
			<point x="339" y="658"/>
			<point x="237" y="658" type="curve" smooth="yes"/>
			<point x="134" y="658"/>
			<point x="42" y="570"/>
			<point x="42" y="323" type="curve" smooth="yes"/>
			<point x="42" y="77"/>
			<point x="134" y="-12"/>
		</contour>
		<contour>
			<point x="237" y="9" type="curve" smooth="yes"/>
			<point x="178" y="9"/>
			<point x="121" y="72"/>
			<point x="121" y="323" type="curve" smooth="yes"/>
			<point x="121" y="575"/>
			<point x="178" y="637"/>
			<point x="237" y="637" type="curve" smooth="yes"/>
			<point x="294" y="637"/>
			<point x="352" y="575"/>
			<point x="352" y="323" type="curve" smooth="yes"/>
			<point x="352" y="72"/>
			<point x="294" y="9"/>
		</contour>
	</outline>
</glyph>
<glyph name="zero.lf" format="2">
	<advance width="486"/>
	<outline>
		<contour>
			<point x="243" y="-12" type="curve" smooth="yes"/>
			<point x="347" y="-12"/>
			<point x="440" y="76"/>
			<point x="440" y="323" type="curve" smooth="yes"/>
			<point x="440" y="570"/>
			<point x="347" y="658"/>
			<point x="243" y="658" type="curve" smooth="yes"/>
			<point x="140" y="658"/>
			<point x="47" y="570"/>
			<point x="47" y="323" type="curve" smooth="yes"/>
			<point x="47" y="76"/>
			<point x="140" y="-12"/>
		</contour>
		<contour>
			<point x="243" y="9" type="curve" smooth="yes"/>
			<point x="187" y="9"/>
			<point x="126" y="70"/>
			<point x="126" y="323" type="curve" smooth="yes"/>
			<point x="126" y="575"/>
			<point x="187" y="637"/>
			<point x="243" y="637" type="curve" smooth="yes"/>
			<point x="299" y="637"/>
			<point x="360" y="575"/>
			<point x="360" y="323" type="curve" smooth="yes"/>
			<point x="360" y="70"/>
			<point x="299" y="9"/>
		</contour>
	</outline>
</glyph>
<glyph name="zero.lfslash" format="2">
	<advance width="486"/>
	<outline>
		<contour>
			<point x="243" y="-12" type="curve" smooth="yes"/>
			<point x="347" y="-12"/>
			<point x="440" y="76"/>
			<point x="440" y="323" type="curve" smooth="yes"/>
			<point x="440" y="570"/>
			<point x="347" y="658"/>
			<point x="243" y="658" type="curve" smooth="yes"/>
			<point x="140" y="658"/>
			<point x="47" y="570"/>
			<point x="47" y="323" type="curve" smooth="yes"/>
			<point x="47" y="76"/>
			<point x="140" y="-12"/>
		</contour>
		<contour>
			<point x="243" y="9" type="curve" smooth="yes"/>
			<point x="187" y="9"/>
			<point x="122" y="70"/>
			<point x="122" y="323" type="curve" smooth="yes"/>
			<point x="122" y="575"/>
			<point x="187" y="637"/>
			<point x="243" y="637" type="curve" smooth="yes"/>
			<point x="299" y="637"/>
			<point x="365" y="575"/>
			<point x="365" y="323" type="curve" smooth="yes"/>
			<point x="365" y="70"/>
			<point x="299" y="9"/>
		</contour>
		<contour>
			<point x="68" y="-12" type="line"/>
			<point x="135" y="108" type="line"/>
			<point x="107" y="108" type="line"/>
			<point x="47" y="0" type="line"/>
		</contour>
		<contour>
			<point x="136" y="108" type="line"/>
			<point x="376" y="538" type="line"/>
			<point x="351" y="538" type="line"/>
			<point x="110" y="108" type="line"/>
		</contour>
		<contour>
			<point x="419" y="658" type="line"/>
			<point x="352" y="538" type="line"/>
			<point x="379" y="538" type="line"/>
			<point x="440" y="646" type="line"/>
		</contour>
	</outline>
</glyph>
<glyph name="zero.osf" format="2">
	<advance width="520"/>
	<outline>
		<contour>
			<point x="260" y="-12" type="curve" smooth="yes"/>
			<point x="377" y="-12"/>
			<point x="480" y="65"/>
			<point x="480" y="251" type="curve" smooth="yes"/>
			<point x="480" y="448"/>
			<point x="377" y="521"/>
			<point x="260" y="521" type="curve" smooth="yes"/>
			<point x="142" y="521"/>
			<point x="38" y="448"/>
			<point x="38" y="251" type="curve" smooth="yes"/>
			<point x="38" y="65"/>
			<point x="142" y="-12"/>
		</contour>
		<contour>
			<point x="260" y="9" type="curve" smooth="yes"/>
			<point x="191" y="9"/>
			<point x="118" y="57"/>
			<point x="118" y="251" type="curve" smooth="yes"/>
			<point x="118" y="455"/>
			<point x="191" y="500"/>
			<point x="260" y="500" type="curve" smooth="yes"/>
			<point x="329" y="500"/>
			<point x="402" y="455"/>
			<point x="402" y="251" type="curve" smooth="yes"/>
			<point x="402" y="57"/>
			<point x="329" y="9"/>
		</contour>
	</outline>
</glyph>
